<?xml version="1.0" encoding="UTF-8" standalone="no"?>
<!-- Created with Inkscape (http://www.inkscape.org/) -->

<svg
   version="1.1"
   id="svg2"
   width="416.42667"
   height="284.74667"
   viewBox="0 0 416.42667 284.74667"
   sodipodi:docname="Skillabyte FInalLogo.eps"
   xmlns:inkscape="http://www.inkscape.org/namespaces/inkscape"
   xmlns:sodipodi="http://sodipodi.sourceforge.net/DTD/sodipodi-0.dtd"
   xmlns="http://www.w3.org/2000/svg"
   xmlns:svg="http://www.w3.org/2000/svg">
  <defs
     id="defs6" />
  <sodipodi:namedview
     id="namedview4"
     pagecolor="#ffffff"
     bordercolor="#000000"
     borderopacity="0.25"
     inkscape:showpageshadow="2"
     inkscape:pageopacity="0.0"
     inkscape:pagecheckerboard="0"
     inkscape:deskcolor="#d1d1d1" />
  <g
     id="g8"
     inkscape:groupmode="layer"
     inkscape:label="ink_ext_XXXXXX"
     transform="matrix(1.3333333,0,0,-1.3333333,0,284.74667)">
    <g
       id="g10"
       transform="scale(0.1)">
      <path
         d="m 0,176.488 v 46.641 h 221.695 c 21.059,0 31.586,10.269 31.586,30.859 v 54.524 c 0,18.168 -8.136,28.937 -24.394,32.297 L 83.2227,370.219 C 27.7344,381.219 0,418.52 0,482.141 v 39.468 c 0,77.969 38.9727,116.942 116.941,116.942 h 167.176 l 42.332,-32.992 V 558.93 H 119.094 c -21.0588,0 -31.5667,-10.301 -31.5667,-30.86 v -48.082 c 0,-18.168 8.1407,-28.937 24.3987,-32.277 l 145.64,-28.699 c 55.489,-11.481 83.243,-48.793 83.243,-111.942 v -46.621 c 0,-77.988 -38.993,-116.961 -116.961,-116.961 H 42.332 L 0,176.488"
         style="fill:#324aa6;fill-opacity:1;fill-rule:nonzero;stroke:none"
         id="path12" />
      <path
         d="m 405.363,143.488 v 530.961 h 83.953 V 360.16 l 146.375,160.012 h 82.512 l 7.172,-14.344 -132.016,-142.777 142.047,-205.223 -7.168,-14.34 H 645.727 L 538.109,302.781 489.316,250.391 V 143.488 h -83.953"
         style="fill:#324aa6;fill-opacity:1;fill-rule:nonzero;stroke:none"
         id="path14" />
      <path
         d="m 779.184,143.488 v 376.684 h 83.953 V 143.488 Z m -2.157,441.992 v 85.372 h 88.262 V 585.48 h -88.262"
         style="fill:#324aa6;fill-opacity:1;fill-rule:nonzero;stroke:none"
         id="path16" />
      <path
         d="m 939.188,268.328 v 406.121 h 83.952 v -414.73 c 0,-31.098 15.78,-47.828 47.35,-50.219 v -72.469 c -87.529,0 -131.302,43.77 -131.302,131.297"
         style="fill:#324aa6;fill-opacity:1;fill-rule:nonzero;stroke:none"
         id="path18" />
      <path
         d="m 1119.99,268.328 v 406.121 h 83.96 v -414.73 c 0,-31.098 15.78,-47.828 47.35,-50.219 v -72.469 c -87.53,0 -131.31,43.77 -131.31,131.297"
         style="fill:#324aa6;fill-opacity:1;fill-rule:nonzero;stroke:none"
         id="path20" />
      <path
         d="m 1367.53,249.68 c 0,-22 11,-33.008 33,-33.008 h 106.91 v 85.379 h -106.91 c -22,0 -33,-10.77 -33,-32.281 z m 29.41,-106.192 c -75.58,0 -113.37,37.313 -113.37,111.922 0,74.629 37.79,111.949 113.37,111.949 h 110.5 v 46.629 c 0,21.992 -11.02,32.992 -33.01,32.992 h -152.1 v 45.219 l 37.29,27.973 h 119.12 c 75.08,0 112.63,-37.793 112.63,-113.371 V 143.488 h -194.43"
         style="fill:#324aa6;fill-opacity:1;fill-rule:nonzero;stroke:none"
         id="path22" />
      <path
         d="m 1751.38,216.672 h 118.38 c 22.01,0 33.01,11.008 33.01,33.008 v 164.308 c 0,21.992 -11,32.992 -33.01,32.992 h -118.38 z m -83.95,-73.184 v 530.961 h 83.95 V 520.172 h 122.69 c 75.08,0 112.65,-37.793 112.65,-113.371 V 256.852 c 0,-75.582 -37.57,-113.364 -112.65,-113.364 h -206.64"
         style="fill:#324aa6;fill-opacity:1;fill-rule:nonzero;stroke:none"
         id="path24" />
      <path
         d="m 2019.71,507.25 8.61,12.922 h 72.48 l 94.7,-303.5 h 10.77 l 94.69,303.5 h 72.48 L 2382.05,507.25 2217.74,0 h -72.45 l -8.62,12.8906 45.2,130.5974 H 2138.1 L 2019.71,507.25"
         style="fill:#324aa6;fill-opacity:1;fill-rule:nonzero;stroke:none"
         id="path26" />
      <path
         d="m 2417.93,256.852 v 381.699 h 83.95 V 520.172 H 2630.3 V 446.98 h -128.42 v -197.3 c 0,-22 10.98,-33.008 32.99,-33.008 h 102.62 V 171.48 l -38.05,-27.992 h -68.15 c -75.57,0 -113.36,37.782 -113.36,113.364"
         style="fill:#324aa6;fill-opacity:1;fill-rule:nonzero;stroke:none"
         id="path28" />
      <path
         d="m 2766.62,365.91 h 151.39 v 48.078 c 0,21.992 -11,32.992 -32.99,32.992 h -85.39 c -22.01,0 -33.01,-11 -33.01,-32.992 z m -83.93,-109.058 v 149.949 c 0,75.578 37.76,113.371 113.36,113.371 h 93.26 c 75.1,0 112.65,-37.793 112.65,-113.371 V 300.629 H 2766.62 V 249.68 c 0,-22 11,-33.008 33.01,-33.008 h 187.99 V 171.48 l -38.02,-27.992 h -153.55 c -75.6,0 -113.36,37.782 -113.36,113.364"
         style="fill:#324aa6;fill-opacity:1;fill-rule:nonzero;stroke:none"
         id="path30" />
      <path
         d="m 1688.12,1259.91 v -10.82 l 2.43,-0.43 v -20.52 L 1968,1176.83 c 0,0 -31.67,-42.93 -42.03,-56.27 l -254.4,90.24 v -10.91 l 4.33,-1.54 -1.47,0.51 v -22.03 l 253.35,-90.87 c -39.7,-35.99 -41.32,-34.86 -66.24,-51.24 l -213.24,126.55 v -10.59 l 4.62,-2.77 v -18.75 l 210.83,-129.41 c -21.51,-17.199 -89.69,-45.328 -89.69,-45.328 L 1621.48,1116.93 V 1106 l 4.97,-5.28 v -15.58 l 151.24,-164.89 v -0.238 c 0,0 -73.81,-24.832 -106.9,-32.442 l -79.43,188.64 v -10.93 l 12.48,-29.56 v -5.96 l 80.69,-187.088 v -0.024 c 0,0 111.04,34.68 143.44,56.493 32.46,21.879 158.65,167.919 154.07,342.659 l -0.08,-0.03 c -0.1,-1.07 -0.3,-1.88 -0.42,-2.89 0.91,7.55 1.42,16.05 0.92,26.3 0,0 -4.1,-38.32 -15.62,-53.69 l -278.72,48.42"
         style="fill:#f2531b;fill-opacity:1;fill-rule:nonzero;stroke:none"
         id="path32" />
      <path
         d="m 1984.1,1286.93 v 11.8 l -283.51,11.66 0.82,19.5 -1.77,26.4 c 0.48,-1.71 0.86,-3.4 0.94,-4.92 l 0.83,0.06 v -21.54 l 272.88,17.16 v 23.01 l 3.3,0.23 v 11.85 l -277.01,-18.76 c 0,0 0.42,8.57 -7.88,16.39 v 0.21 l 256.11,44.08 v 22.28 l 2.32,0.39 v 10.98 l -254.56,-43.8 -14.02,11.96 219.59,67.7 v 21.03 l 3.98,1.14 v 11.92 l -222.09,-63.89 -21.06,11.48 181.21,79.54 v 20.02 l -177.92,-76.62 181.38,78.12 v 11.47 l -181.38,-77.45 -27.24,9.21 134.49,87.66 v 19.78 l 3.35,2.12 v 11.58 l -134.97,-84.73 -32.32,5.46 86.05,91.19 v 20.07 l 3.97,4.08 v 9.76 l -86.71,-88.03 c 0,0 -32.77,3.2 -35.52,2.99 l 35.52,90.89 v 14.27 l 3.75,9.35 v 10.36 l -35.96,-88.25 h -36.42 l -0.84,25.87 3.94,0.17 v 12.68 l -37.08,-2.2 v 25.81 l 2.43,0.33 v 12.69 l -37.39,-5.63 v 29.13 l 3.31,0.87 v 11.7 l -33.99,-6.62 v 27.9 l 1.85,0.62 v 13.73 l -29.21,-9.75 v 29.94 l 2.33,0.66 v 15.45 l -23.83,-11.04 v 30.91 l 1.98,1.55 v 14.33 l -19.86,-13.25 v -14.33 l 4.42,-65.75 c 0,0 13.12,-31 17.09,-37.31 3.98,-6.28 22.85,-32.09 22.85,-32.09 l 34.75,-39.71 51.29,-50.98 c 0,0 75.47,-79.77 86.38,-93 10.92,-13.23 93.45,-103.92 104.59,-231.67 l 283.2,-13.92 v 21.83 l 1.64,-0.08"
         style="fill:#f2531b;fill-opacity:1;fill-rule:nonzero;stroke:none"
         id="path34" />
      <path
         d="M 1168.33,1068.56 1017.86,839.109 h 611.67 l -77.72,222.651 -383.48,6.8"
         style="fill:#f2531b;fill-opacity:1;fill-rule:nonzero;stroke:none"
         id="path36" />
      <path
         d="m 1447.24,1592.44 58.22,-8.38 -47.24,35.05 c -158,117.19 -107.07,232.72 -87.69,265.34 1.67,2.81 3,4.83 3.77,5.96 6.71,5.88 32.5,21.19 118.22,21.19 l 313.27,-5.55 150.47,229.44 h -590.34 c -13.66,0.62 -221.72,7.21 -283.81,-205.26 l -0.36,-1.54 c -11.33,-63.15 1.1,-120.37 36.96,-170.06 94.66,-131.17 319.02,-164.82 328.53,-166.19"
         style="fill:#f2531b;fill-opacity:1;fill-rule:nonzero;stroke:none"
         id="path38" />
      <path
         d="m 3068.87,531.941 h 12.61 l 14.76,-37.562 14.76,37.562 h 12.24 V 482.5 h -7.92 v 41.52 h -0.25 l -16.32,-41.52 h -5.4 l -16.31,41.52 h -0.25 V 482.5 h -7.92 z m -33.47,-7.921 h -15.6 v 7.921 h 39.12 v -7.921 h -15.6 V 482.5 h -7.92 v 41.52"
         style="fill:#324aa6;fill-opacity:1;fill-rule:nonzero;stroke:none"
         id="path40" />
    </g>
  </g>
</svg>
