<?xml version="1.0" encoding="UTF-8" standalone="no"?>
<!-- Created with Inkscape (http://www.inkscape.org/) -->

<svg
   version="1.1"
   id="svg2"
   width="563.44"
   height="172.86667"
   viewBox="0 0 563.44 172.86667"
   sodipodi:docname="Skillabyte FInalLogo-horiz-1clr.eps"
   xmlns:inkscape="http://www.inkscape.org/namespaces/inkscape"
   xmlns:sodipodi="http://sodipodi.sourceforge.net/DTD/sodipodi-0.dtd"
   xmlns="http://www.w3.org/2000/svg"
   xmlns:svg="http://www.w3.org/2000/svg">
  <defs
     id="defs6" />
  <sodipodi:namedview
     id="namedview4"
     pagecolor="#ffffff"
     bordercolor="#000000"
     borderopacity="0.25"
     inkscape:showpageshadow="2"
     inkscape:pageopacity="0.0"
     inkscape:pagecheckerboard="0"
     inkscape:deskcolor="#d1d1d1" />
  <g
     id="g8"
     inkscape:groupmode="layer"
     inkscape:label="ink_ext_XXXXXX"
     transform="matrix(1.3333333,0,0,-1.3333333,0,172.86667)">
    <g
       id="g10"
       transform="scale(0.1)">
      <path
         d="m 1099.42,314.973 v 46.636 h 221.69 c 21.06,0 31.59,10.274 31.59,30.856 v 54.519 c 0,18.172 -8.14,28.942 -24.4,32.297 l -145.66,29.414 c -55.49,11.004 -83.22,48.297 -83.22,111.926 v 39.469 c 0,77.965 38.97,116.937 116.94,116.937 h 167.17 l 42.34,-32.984 v -46.641 h -207.36 c -21.06,0 -31.56,-10.293 -31.56,-30.855 v -48.082 c 0,-18.172 8.14,-28.938 24.39,-32.274 l 145.65,-28.703 c 55.48,-11.476 83.24,-48.793 83.24,-111.945 v -46.617 c 0,-77.988 -39,-116.965 -116.96,-116.965 h -181.52 l -42.33,33.012"
         style="fill:#231f20;fill-opacity:1;fill-rule:nonzero;stroke:none"
         id="path12" />
      <path
         d="m 1504.78,281.961 v 530.961 h 83.96 V 498.641 l 146.37,160.004 h 82.51 l 7.17,-14.34 -132.01,-142.778 142.05,-205.226 -7.17,-14.34 h -82.52 l -107.61,159.297 -48.79,-52.387 v -106.91 h -83.96"
         style="fill:#231f20;fill-opacity:1;fill-rule:nonzero;stroke:none"
         id="path14" />
      <path
         d="m 1878.6,281.961 v 376.684 h 83.95 V 281.961 Z m -2.15,441.992 v 85.375 h 88.26 v -85.375 h -88.26"
         style="fill:#231f20;fill-opacity:1;fill-rule:nonzero;stroke:none"
         id="path16" />
      <path
         d="m 2038.61,406.805 v 406.117 h 83.95 V 398.191 c 0,-31.089 15.78,-47.82 47.35,-50.211 V 275.5 c -87.53,0 -131.3,43.777 -131.3,131.305"
         style="fill:#231f20;fill-opacity:1;fill-rule:nonzero;stroke:none"
         id="path18" />
      <path
         d="m 2219.41,406.805 v 406.117 h 83.95 V 398.191 c 0,-31.089 15.79,-47.82 47.35,-50.211 V 275.5 c -87.52,0 -131.3,43.777 -131.3,131.305"
         style="fill:#231f20;fill-opacity:1;fill-rule:nonzero;stroke:none"
         id="path20" />
      <path
         d="m 2466.94,388.16 c 0,-22.008 11.01,-33.012 33.01,-33.012 h 106.91 v 85.375 h -106.91 c -22,0 -33.01,-10.765 -33.01,-32.273 z m 29.42,-106.199 c -75.58,0 -113.37,37.316 -113.37,111.926 0,74.629 37.79,111.945 113.37,111.945 h 110.5 v 46.641 c 0,21.984 -11.02,32.984 -33.01,32.984 h -152.1 v 45.219 l 37.29,27.969 h 119.12 c 75.08,0 112.63,-37.79 112.63,-113.368 V 281.961 h -194.43"
         style="fill:#231f20;fill-opacity:1;fill-rule:nonzero;stroke:none"
         id="path22" />
      <path
         d="m 2850.8,355.148 h 118.38 c 22.01,0 33.01,11.004 33.01,33.012 v 164.313 c 0,21.984 -11,32.984 -33.01,32.984 H 2850.8 Z m -83.96,-73.187 v 530.961 h 83.96 V 658.645 h 122.69 c 75.08,0 112.65,-37.79 112.65,-113.368 V 395.328 c 0,-75.578 -37.57,-113.367 -112.65,-113.367 h -206.65"
         style="fill:#231f20;fill-opacity:1;fill-rule:nonzero;stroke:none"
         id="path24" />
      <path
         d="m 3119.13,645.727 8.61,12.918 h 72.48 l 94.7,-303.497 h 10.76 l 94.7,303.497 h 72.48 l 8.61,-12.918 -164.31,-507.258 h -72.45 l -8.62,12.902 45.2,130.59 h -43.78 l -118.38,363.766"
         style="fill:#231f20;fill-opacity:1;fill-rule:nonzero;stroke:none"
         id="path26" />
      <path
         d="m 3517.34,395.328 v 381.699 h 83.96 V 658.645 h 128.42 V 585.457 H 3601.3 V 388.16 c 0,-22.008 10.98,-33.012 32.99,-33.012 h 102.62 v -45.195 l -38.05,-27.992 h -68.15 c -75.58,0 -113.37,37.789 -113.37,113.367"
         style="fill:#231f20;fill-opacity:1;fill-rule:nonzero;stroke:none"
         id="path28" />
      <path
         d="m 3866.04,504.391 h 151.39 v 48.082 c 0,21.984 -11,32.984 -32.99,32.984 h -85.4 c -22,0 -33,-11 -33,-32.984 z M 3782.1,395.328 v 149.949 c 0,75.578 37.77,113.368 113.37,113.368 h 93.26 c 75.1,0 112.65,-37.79 112.65,-113.368 V 439.105 H 3866.04 V 388.16 c 0,-22.008 11,-33.012 33,-33.012 h 188 v -45.195 l -38.02,-27.992 h -153.55 c -75.6,0 -113.37,37.789 -113.37,113.367"
         style="fill:#231f20;fill-opacity:1;fill-rule:nonzero;stroke:none"
         id="path30" />
      <path
         d="m 670.258,420.797 v -10.82 l 2.43,-0.43 v -20.52 l 277.449,-51.304 c 0,0 -31.664,-42.934 -42.028,-56.274 l -254.406,90.242 v -10.914 l 4.332,-1.535 -1.465,0.5 V 337.723 L 909.918,246.852 C 870.219,210.859 868.594,211.988 843.676,195.609 L 630.434,322.164 v -10.59 l 4.625,-2.769 v -18.754 l 210.824,-129.41 c -21.504,-17.2 -89.684,-45.332 -89.684,-45.332 L 603.617,277.82 v -10.929 l 4.969,-5.282 V 246.031 L 759.828,81.1406 v -0.2422 c 0,0 -73.808,-24.8281 -106.898,-32.4375 L 573.5,237.102 v -10.93 l 12.48,-29.563 v -5.961 L 666.668,3.55859 V 3.53906 c 0,0 111.043,34.67974 143.445,56.49224 32.453,21.8789 158.649,167.9177 154.063,342.6637 l -0.078,-0.039 c -0.098,-1.062 -0.301,-1.875 -0.422,-2.89 0.914,7.55 1.426,16.058 0.918,26.304 0,0 -4.098,-38.324 -15.614,-53.691 l -278.722,48.418"
         style="fill:#231f20;fill-opacity:1;fill-rule:nonzero;stroke:none"
         id="path32" />
      <path
         d="m 966.238,447.824 v 11.793 l -283.515,11.668 0.828,19.5 -1.77,26.391 c 0.481,-1.707 0.856,-3.391 0.93,-4.914 l 0.84,0.054 v -21.531 l 272.875,17.156 v 23.008 l 3.304,0.227 v 11.859 L 682.711,524.266 c 0,0 0.422,8.574 -7.871,16.386 v 0.223 l 256.105,44.078 v 22.281 l 2.325,0.391 v 10.98 l -254.563,-43.804 -14.019,11.961 219.585,67.695 v 21.031 l 3.981,1.141 v 11.918 L 666.168,624.664 645.105,636.141 826.32,715.68 v 20.019 l -177.922,-76.621 181.379,78.121 v 11.473 l -181.379,-77.453 -27.238,9.211 134.485,87.66 v 19.781 l 3.355,2.117 v 11.582 l -134.973,-84.726 -32.32,5.457 86.047,91.187 v 20.071 l 3.973,4.078 v 9.761 l -86.715,-88.035 c 0,0 -32.762,3.203 -35.512,2.992 l 35.512,90.891 v 14.274 l 3.758,9.351 v 10.359 l -35.965,-88.25 h -36.414 l -0.84,25.872 3.937,0.164 v 12.679 L 492.406,835.5 v 25.813 l 2.426,0.324 v 12.695 l -37.387,-5.633 v 29.133 l 3.317,0.871 v 11.695 l -33.996,-6.621 v 27.907 l 1.855,0.613 v 13.73 l -29.215,-9.746 v 29.942 l 2.328,0.66 v 15.445 L 377.91,971.289 v 30.911 l 1.977,1.55 v 14.33 l -19.86,-13.25 V 990.5 l 4.414,-65.758 c 0,0 13.125,-30.992 17.102,-37.301 3.973,-6.289 22.84,-32.093 22.84,-32.093 l 34.75,-39.711 51.293,-50.977 c 0,0 75.469,-79.765 86.379,-93.004 10.925,-13.226 93.453,-103.914 104.59,-231.668 L 964.594,426.07 v 21.828 l 1.644,-0.074"
         style="fill:#231f20;fill-opacity:1;fill-rule:nonzero;stroke:none"
         id="path34" />
      <path
         d="M 150.465,229.449 0,0 h 611.668 l -77.723,222.648 -383.48,6.801"
         style="fill:#231f20;fill-opacity:1;fill-rule:nonzero;stroke:none"
         id="path36" />
      <path
         d="m 429.375,753.332 58.223,-8.379 -47.246,35.039 c -157.997,117.196 -107.067,232.728 -87.684,265.348 1.668,2.81 2.996,4.83 3.766,5.96 6.711,5.88 32.507,21.19 118.226,21.19 l 313.27,-5.54 150.465,229.43 H 348.055 C 334.398,1297 126.336,1303.59 64.25,1091.12 l -0.3633,-1.54 C 52.5547,1026.43 64.9844,969.215 100.844,919.523 195.508,788.352 419.871,754.699 429.375,753.332"
         style="fill:#231f20;fill-opacity:1;fill-rule:nonzero;stroke:none"
         id="path38" />
      <path
         d="m 4171.42,667.871 h 12.6 l 14.76,-37.558 14.77,37.558 h 12.23 V 618.43 h -7.92 v 41.523 h -0.24 L 4201.3,618.43 h -5.4 l -16.32,41.523 h -0.24 V 618.43 h -7.92 z m -33.48,-7.918 h -15.6 v 7.918 h 39.13 v -7.918 h -15.61 V 618.43 h -7.92 v 41.523"
         style="fill:#231f20;fill-opacity:1;fill-rule:nonzero;stroke:none"
         id="path40" />
    </g>
  </g>
</svg>
