<svg xmlns="http://www.w3.org/2000/svg" xmlns:xlink="http://www.w3.org/1999/xlink" width="1600" zoomAndPan="magnify" viewBox="0 0 1200 1199.999942" height="1600" preserveAspectRatio="xMidYMid meet" version="1.0"><path fill="#0047ba" d="M 1067.878906 1060.550781 C 1131.972656 1006.777344 1166.984375 917.769531 1167.789062 862.523438 C 1173.8125 450.761719 1199.792969 252.488281 955.585938 140.238281 C 899.121094 114.285156 560.804688 10.148438 305.140625 127.003906 C 187.046875 180.972656 0.238281 286.027344 93.457031 728.476562 C 130.359375 903.65625 238.496094 1126.902344 400.765625 1164.113281 C 502.804688 1187.511719 535.292969 1189.886719 747.359375 1170.589844 C 930.902344 1153.878906 989.492188 1126.324219 1067.878906 1060.550781 " fill-opacity="1" fill-rule="nonzero"/><path fill="#000000" d="M 706.011719 105.863281 C 705.65625 105.863281 705.292969 105.769531 704.964844 105.570312 L 697.777344 101.160156 C 696.832031 100.582031 696.53125 99.339844 697.117188 98.394531 C 697.699219 97.445312 698.933594 97.152344 699.882812 97.726562 L 707.066406 102.136719 C 708.011719 102.714844 708.3125 103.960938 707.726562 104.902344 C 707.351562 105.519531 706.6875 105.863281 706.011719 105.863281 " fill-opacity="1" fill-rule="nonzero"/><path fill="#000000" d="M 731.175781 121.292969 C 730.8125 121.292969 730.453125 121.195312 730.132812 120.996094 L 722.941406 116.589844 C 721.992188 116.007812 721.695312 114.769531 722.273438 113.820312 C 722.855469 112.875 724.089844 112.578125 725.039062 113.15625 L 732.230469 117.566406 C 733.171875 118.144531 733.46875 119.382812 732.886719 120.332031 C 732.511719 120.949219 731.847656 121.292969 731.175781 121.292969 " fill-opacity="1" fill-rule="nonzero"/><path fill="#000000" d="M 705.175781 127.617188 C 704.820312 127.617188 704.460938 127.523438 704.140625 127.328125 C 703.183594 126.746094 702.882812 125.515625 703.460938 124.5625 L 707.816406 117.351562 C 708.390625 116.398438 709.632812 116.09375 710.582031 116.664062 C 711.535156 117.242188 711.84375 118.476562 711.261719 119.429688 L 706.894531 126.648438 C 706.519531 127.273438 705.859375 127.617188 705.175781 127.617188 " fill-opacity="1" fill-rule="nonzero"/><path fill="#000000" d="M 720.453125 102.359375 C 720.105469 102.359375 719.746094 102.261719 719.417969 102.070312 C 718.472656 101.5 718.160156 100.253906 718.730469 99.308594 L 723.097656 92.089844 C 723.671875 91.140625 724.90625 90.839844 725.863281 91.414062 C 726.8125 91.988281 727.113281 93.222656 726.539062 94.175781 L 722.175781 101.386719 C 721.800781 102.015625 721.128906 102.359375 720.453125 102.359375 " fill-opacity="1" fill-rule="nonzero"/><path fill="#000000" d="M 83.851562 537.3125 C 82.898438 537.3125 82.050781 536.628906 81.875 535.65625 C 71.933594 481.121094 76.757812 423.074219 95.824219 367.792969 C 96.1875 366.742188 97.328125 366.1875 98.378906 366.550781 C 99.433594 366.914062 99.992188 368.058594 99.628906 369.105469 C 80.785156 423.734375 76.015625 481.078125 85.832031 534.941406 C 86.03125 536.027344 85.308594 537.082031 84.210938 537.273438 C 84.089844 537.300781 83.96875 537.3125 83.851562 537.3125 " fill-opacity="1" fill-rule="nonzero"/><path fill="#000000" d="M 106.734375 349.53125 L 113.5 354.980469 C 114.058594 353.175781 114.808594 350.667969 115.519531 347.945312 Z M 114.515625 360.386719 C 114.0625 360.386719 113.613281 360.234375 113.253906 359.945312 L 100.78125 349.902344 C 100.167969 349.410156 99.898438 348.605469 100.09375 347.839844 C 100.289062 347.078125 100.910156 346.496094 101.6875 346.359375 L 117.855469 343.4375 C 118.527344 343.316406 119.207031 343.542969 119.671875 344.03125 C 120.140625 344.515625 120.328125 345.210938 120.175781 345.871094 C 118.644531 352.476562 116.507812 358.757812 116.417969 359.027344 C 116.207031 359.644531 115.707031 360.125 115.074219 360.304688 C 114.890625 360.363281 114.703125 360.386719 114.515625 360.386719 " fill-opacity="1" fill-rule="nonzero"/><path fill="#000000" d="M 826.230469 1132.933594 C 825.304688 1132.933594 824.464844 1132.292969 824.25 1131.347656 C 824.003906 1130.253906 824.695312 1129.164062 825.792969 1128.914062 C 833.609375 1127.164062 841.480469 1125.234375 849.175781 1123.15625 C 850.269531 1122.867188 851.378906 1123.511719 851.671875 1124.59375 C 851.964844 1125.683594 851.316406 1126.792969 850.238281 1127.085938 C 842.480469 1129.171875 834.554688 1131.121094 826.679688 1132.886719 C 826.53125 1132.921875 826.378906 1132.933594 826.230469 1132.933594 " fill-opacity="1" fill-rule="nonzero"/><path fill="#000000" d="M 849.714844 1127.132812 C 848.824219 1127.132812 848.011719 1126.542969 847.773438 1125.644531 C 847.488281 1124.574219 848.121094 1123.46875 849.1875 1123.183594 C 956.59375 1094.316406 1050.875 1034.320312 1114.667969 954.253906 C 1115.363281 953.382812 1116.632812 953.238281 1117.5 953.929688 C 1118.367188 954.625 1118.511719 955.886719 1117.816406 956.753906 C 1085.492188 997.335938 1045.898438 1032.644531 1000.152344 1061.691406 C 954.6875 1090.554688 904.257812 1112.550781 850.238281 1127.066406 C 850.0625 1127.109375 849.882812 1127.132812 849.714844 1127.132812 " fill-opacity="1" fill-rule="nonzero"/><path fill="#000000" d="M 905.964844 1078.835938 C 905.175781 1078.835938 904.417969 1078.355469 904.105469 1077.574219 C 903.6875 1076.542969 904.1875 1075.371094 905.222656 1074.957031 C 979.761719 1044.9375 1044.394531 998.402344 1092.128906 940.371094 C 1092.835938 939.511719 1094.105469 939.386719 1094.960938 940.097656 C 1095.820312 940.800781 1095.941406 942.066406 1095.234375 942.925781 C 1047.074219 1001.46875 981.886719 1048.421875 906.726562 1078.691406 C 906.476562 1078.789062 906.214844 1078.835938 905.964844 1078.835938 " fill-opacity="1" fill-rule="nonzero"/><path fill="#000000" d="M 1118.570312 176.226562 C 1118.101562 176.226562 1117.628906 176.058594 1117.238281 175.722656 C 1078.09375 141.355469 1032.277344 113.707031 981.082031 93.53125 C 980.046875 93.121094 979.542969 91.957031 979.949219 90.921875 C 980.355469 89.886719 981.523438 89.382812 982.558594 89.789062 C 1034.191406 110.132812 1080.394531 138.035156 1119.902344 172.703125 C 1120.730469 173.433594 1120.820312 174.703125 1120.078125 175.542969 C 1119.6875 175.996094 1119.128906 176.226562 1118.570312 176.226562 " fill-opacity="1" fill-rule="nonzero"/><path fill="#000000" d="M 1071.238281 170.796875 C 1070.804688 170.796875 1070.363281 170.65625 1069.996094 170.363281 C 1019.839844 130.78125 960.5 102.71875 893.621094 86.960938 C 892.539062 86.703125 891.867188 85.621094 892.121094 84.539062 C 892.378906 83.457031 893.453125 82.785156 894.542969 83.039062 C 962.003906 98.945312 1021.875 127.257812 1072.488281 167.207031 C 1073.351562 167.894531 1073.503906 169.152344 1072.816406 170.027344 C 1072.425781 170.535156 1071.832031 170.796875 1071.238281 170.796875 " fill-opacity="1" fill-rule="nonzero"/><path fill="#99b9ff" d="M 1132.011719 817.234375 L 495.269531 728.679688 C 479.285156 726.640625 467.304688 713.039062 467.304688 696.921875 L 458.570312 252.78125 C 458.570312 252.78125 473.082031 242.320312 481.316406 238.308594 C 485.496094 236.269531 490.316406 235.371094 495.332031 236.011719 L 1130.179688 316.976562 C 1146.175781 319.011719 1158.152344 332.617188 1158.152344 348.742188 L 1158.152344 784.964844 C 1158.152344 792.769531 1154.589844 799.648438 1149.0625 804.183594 C 1143.984375 808.359375 1132.011719 817.234375 1132.011719 817.234375 " fill-opacity="1" fill-rule="nonzero"/><path fill="#ffffff" d="M 1112.585938 823.132812 L 477.734375 742.171875 C 461.746094 740.132812 449.765625 726.527344 449.765625 710.414062 L 449.765625 274.1875 C 449.765625 259.195312 462.925781 247.609375 477.792969 249.503906 L 1112.640625 330.46875 C 1128.636719 332.507812 1140.617188 346.109375 1140.617188 362.230469 L 1140.617188 798.453125 C 1140.617188 813.441406 1127.453125 825.027344 1112.585938 823.132812 " fill-opacity="1" fill-rule="nonzero"/><path fill="#0047ba" d="M 1099.09375 805.152344 L 492.90625 727.847656 C 481.277344 726.363281 472.566406 716.46875 472.566406 704.75 L 472.566406 283.972656 C 472.566406 273.957031 481.355469 266.222656 491.289062 267.488281 L 1097.472656 344.789062 C 1109.097656 346.273438 1117.808594 356.171875 1117.808594 367.886719 L 1117.808594 788.667969 C 1117.808594 798.679688 1109.023438 806.421875 1099.09375 805.152344 " fill-opacity="1" fill-rule="nonzero"/><path fill="#000000" d="M 1115.726562 825.34375 C 1114.597656 825.34375 1113.457031 825.269531 1112.332031 825.132812 L 570.53125 756.035156 C 569.429688 755.894531 568.648438 754.886719 568.792969 753.785156 C 568.929688 752.683594 569.933594 751.90625 571.039062 752.046875 L 1112.832031 821.140625 C 1119.347656 821.972656 1125.914062 819.960938 1130.84375 815.617188 C 1135.769531 811.277344 1138.597656 805.023438 1138.597656 798.453125 L 1138.597656 362.234375 C 1138.597656 347.167969 1127.332031 334.371094 1112.390625 332.464844 L 700.605469 279.953125 C 699.5 279.808594 698.71875 278.808594 698.859375 277.703125 C 699.003906 276.601562 700.011719 275.820312 701.105469 275.960938 L 1112.898438 328.476562 C 1129.835938 330.636719 1142.617188 345.152344 1142.617188 362.234375 L 1142.617188 798.453125 C 1142.617188 806.171875 1139.300781 813.535156 1133.5 818.632812 C 1128.5625 822.988281 1122.234375 825.34375 1115.726562 825.34375 " fill-opacity="1" fill-rule="nonzero"/><path fill="#ff6600" d="M 742.210938 1080.039062 L 89.296875 995.835938 C 84.183594 995.183594 81.304688 990.90625 81.367188 986.628906 C 81.414062 983.671875 81.652344 962.890625 81.652344 962.890625 L 426.886719 765.523438 C 444.183594 755.648438 466.5625 751.832031 486.324219 754.367188 L 1130.996094 837.523438 C 1134.871094 838.027344 1138.203125 840.546875 1139.746094 844.140625 L 1140.773438 846.570312 C 1140.773438 846.570312 1140.222656 863.902344 1140.445312 867.953125 C 1140.625 871.121094 1139.199219 874.382812 1135.882812 876.277344 L 799.316406 1068.714844 C 782.015625 1078.589844 761.96875 1082.566406 742.210938 1080.039062 " fill-opacity="1" fill-rule="nonzero"/><path fill="#ffffff" d="M 169.597656 982.9375 L 91.628906 972.867188 C 82.996094 971.757812 80.722656 960.308594 88.28125 955.992188 L 423.042969 764.796875 C 440.339844 754.914062 460.386719 750.9375 480.140625 753.472656 L 1130.722656 837.511719 C 1139.359375 838.621094 1141.636719 850.074219 1134.078125 854.390625 L 799.3125 1045.585938 C 782.015625 1055.460938 761.96875 1059.441406 742.214844 1056.910156 L 169.597656 982.9375 " fill-opacity="1" fill-rule="nonzero"/><path fill="#99b9ff" d="M 869.597656 950.78125 L 305.453125 877.371094 C 297.652344 876.375 295.601562 866.027344 302.429688 862.128906 L 435.078125 787.132812 C 450.699219 778.207031 468.800781 774.617188 486.648438 776.902344 L 1050.792969 850.3125 C 1058.589844 851.316406 1060.640625 861.660156 1053.816406 865.554688 L 921.167969 940.550781 C 905.542969 949.472656 887.433594 953.066406 869.597656 950.78125 " fill-opacity="1" fill-rule="nonzero"/><path fill="#99b9ff" d="M 753.71875 1059.652344 C 749.792969 1059.652344 745.863281 1059.402344 741.957031 1058.902344 L 423.363281 1018.046875 C 422.261719 1017.898438 421.480469 1016.894531 421.625 1015.789062 C 421.765625 1014.691406 422.777344 1013.910156 423.875 1014.050781 L 742.472656 1054.917969 C 761.675781 1057.378906 781.503906 1053.441406 798.320312 1043.84375 L 1133.074219 852.648438 C 1136.335938 850.789062 1136.980469 847.546875 1136.5 845.140625 C 1136.019531 842.726562 1134.191406 839.984375 1130.46875 839.503906 L 479.886719 755.46875 C 460.683594 753.003906 440.851562 756.9375 424.039062 766.539062 L 377.136719 793.328125 C 376.171875 793.882812 374.945312 793.546875 374.394531 792.582031 C 373.84375 791.613281 374.175781 790.386719 375.140625 789.839844 L 422.046875 763.046875 C 439.613281 753.015625 460.335938 748.90625 480.394531 751.472656 L 1130.992188 835.519531 C 1135.792969 836.132812 1139.507812 839.601562 1140.445312 844.355469 C 1141.386719 849.109375 1139.277344 853.734375 1135.078125 856.136719 L 800.3125 1047.332031 C 786.167969 1055.414062 769.964844 1059.652344 753.71875 1059.652344 " fill-opacity="1" fill-rule="nonzero"/><path fill="#99b9ff" d="M 1073.941406 798.789062 L 519.960938 729.378906 C 517.988281 729.128906 516.507812 727.453125 516.507812 725.46875 L 516.507812 135.339844 C 516.507812 132.972656 518.585938 131.132812 520.9375 131.429688 L 1074.921875 200.835938 C 1076.898438 201.085938 1078.371094 202.761719 1078.371094 204.742188 L 1078.371094 794.878906 C 1078.371094 797.25 1076.292969 799.082031 1073.941406 798.789062 " fill-opacity="1" fill-rule="nonzero"/><path fill="#0047ba" d="M 1030.96875 346.425781 L 615.167969 294.328125 L 615.167969 275.949219 L 1030.96875 328.042969 L 1030.96875 346.425781 " fill-opacity="1" fill-rule="nonzero"/><path fill="#0047ba" d="M 922.367188 368.996094 L 615.167969 330.507812 L 615.167969 312.128906 L 922.367188 350.621094 L 922.367188 368.996094 " fill-opacity="1" fill-rule="nonzero"/><path fill="#0047ba" d="M 1030.96875 444.316406 L 615.167969 392.222656 L 615.167969 373.839844 L 1030.96875 425.933594 L 1030.96875 444.316406 " fill-opacity="1" fill-rule="nonzero"/><path fill="#0047ba" d="M 922.359375 466.898438 L 615.164062 428.414062 L 615.164062 410.03125 L 922.359375 448.519531 L 922.359375 466.898438 " fill-opacity="1" fill-rule="nonzero"/><path fill="#0047ba" d="M 1030.96875 542.21875 L 615.167969 490.117188 L 615.167969 471.742188 L 1030.96875 523.835938 L 1030.96875 542.21875 " fill-opacity="1" fill-rule="nonzero"/><path fill="#0047ba" d="M 922.359375 564.796875 L 615.164062 526.308594 L 615.164062 507.925781 L 922.359375 546.414062 L 922.359375 564.796875 " fill-opacity="1" fill-rule="nonzero"/><path fill="#0047ba" d="M 1030.96875 640.109375 L 615.167969 588.015625 L 615.167969 569.636719 L 1030.96875 621.730469 L 1030.96875 640.109375 " fill-opacity="1" fill-rule="nonzero"/><path fill="#0047ba" d="M 922.359375 662.691406 L 615.164062 624.203125 L 615.164062 605.824219 L 922.359375 644.316406 L 922.359375 662.691406 " fill-opacity="1" fill-rule="nonzero"/><path fill="#0047ba" d="M 588.09375 282.601562 C 588.09375 288.898438 582.957031 293.355469 576.613281 292.5625 C 570.273438 291.761719 565.136719 286.019531 565.136719 279.726562 C 565.136719 273.429688 570.273438 268.96875 576.613281 269.765625 C 582.957031 270.558594 588.09375 276.304688 588.09375 282.601562 " fill-opacity="1" fill-rule="nonzero"/><path fill="#0047ba" d="M 585.394531 381.492188 C 585.394531 387.789062 580.253906 392.246094 573.914062 391.449219 C 567.570312 390.65625 562.4375 384.914062 562.4375 378.613281 C 562.4375 372.320312 567.570312 367.859375 573.914062 368.65625 C 580.253906 369.449219 585.394531 375.199219 585.394531 381.492188 " fill-opacity="1" fill-rule="nonzero"/><path fill="#0047ba" d="M 585.835938 477.203125 C 585.835938 483.496094 580.703125 487.957031 574.363281 487.160156 C 568.023438 486.371094 562.878906 480.621094 562.878906 474.324219 C 562.878906 468.03125 568.023438 463.570312 574.363281 464.367188 C 580.703125 465.164062 585.835938 470.90625 585.835938 477.203125 " fill-opacity="1" fill-rule="nonzero"/><path fill="#0047ba" d="M 583.140625 576.09375 C 583.140625 582.390625 577.996094 586.851562 571.65625 586.054688 C 565.316406 585.261719 560.179688 579.515625 560.179688 573.21875 C 560.179688 566.929688 565.316406 562.46875 571.65625 563.261719 C 577.996094 564.054688 583.140625 569.804688 583.140625 576.09375 " fill-opacity="1" fill-rule="nonzero"/><path fill="#0047ba" d="M 1028.261719 725.597656 L 612.46875 673.5 L 612.46875 655.125 L 1028.261719 707.21875 L 1028.261719 725.597656 " fill-opacity="1" fill-rule="nonzero"/><path fill="#0047ba" d="M 919.664062 748.171875 L 612.46875 709.683594 L 612.46875 691.300781 L 919.664062 729.789062 L 919.664062 748.171875 " fill-opacity="1" fill-rule="nonzero"/><path fill="#0047ba" d="M 580.441406 661.578125 C 580.441406 667.875 575.296875 672.332031 568.957031 671.542969 C 562.617188 670.746094 557.476562 664.996094 557.476562 658.703125 C 557.476562 652.40625 562.617188 647.949219 568.957031 648.742188 C 575.296875 649.539062 580.441406 655.28125 580.441406 661.578125 " fill-opacity="1" fill-rule="nonzero"/><path fill="#ffffff" d="M 918.101562 274.160156 L 665.980469 242.570312 L 665.980469 216.648438 L 918.101562 248.238281 L 918.101562 274.160156 " fill-opacity="1" fill-rule="nonzero"/><path fill="#000000" d="M 1074.433594 800.828125 C 1074.179688 800.828125 1073.941406 800.8125 1073.695312 800.78125 L 579.628906 738.878906 C 578.53125 738.746094 577.746094 737.738281 577.886719 736.636719 C 578.023438 735.535156 579.03125 734.746094 580.128906 734.890625 L 1074.195312 796.796875 C 1074.753906 796.863281 1075.292969 796.699219 1075.710938 796.324219 C 1076.128906 795.953125 1076.359375 795.4375 1076.359375 794.878906 L 1076.359375 204.746094 C 1076.359375 203.78125 1075.632812 202.960938 1074.667969 202.835938 L 520.6875 133.425781 C 520.128906 133.359375 519.59375 133.519531 519.167969 133.890625 C 518.75 134.261719 518.519531 134.78125 518.519531 135.335938 L 517.171875 482.203125 C 517.164062 483.316406 516.261719 484.210938 515.15625 484.210938 C 515.152344 484.210938 515.152344 484.210938 515.152344 484.210938 C 514.039062 484.203125 513.140625 483.296875 513.144531 482.195312 L 514.496094 135.328125 C 514.496094 133.636719 515.230469 132.003906 516.511719 130.875 C 517.789062 129.746094 519.488281 129.222656 521.1875 129.429688 L 1075.179688 198.847656 C 1078.140625 199.21875 1080.378906 201.753906 1080.378906 204.746094 L 1080.378906 794.878906 C 1080.378906 796.582031 1079.652344 798.210938 1078.371094 799.339844 C 1077.28125 800.308594 1075.875 800.828125 1074.433594 800.828125 " fill-opacity="1" fill-rule="nonzero"/><path fill="#99b9ff" d="M 94.410156 1139.011719 L 369.824219 1139.011719 C 385.929688 1139.011719 398.988281 1125.957031 398.988281 1109.847656 L 398.988281 922.710938 C 398.988281 906.605469 385.929688 893.546875 369.824219 893.546875 L 94.410156 893.546875 C 78.300781 893.546875 65.242188 906.605469 65.242188 922.710938 L 65.242188 1109.847656 C 65.242188 1125.957031 78.300781 1139.011719 94.410156 1139.011719 " fill-opacity="1" fill-rule="nonzero"/><path fill="#99b9ff" d="M 69.683594 934.339844 L 394.335938 934.339844 C 399.398438 934.339844 403.503906 930.238281 403.503906 925.175781 L 403.503906 902.648438 C 403.503906 897.589844 399.398438 893.488281 394.335938 893.488281 L 69.683594 893.488281 C 64.621094 893.488281 60.519531 897.589844 60.519531 902.648438 L 60.519531 925.175781 C 60.519531 930.238281 64.621094 934.339844 69.683594 934.339844 " fill-opacity="1" fill-rule="nonzero"/><path fill="#ffffff" d="M 395.457031 936.351562 L 68.566406 936.351562 C 63.019531 936.351562 58.507812 931.691406 58.507812 925.964844 L 58.507812 901.863281 C 58.507812 896.132812 63.019531 891.476562 68.566406 891.476562 L 269.6875 891.476562 C 270.796875 891.476562 271.695312 892.375 271.695312 893.488281 C 271.695312 894.601562 270.796875 895.5 269.6875 895.5 L 68.566406 895.5 C 65.238281 895.5 62.53125 898.351562 62.53125 901.863281 L 62.53125 925.964844 C 62.53125 929.472656 65.238281 932.328125 68.566406 932.328125 L 395.457031 932.328125 C 396.566406 932.328125 397.46875 933.226562 397.46875 934.339844 C 397.46875 935.453125 396.566406 936.351562 395.457031 936.351562 " fill-opacity="1" fill-rule="nonzero"/><path fill="#ffffff" d="M 184.136719 1134.074219 C 184.125 1134.074219 184.117188 1134.074219 184.105469 1134.074219 C 182.992188 1134.054688 182.109375 1133.144531 182.125 1132.035156 L 185.265625 941.660156 C 185.28125 940.558594 186.179688 939.683594 187.273438 939.683594 C 187.285156 939.683594 187.296875 939.683594 187.308594 939.683594 C 188.421875 939.699219 189.308594 940.613281 189.289062 941.726562 L 186.148438 1132.101562 C 186.128906 1133.199219 185.230469 1134.074219 184.136719 1134.074219 " fill-opacity="1" fill-rule="nonzero"/><path fill="#ffffff" d="M 379.152344 1109.992188 C 382.367188 1106.742188 400.949219 1048.9375 400.949219 1048.9375 L 437.667969 1075.140625 L 397.410156 1129.238281 L 379.152344 1109.992188 " fill-opacity="1" fill-rule="nonzero"/><path fill="#000000" d="M 381.652344 1109.707031 L 397.226562 1126.117188 L 434.828125 1075.582031 L 402.019531 1052.175781 C 397.3125 1066.746094 385.992188 1101.246094 381.652344 1109.707031 Z M 397.410156 1131.25 C 396.863281 1131.25 396.332031 1131.023438 395.953125 1130.625 L 377.691406 1111.378906 C 376.953125 1110.601562 376.957031 1109.378906 377.699219 1108.609375 C 380.058594 1105.695312 392.03125 1070.101562 399.03125 1048.324219 C 399.230469 1047.714844 399.707031 1047.234375 400.316406 1047.027344 C 400.925781 1046.828125 401.59375 1046.929688 402.117188 1047.300781 L 438.832031 1073.5 C 439.273438 1073.8125 439.570312 1074.289062 439.652344 1074.824219 C 439.738281 1075.359375 439.601562 1075.90625 439.28125 1076.339844 L 399.023438 1130.441406 C 398.671875 1130.914062 398.125 1131.210938 397.53125 1131.25 C 397.492188 1131.25 397.449219 1131.25 397.410156 1131.25 " fill-opacity="1" fill-rule="nonzero"/><path fill="#000000" d="M 445.320312 1183.085938 L 420.898438 1182.941406 C 404.746094 1182.84375 389.71875 1174.636719 380.90625 1161.09375 L 356.761719 1122.867188 C 350.089844 1112.300781 353.824219 1098.304688 364.859375 1092.4375 C 374.933594 1087.085938 385.492188 1081.867188 387.96875 1082.105469 C 392.992188 1082.582031 395.019531 1106.34375 395.019531 1106.34375 L 416.773438 1107.1875 C 416.773438 1107.1875 427.523438 1151.875 436.980469 1156.953125 C 443.867188 1160.65625 448.675781 1166.089844 451.914062 1171.050781 C 455.300781 1176.246094 451.523438 1183.121094 445.320312 1183.085938 " fill-opacity="1" fill-rule="nonzero"/><path fill="#ffffff" d="M 442.863281 1175.558594 C 442.765625 1175.558594 442.664062 1175.554688 442.5625 1175.535156 L 409.164062 1170.511719 C 401.046875 1169.289062 393.972656 1164.546875 389.757812 1157.5 L 360.246094 1108.195312 C 359.675781 1107.246094 359.984375 1106.003906 360.9375 1105.441406 C 361.890625 1104.867188 363.125 1105.179688 363.695312 1106.132812 L 393.210938 1155.433594 C 396.808594 1161.441406 402.839844 1165.488281 409.761719 1166.527344 L 443.160156 1171.5625 C 444.261719 1171.726562 445.019531 1172.75 444.851562 1173.847656 C 444.703125 1174.84375 443.84375 1175.558594 442.863281 1175.558594 " fill-opacity="1" fill-rule="nonzero"/><path fill="#ffffff" d="M 401.636719 1138.480469 C 400.75 1138.480469 399.9375 1137.894531 399.695312 1137 C 399.40625 1135.921875 400.035156 1134.824219 401.109375 1134.53125 L 419.71875 1129.460938 C 420.789062 1129.171875 421.894531 1129.800781 422.1875 1130.871094 C 422.476562 1131.949219 421.84375 1133.046875 420.773438 1133.339844 L 402.164062 1138.410156 C 401.988281 1138.457031 401.808594 1138.480469 401.636719 1138.480469 " fill-opacity="1" fill-rule="nonzero"/><path fill="#ffffff" d="M 411.328125 1148.035156 C 410.421875 1148.035156 409.601562 1147.425781 409.375 1146.503906 C 409.109375 1145.425781 409.769531 1144.335938 410.851562 1144.074219 L 423.328125 1141.023438 C 424.410156 1140.753906 425.496094 1141.417969 425.761719 1142.496094 C 426.023438 1143.574219 425.363281 1144.664062 424.28125 1144.925781 L 411.808594 1147.980469 C 411.648438 1148.019531 411.484375 1148.035156 411.328125 1148.035156 " fill-opacity="1" fill-rule="nonzero"/><path fill="#ffffff" d="M 504.4375 1098.964844 L 547.070312 1141.800781 L 569.667969 1133.5 L 530.371094 1078.699219 L 504.4375 1098.964844 " fill-opacity="1" fill-rule="nonzero"/><path fill="#000000" d="M 507.464844 1099.15625 L 547.585938 1139.46875 L 566.492188 1132.523438 L 529.957031 1081.574219 Z M 547.070312 1143.8125 C 546.542969 1143.8125 546.023438 1143.605469 545.640625 1143.21875 L 503.015625 1100.382812 C 502.605469 1099.976562 502.394531 1099.417969 502.429688 1098.839844 C 502.464844 1098.269531 502.746094 1097.734375 503.203125 1097.378906 L 529.132812 1077.113281 C 529.566406 1076.78125 530.109375 1076.636719 530.660156 1076.707031 C 531.199219 1076.785156 531.683594 1077.082031 532 1077.527344 L 571.304688 1132.324219 C 571.667969 1132.835938 571.769531 1133.492188 571.589844 1134.085938 C 571.40625 1134.691406 570.953125 1135.171875 570.359375 1135.386719 L 547.761719 1143.683594 C 547.539062 1143.769531 547.300781 1143.8125 547.070312 1143.8125 " fill-opacity="1" fill-rule="nonzero"/><path fill="#000000" d="M 533.601562 1135.097656 C 533.601562 1135.097656 531.539062 1153.320312 535.035156 1169.421875 C 536.902344 1178.003906 544.632812 1184.039062 553.410156 1184.039062 L 658.035156 1184.039062 C 665.511719 1184.039062 668.902344 1174.703125 663.171875 1169.902344 C 644.566406 1154.316406 610.34375 1130.519531 568.269531 1123.527344 L 556.53125 1139.953125 L 533.601562 1135.097656 " fill-opacity="1" fill-rule="nonzero"/><path fill="#ffffff" d="M 653.058594 1171.664062 L 544.632812 1171.664062 C 543.519531 1171.664062 542.621094 1170.765625 542.621094 1169.652344 C 542.621094 1168.539062 543.519531 1167.640625 544.632812 1167.640625 L 653.058594 1167.640625 C 654.171875 1167.640625 655.070312 1168.539062 655.070312 1169.652344 C 655.070312 1170.765625 654.171875 1171.664062 653.058594 1171.664062 " fill-opacity="1" fill-rule="nonzero"/><path fill="#ffffff" d="M 592.5625 1152.402344 C 592.304688 1152.402344 592.042969 1152.351562 591.792969 1152.25 C 590.765625 1151.832031 590.273438 1150.652344 590.699219 1149.621094 L 596.4375 1135.703125 C 596.863281 1134.675781 598.042969 1134.183594 599.070312 1134.609375 C 600.097656 1135.035156 600.585938 1136.210938 600.160156 1137.234375 L 594.421875 1151.15625 C 594.097656 1151.933594 593.347656 1152.402344 592.5625 1152.402344 " fill-opacity="1" fill-rule="nonzero"/><path fill="#ffffff" d="M 611.433594 1156.066406 C 611.222656 1156.066406 611.007812 1156.03125 610.800781 1155.964844 C 609.746094 1155.609375 609.171875 1154.472656 609.519531 1153.421875 L 613.667969 1140.859375 C 614.023438 1139.808594 615.160156 1139.234375 616.21875 1139.582031 C 617.269531 1139.929688 617.839844 1141.074219 617.496094 1142.121094 L 613.339844 1154.679688 C 613.0625 1155.527344 612.273438 1156.066406 611.433594 1156.066406 " fill-opacity="1" fill-rule="nonzero"/><path fill="#000000" d="M 278.785156 799.242188 C 278.785156 799.242188 473.617188 776.5625 531.550781 826.710938 C 589.484375 876.863281 440.097656 1092.523438 440.097656 1092.523438 L 392.855469 1057.488281 L 437.667969 905.0625 L 257.566406 853.910156 L 278.785156 799.242188 " fill-opacity="1" fill-rule="nonzero"/><path fill="#000000" d="M 171.5625 898.503906 C 199.863281 907.484375 250.5 919.097656 321.277344 918.128906 C 341.382812 917.855469 359.949219 928.964844 369.085938 946.882812 C 390.050781 987.996094 435.421875 1062.015625 509.328125 1109.992188 L 544.632812 1090.972656 L 454.535156 888.171875 C 446.308594 869.648438 430.929688 855.261719 411.902344 848.28125 L 233.347656 782.808594 C 233.347656 782.808594 177.980469 767.332031 150.835938 816.761719 C 145.988281 825.585938 136.984375 809.804688 134.839844 816.929688 C 127.492188 841.347656 147.253906 890.789062 171.5625 898.503906 " fill-opacity="1" fill-rule="nonzero"/><path fill="#ffffff" d="M 495.253906 981.832031 C 494.480469 981.832031 493.746094 981.378906 493.410156 980.632812 L 452.699219 888.984375 C 444.742188 871.070312 429.617188 856.921875 411.210938 850.171875 L 325.703125 818.816406 C 324.660156 818.433594 324.121094 817.277344 324.503906 816.238281 C 324.886719 815.191406 326.046875 814.65625 327.085938 815.039062 L 412.597656 846.394531 C 432.019531 853.515625 447.976562 868.445312 456.375 887.347656 L 497.089844 979 C 497.535156 980.011719 497.082031 981.203125 496.066406 981.652344 C 495.796875 981.769531 495.527344 981.832031 495.253906 981.832031 " fill-opacity="1" fill-rule="nonzero"/><path fill="#ffffff" d="M 447.714844 1060.613281 C 447.1875 1060.613281 446.660156 1060.40625 446.265625 1059.992188 C 438.066406 1051.472656 429.996094 1042.3125 422.277344 1032.773438 C 421.582031 1031.910156 421.714844 1030.640625 422.578125 1029.941406 C 423.445312 1029.242188 424.710938 1029.375 425.40625 1030.238281 C 433.050781 1039.691406 441.042969 1048.765625 449.164062 1057.207031 C 449.933594 1058.003906 449.910156 1059.28125 449.105469 1060.050781 C 448.71875 1060.421875 448.214844 1060.613281 447.714844 1060.613281 " fill-opacity="1" fill-rule="nonzero"/><path fill="#ffffff" d="M 423.84375 1033.515625 C 423.257812 1033.515625 422.679688 1033.261719 422.277344 1032.773438 C 418.492188 1028.085938 414.714844 1023.222656 411.058594 1018.3125 C 410.394531 1017.417969 410.578125 1016.164062 411.46875 1015.5 C 412.359375 1014.835938 413.621094 1015.019531 414.285156 1015.90625 C 417.910156 1020.78125 421.652344 1025.601562 425.40625 1030.238281 C 426.105469 1031.101562 425.972656 1032.371094 425.109375 1033.070312 C 424.738281 1033.371094 424.289062 1033.515625 423.84375 1033.515625 " fill-opacity="1" fill-rule="nonzero"/><path fill="#ffffff" d="M 532.730469 514.269531 L 481.976562 541.671875 C 481.976562 541.671875 450.863281 622.8125 406.328125 627.699219 C 361.789062 632.585938 317.734375 570.988281 317.734375 570.988281 L 288.171875 634.234375 C 288.171875 634.234375 331.582031 701.359375 400.425781 690.539062 C 469.269531 679.726562 488.03125 576.308594 488.03125 576.308594 C 487.996094 576.378906 504.320312 577.925781 510.472656 562.023438 C 515.710938 548.492188 513.523438 540.523438 513.523438 540.523438 C 513.523438 540.523438 537.980469 527.464844 532.730469 514.269531 " fill-opacity="1" fill-rule="nonzero"/><path fill="#000000" d="M 290.476562 634.050781 C 295.988281 641.957031 337.722656 698.359375 400.113281 688.554688 C 466.738281 678.082031 485.859375 576.96875 486.050781 575.949219 C 486.203125 575.109375 486.863281 574.457031 487.703125 574.324219 C 487.933594 574.289062 488.171875 574.289062 488.394531 574.332031 C 489.257812 574.410156 503.160156 575.355469 508.597656 561.296875 C 513.488281 548.667969 511.601562 541.117188 511.578125 541.046875 C 511.339844 540.144531 511.753906 539.191406 512.574219 538.753906 C 518.433594 535.617188 532.195312 526.128906 531.40625 517.273438 L 483.582031 543.085938 C 480.214844 551.625 450.074219 624.921875 406.546875 629.699219 C 404.757812 629.894531 402.960938 629.992188 401.179688 629.992188 C 362.886719 629.996094 327.015625 586.488281 318.132812 574.886719 Z M 385.613281 693.71875 C 356.339844 693.71875 332.71875 680.300781 317.234375 668.023438 C 297.742188 652.566406 286.933594 636.027344 286.484375 635.328125 C 286.105469 634.746094 286.058594 634.011719 286.347656 633.382812 L 315.914062 570.132812 C 316.214844 569.484375 316.839844 569.046875 317.550781 568.980469 C 318.257812 568.921875 318.957031 569.230469 319.371094 569.816406 C 319.804688 570.421875 363.253906 630.394531 406.109375 625.699219 C 448.929688 621 479.792969 541.75 480.097656 540.949219 C 480.273438 540.5 480.597656 540.128906 481.023438 539.894531 L 531.777344 512.5 C 532.28125 512.226562 532.882812 512.183594 533.421875 512.378906 C 533.960938 512.574219 534.390625 512.996094 534.601562 513.527344 C 539.757812 526.488281 520.992188 538.523438 515.761719 541.574219 C 516.171875 544.65625 516.476562 552.082031 512.351562 562.75 C 507.804688 574.496094 498.113281 577.449219 492.742188 578.160156 C 491.464844 578.332031 490.457031 578.410156 489.652344 578.421875 C 488.332031 584.734375 483.144531 607.148438 471.851562 630.253906 C 454.152344 666.460938 429.5625 687.996094 400.738281 692.523438 C 395.546875 693.347656 390.5 693.71875 385.613281 693.71875 " fill-opacity="1" fill-rule="nonzero"/><path fill="#000000" d="M 486.578125 569.679688 C 485.71875 569.679688 484.925781 569.128906 484.65625 568.265625 C 484.328125 567.203125 484.925781 566.074219 485.988281 565.75 C 486.066406 565.722656 494.253906 563.089844 495.15625 556.5625 C 495.824219 551.738281 498.609375 548.097656 500.816406 545.890625 C 502.503906 544.21875 503.523438 542.050781 503.753906 539.703125 L 489.441406 545.410156 C 488.414062 545.824219 487.238281 545.320312 486.824219 544.285156 C 486.421875 543.25 486.917969 542.085938 487.953125 541.671875 L 505.066406 534.847656 C 505.6875 534.597656 506.386719 534.675781 506.945312 535.050781 C 507.492188 535.421875 507.828125 536.050781 507.828125 536.710938 L 507.828125 538.679688 C 507.828125 542.492188 506.34375 546.066406 503.65625 548.742188 C 501.882812 550.507812 499.660156 553.398438 499.140625 557.117188 C 497.890625 566.195312 487.613281 569.460938 487.171875 569.59375 C 486.972656 569.65625 486.777344 569.679688 486.578125 569.679688 " fill-opacity="1" fill-rule="nonzero"/><path fill="#ff6600" d="M 159.28125 542.984375 C 181.605469 537.742188 190.917969 537.667969 272.058594 540.609375 C 291.894531 541.324219 315.484375 566.214844 317.816406 585.921875 C 311.511719 604.824219 282.421875 698.160156 333.207031 771.082031 C 340.414062 781.425781 350.210938 792.773438 363.660156 803.65625 C 356.101562 809.765625 321.257812 806.289062 305.488281 810.96875 C 279.308594 818.742188 283.675781 813.019531 262.578125 813.648438 C 206.769531 815.3125 191.878906 886.21875 155.835938 878.414062 C 146.210938 876.328125 133.453125 868.820312 121.492188 843.640625 C 114.714844 822.757812 108.683594 798.238281 105.324219 770.527344 C 96.21875 695.414062 111.117188 632.867188 124.425781 593.613281 C 128.378906 581.21875 132.96875 549.171875 159.28125 542.984375 " fill-opacity="1" fill-rule="nonzero"/><path fill="#ff6600" d="M 357.605469 599.332031 C 357.605469 599.332031 314.980469 545.640625 277.402344 541.355469 L 295.921875 683.515625 L 357.605469 599.332031 " fill-opacity="1" fill-rule="nonzero"/><path fill="#ff6600" d="M 84.34375 677.382812 C 84.34375 677.382812 88.238281 640.195312 90.714844 615.570312 C 96.214844 560.929688 158.277344 542.875 158.277344 542.875 L 181.726562 676.175781 L 84.34375 677.382812 " fill-opacity="1" fill-rule="nonzero"/><path fill="#ffffff" d="M 101.660156 674.191406 C 101.660156 674.191406 125.558594 776.84375 145.269531 810.242188 C 168.804688 850.128906 287.542969 796.410156 287.542969 796.410156 L 301.355469 788.59375 C 310.695312 783.304688 321.828125 782.167969 332.042969 785.46875 L 354.351562 792.667969 C 354.351562 792.667969 335.929688 770.578125 320.261719 762.128906 C 312.914062 758.171875 303.394531 761.914062 295.347656 767.007812 C 281.511719 775.773438 265.230469 779.882812 248.859375 779.394531 L 201.621094 777.992188 C 193.691406 777.753906 187.195312 771.621094 186.503906 763.714844 L 171.390625 667.488281 L 101.660156 674.191406 " fill-opacity="1" fill-rule="nonzero"/><path fill="#000000" d="M 104.148438 675.972656 C 107.78125 691.15625 129.277344 779.1875 147 809.222656 C 169.117188 846.703125 282.988281 796.246094 286.636719 794.617188 L 300.363281 786.839844 C 310.167969 781.292969 321.941406 780.097656 332.660156 783.554688 L 347.972656 788.496094 C 341.519531 781.46875 329.699219 769.5 319.308594 763.902344 C 312.480469 760.21875 303.09375 764.488281 296.425781 768.710938 C 282.496094 777.53125 266.027344 781.917969 248.796875 781.410156 L 201.5625 780.003906 C 192.636719 779.738281 185.316406 772.851562 184.503906 763.964844 L 169.699219 669.667969 Z M 181.261719 826.996094 C 164.429688 826.996094 150.351562 822.816406 143.535156 811.265625 C 123.898438 777.988281 100.679688 678.847656 99.703125 674.648438 C 99.570312 674.082031 99.6875 673.488281 100.027344 673.011719 C 100.367188 672.542969 100.894531 672.242188 101.46875 672.1875 L 171.199219 665.480469 C 172.265625 665.386719 173.214844 666.121094 173.378906 667.171875 L 188.492188 763.40625 C 188.5 763.453125 188.503906 763.496094 188.507812 763.542969 C 189.109375 770.429688 194.773438 775.78125 201.683594 775.980469 L 248.917969 777.382812 C 265.359375 777.871094 281.027344 773.703125 294.273438 765.3125 C 305.292969 758.328125 314.359375 756.664062 321.214844 760.359375 C 337.042969 768.894531 355.132812 790.464844 355.894531 791.375 C 356.46875 792.0625 356.519531 793.046875 356.019531 793.792969 C 355.515625 794.53125 354.582031 794.855469 353.734375 794.578125 L 331.425781 787.382812 C 321.773438 784.265625 311.171875 785.347656 302.347656 790.34375 L 288.535156 798.160156 C 288.484375 798.191406 288.429688 798.222656 288.375 798.246094 C 284.84375 799.84375 224.144531 826.996094 181.261719 826.996094 " fill-opacity="1" fill-rule="nonzero"/><path fill="#000000" d="M 202.933594 494.03125 C 197.109375 496.964844 192.722656 497.386719 189.5625 497.203125 C 178.128906 496.546875 170.804688 487.335938 169.332031 485.488281 C 161.757812 475.972656 158.109375 460.332031 164.527344 451.148438 C 169.152344 444.53125 174.976562 447.027344 180.296875 439.632812 C 186.34375 431.242188 180.144531 424.390625 185.722656 417.046875 C 192.140625 408.585938 206.289062 409.230469 208.832031 409.347656 C 217.5625 409.75 218.601562 414.074219 226.855469 413.851562 C 235.277344 413.625 236.394531 409.390625 244.125 409.347656 C 250.269531 409.308594 259.222656 411.929688 263.234375 419.03125 C 268.269531 427.945312 263.117188 439.6875 257.140625 445.886719 C 249.96875 453.335938 244.914062 449.339844 234.867188 455.402344 C 217.449219 465.902344 221.609375 484.621094 202.933594 494.03125 " fill-opacity="1" fill-rule="nonzero"/><path fill="#ffffff" d="M 235.367188 533.671875 L 230.652344 504.332031 C 231.6875 504.214844 240.375 502.703125 241.367188 502.210938 C 249.410156 498.203125 247.171875 478.023438 247.171875 478.023438 L 251.644531 472.683594 L 238.308594 442.84375 C 224.148438 454.640625 219.09375 443.054688 205.078125 448.859375 C 191.066406 454.667969 198.667969 470.273438 198.667969 470.273438 C 198.667969 470.273438 187.214844 465.230469 189.664062 476.304688 C 191.511719 484.667969 197.609375 485.199219 201.621094 484.859375 L 194.148438 535.160156 C 194.148438 535.160156 170.101562 541.996094 165.453125 543.222656 C 171.507812 542.933594 213.347656 561.136719 260.804688 541.246094 L 235.367188 533.671875 " fill-opacity="1" fill-rule="nonzero"/><path fill="#000000" d="M 173.96875 542.953125 C 188.332031 546.578125 219.695312 554.136719 254.617188 541.5 L 234.792969 535.597656 C 234.050781 535.375 233.503906 534.753906 233.382812 533.988281 L 228.664062 504.652344 C 228.578125 504.113281 228.714844 503.554688 229.046875 503.117188 C 229.382812 502.679688 229.878906 502.398438 230.425781 502.339844 C 231.542969 502.210938 239.449219 500.800781 240.535156 500.382812 C 246.007812 497.652344 245.714844 483.117188 245.175781 478.242188 C 245.113281 477.699219 245.28125 477.148438 245.632812 476.730469 L 249.292969 472.355469 L 237.519531 446.003906 C 229.886719 451.53125 224.527344 450.636719 219.332031 449.769531 C 215.230469 449.078125 211.359375 448.4375 205.851562 450.722656 C 202.578125 452.074219 200.394531 454.144531 199.355469 456.859375 C 197.207031 462.5 200.445312 469.328125 200.476562 469.394531 C 200.84375 470.152344 200.699219 471.058594 200.113281 471.667969 C 199.527344 472.273438 198.628906 472.453125 197.859375 472.117188 C 196.121094 471.359375 193.03125 470.65625 191.933594 471.558594 C 191.257812 472.117188 191.144531 473.691406 191.625 475.875 C 192.800781 481.171875 195.835938 483.324219 201.453125 482.851562 C 202.0625 482.800781 202.667969 483.035156 203.085938 483.484375 C 203.507812 483.929688 203.699219 484.546875 203.609375 485.15625 L 196.140625 535.453125 C 196.023438 536.238281 195.460938 536.875 194.703125 537.09375 C 194.011719 537.289062 182.421875 540.585938 173.96875 542.953125 Z M 213.816406 552.558594 C 195.535156 552.558594 180.695312 548.800781 172.230469 546.664062 C 169.242188 545.902344 166.410156 545.191406 165.550781 545.234375 C 164.519531 545.28125 163.625 544.546875 163.464844 543.53125 C 163.308594 542.511719 163.945312 541.542969 164.9375 541.277344 C 168.910156 540.226562 187.355469 534.996094 192.351562 533.582031 L 199.28125 486.925781 C 191.570312 486.597656 188.714844 481.335938 187.699219 476.734375 C 186.839844 472.859375 187.40625 470.070312 189.386719 468.445312 C 191.101562 467.042969 193.453125 466.964844 195.460938 467.273438 C 194.617188 464.171875 193.988281 459.671875 195.589844 455.449219 C 197.03125 451.644531 199.964844 448.804688 204.308594 447 C 210.886719 444.277344 215.726562 445.085938 219.992188 445.796875 C 225.402344 446.703125 229.679688 447.417969 237.023438 441.300781 C 237.507812 440.890625 238.148438 440.742188 238.761719 440.878906 C 239.378906 441.027344 239.886719 441.445312 240.148438 442.023438 L 253.480469 471.863281 C 253.792969 472.566406 253.679688 473.382812 253.1875 473.972656 L 249.257812 478.664062 C 249.652344 483.082031 250.566406 499.875 242.261719 504.011719 C 241.171875 504.554688 235.9375 505.5 232.953125 505.996094 L 237.152344 532.105469 L 261.378906 539.320312 C 262.195312 539.5625 262.769531 540.292969 262.816406 541.144531 C 262.859375 541.988281 262.367188 542.777344 261.582031 543.105469 C 244.5 550.261719 228.105469 552.558594 213.816406 552.558594 " fill-opacity="1" fill-rule="nonzero"/><path fill="#000000" d="M 227.378906 506.574219 C 214.960938 506.574219 209.273438 497.148438 209.015625 496.714844 C 208.453125 495.757812 208.773438 494.523438 209.730469 493.960938 C 210.691406 493.398438 211.917969 493.71875 212.480469 494.667969 C 212.714844 495.054688 218.21875 504 230.378906 502.347656 C 231.476562 502.195312 232.492188 502.964844 232.644531 504.066406 C 232.792969 505.164062 232.023438 506.179688 230.921875 506.324219 C 229.683594 506.496094 228.503906 506.574219 227.378906 506.574219 " fill-opacity="1" fill-rule="nonzero"/><path fill="#0047ba" d="M 505.796875 822.265625 L 243.308594 822.265625 C 237.410156 822.265625 232.632812 817.488281 232.632812 811.59375 L 232.632812 807.027344 L 516.46875 807.027344 L 516.46875 811.59375 C 516.46875 817.488281 511.691406 822.265625 505.796875 822.265625 " fill-opacity="1" fill-rule="nonzero"/><path fill="#000000" d="M 234.644531 809.042969 L 234.644531 811.59375 C 234.644531 816.371094 238.53125 820.257812 243.308594 820.257812 L 505.796875 820.257812 C 510.574219 820.257812 514.457031 816.371094 514.457031 811.59375 L 514.457031 809.042969 Z M 505.796875 824.277344 L 243.308594 824.277344 C 236.3125 824.277344 230.621094 818.589844 230.621094 811.59375 L 230.621094 807.027344 C 230.621094 805.917969 231.523438 805.015625 232.632812 805.015625 L 516.46875 805.015625 C 517.582031 805.015625 518.484375 805.917969 518.484375 807.027344 L 518.484375 811.59375 C 518.484375 818.589844 512.792969 824.277344 505.796875 824.277344 " fill-opacity="1" fill-rule="nonzero"/><path fill="#0047ba" d="M 516.476562 807.300781 L 354.0625 807.300781 L 405.664062 655.410156 C 408.753906 650.65625 414.132812 647.777344 419.917969 647.777344 L 557.210938 647.777344 C 563.441406 647.777344 567.449219 653.816406 565.417969 659.15625 C 564.613281 661.277344 563.738281 663.371094 563.027344 665.53125 L 516.476562 807.300781 " fill-opacity="1" fill-rule="nonzero"/><path fill="#000000" d="M 356.871094 805.289062 L 515.019531 805.289062 L 561.117188 664.902344 C 561.640625 663.304688 562.253906 661.738281 562.84375 660.222656 C 563.082031 659.628906 563.3125 659.03125 563.535156 658.4375 C 564.257812 656.546875 563.980469 654.382812 562.792969 652.660156 C 561.535156 650.832031 559.5 649.789062 557.210938 649.789062 L 419.917969 649.789062 C 414.867188 649.789062 410.238281 652.214844 407.488281 656.296875 Z M 516.476562 809.316406 L 354.0625 809.316406 C 353.414062 809.316406 352.804688 809.003906 352.425781 808.472656 C 352.050781 807.949219 351.949219 807.273438 352.160156 806.65625 L 403.761719 654.761719 C 403.8125 654.601562 403.886719 654.449219 403.980469 654.308594 C 407.457031 648.960938 413.414062 645.765625 419.917969 645.765625 L 557.210938 645.765625 C 560.84375 645.765625 564.082031 647.449219 566.105469 650.378906 C 568.046875 653.191406 568.488281 656.742188 567.296875 659.871094 C 567.066406 660.480469 566.832031 661.082031 566.59375 661.6875 C 566.023438 663.152344 565.433594 664.667969 564.941406 666.15625 L 518.386719 807.929688 C 518.117188 808.753906 517.347656 809.316406 516.476562 809.316406 " fill-opacity="1" fill-rule="nonzero"/><path fill="#ffffff" d="M 456.203125 725.488281 C 454.269531 731.914062 457.226562 738.484375 462.8125 740.167969 C 468.394531 741.851562 474.488281 738.007812 476.425781 731.589844 C 478.359375 725.164062 475.402344 718.59375 469.820312 716.910156 C 464.234375 715.230469 458.140625 719.066406 456.203125 725.488281 " fill-opacity="1" fill-rule="nonzero"/><path fill="#99b9ff" d="M 199.007812 327.523438 C 181.484375 330.8125 164.617188 319.269531 161.328125 301.753906 C 158.042969 284.226562 169.578125 267.359375 187.101562 264.070312 C 204.621094 260.785156 221.492188 272.320312 224.78125 289.847656 C 228.066406 307.367188 216.527344 324.230469 199.007812 327.523438 Z M 257.964844 289.996094 L 255.652344 277.671875 L 241.964844 277.175781 C 240.921875 274.417969 239.664062 271.78125 238.203125 269.292969 L 246.367188 258.320312 L 238.203125 248.800781 L 226.097656 255.210938 C 223.839844 253.371094 221.429688 251.730469 218.894531 250.289062 L 220.488281 236.6875 L 208.65625 232.519531 L 201.390625 244.113281 C 198.539062 243.648438 195.628906 243.4375 192.679688 243.457031 L 187.253906 230.886719 L 174.929688 233.195312 L 174.429688 246.882812 C 171.671875 247.929688 169.035156 249.1875 166.546875 250.648438 L 155.574219 242.484375 L 146.058594 250.640625 L 152.472656 262.753906 C 150.632812 265.015625 148.984375 267.425781 147.542969 269.953125 L 133.9375 268.363281 L 129.777344 280.195312 L 141.367188 287.457031 C 140.90625 290.308594 140.691406 293.222656 140.71875 296.171875 L 128.144531 301.597656 L 130.457031 313.917969 L 144.140625 314.417969 C 145.1875 317.175781 146.445312 319.8125 147.90625 322.304688 L 139.738281 333.273438 L 147.902344 342.789062 L 160.007812 336.378906 C 162.269531 338.21875 164.675781 339.867188 167.210938 341.300781 L 165.621094 354.914062 L 177.453125 359.070312 L 184.71875 347.480469 C 187.566406 347.941406 190.480469 348.15625 193.429688 348.132812 L 198.855469 360.707031 L 211.179688 358.394531 L 211.675781 344.707031 C 214.433594 343.664062 217.070312 342.402344 219.5625 340.941406 L 230.53125 349.113281 L 240.050781 340.949219 L 233.636719 328.84375 C 235.472656 326.582031 237.121094 324.171875 238.5625 321.636719 L 252.167969 323.230469 L 256.328125 311.394531 L 244.738281 304.132812 C 245.199219 301.28125 245.414062 298.367188 245.390625 295.417969 L 257.964844 289.996094 " fill-opacity="1" fill-rule="nonzero"/><path fill="#000000" d="M 188.023438 262.042969 C 186.148438 262.042969 184.261719 262.21875 182.378906 262.574219 C 174.429688 264.058594 167.539062 268.558594 162.976562 275.230469 C 158.410156 281.90625 156.722656 289.953125 158.210938 297.902344 C 161.289062 314.300781 177.136719 325.148438 193.542969 322.074219 C 201.488281 320.578125 208.378906 316.078125 212.945312 309.410156 C 217.507812 302.738281 219.199219 294.683594 217.707031 286.742188 C 216.21875 278.792969 211.71875 271.898438 205.046875 267.335938 C 199.957031 263.851562 194.0625 262.042969 188.023438 262.042969 Z M 193.914062 324.042969 L 193.925781 324.042969 Z M 187.945312 326.613281 C 171.777344 326.613281 157.34375 315.101562 154.257812 298.648438 C 152.566406 289.640625 154.484375 280.519531 159.65625 272.957031 C 164.828125 265.402344 172.632812 260.300781 181.636719 258.617188 C 190.640625 256.925781 199.761719 258.84375 207.320312 264.015625 C 214.882812 269.1875 219.972656 276.992188 221.664062 286 C 223.351562 294.996094 221.433594 304.117188 216.261719 311.679688 C 211.089844 319.234375 203.285156 324.335938 194.285156 326.019531 C 192.160156 326.417969 190.035156 326.613281 187.945312 326.613281 Z M 188.335938 342.644531 C 189.136719 342.644531 189.863281 343.117188 190.183594 343.863281 L 194.96875 354.960938 L 204.132812 353.238281 L 204.574219 341.164062 C 204.601562 340.347656 205.113281 339.640625 205.871094 339.355469 C 208.523438 338.347656 211.074219 337.125 213.445312 335.734375 C 214.140625 335.320312 215.019531 335.367188 215.667969 335.855469 L 225.347656 343.0625 L 232.425781 336.992188 L 226.765625 326.304688 C 226.386719 325.589844 226.472656 324.71875 226.980469 324.09375 C 228.746094 321.925781 230.339844 319.601562 231.71875 317.171875 C 232.117188 316.464844 232.90625 316.074219 233.703125 316.164062 L 245.710938 317.566406 L 248.804688 308.773438 L 238.578125 302.359375 C 237.890625 301.929688 237.53125 301.128906 237.65625 300.339844 C 238.097656 297.617188 238.308594 294.804688 238.285156 291.960938 C 238.277344 291.152344 238.757812 290.417969 239.5 290.097656 L 250.597656 285.3125 L 248.878906 276.148438 L 236.796875 275.707031 C 235.992188 275.675781 235.277344 275.164062 234.992188 274.40625 C 233.984375 271.757812 232.765625 269.207031 231.375 266.832031 C 230.960938 266.136719 231.011719 265.257812 231.492188 264.613281 L 238.699219 254.933594 L 232.628906 247.855469 L 221.945312 253.515625 C 221.230469 253.894531 220.359375 253.808594 219.738281 253.296875 C 217.570312 251.53125 215.238281 249.9375 212.808594 248.5625 C 212.109375 248.160156 211.710938 247.382812 211.804688 246.574219 L 213.207031 234.570312 L 204.414062 231.480469 L 198 241.703125 C 197.570312 242.390625 196.773438 242.746094 195.976562 242.617188 C 193.253906 242.183594 190.4375 241.96875 187.601562 241.996094 C 186.757812 242.019531 186.058594 241.527344 185.738281 240.785156 L 180.949219 229.6875 L 171.789062 231.398438 L 171.347656 243.484375 C 171.320312 244.289062 170.808594 245.003906 170.050781 245.289062 C 167.402344 246.296875 164.851562 247.511719 162.472656 248.902344 C 161.777344 249.316406 160.902344 249.265625 160.253906 248.789062 L 150.570312 241.578125 L 143.496094 247.648438 L 149.15625 258.332031 C 149.535156 259.046875 149.449219 259.917969 148.9375 260.546875 C 147.171875 262.714844 145.582031 265.046875 144.199219 267.472656 C 143.800781 268.171875 143.011719 268.566406 142.21875 268.472656 L 130.207031 267.074219 L 127.117188 275.863281 L 137.34375 282.277344 C 138.03125 282.707031 138.390625 283.503906 138.261719 284.304688 C 137.824219 287.019531 137.613281 289.832031 137.636719 292.675781 C 137.640625 293.488281 137.164062 294.21875 136.421875 294.539062 L 125.324219 299.332031 L 127.042969 308.496094 L 139.121094 308.929688 C 139.929688 308.957031 140.640625 309.472656 140.929688 310.230469 C 141.9375 312.878906 143.152344 315.429688 144.546875 317.808594 C 144.957031 318.507812 144.910156 319.378906 144.425781 320.027344 L 137.21875 329.707031 L 143.289062 336.785156 L 153.972656 331.128906 C 154.6875 330.75 155.558594 330.832031 156.183594 331.34375 C 158.351562 333.105469 160.679688 334.695312 163.109375 336.078125 C 163.8125 336.476562 164.207031 337.261719 164.113281 338.0625 L 162.710938 350.066406 L 171.507812 353.160156 L 177.917969 342.933594 C 178.347656 342.253906 179.148438 341.890625 179.945312 342.019531 C 182.660156 342.453125 185.496094 342.667969 188.316406 342.644531 C 188.324219 342.644531 188.328125 342.644531 188.335938 342.644531 Z M 193.761719 359.246094 C 192.96875 359.246094 192.238281 358.773438 191.914062 358.03125 L 187.011719 346.660156 C 184.855469 346.625 182.71875 346.464844 180.628906 346.1875 L 174.0625 356.667969 C 173.5625 357.460938 172.578125 357.808594 171.6875 357.496094 L 159.863281 353.332031 C 158.972656 353.015625 158.421875 352.140625 158.53125 351.203125 L 159.964844 338.902344 C 158.144531 337.804688 156.378906 336.597656 154.695312 335.296875 L 143.753906 341.089844 C 142.921875 341.53125 141.898438 341.339844 141.28125 340.625 L 133.121094 331.105469 C 132.507812 330.390625 132.46875 329.351562 133.03125 328.597656 L 140.414062 318.679688 C 139.394531 316.828125 138.472656 314.902344 137.660156 312.898438 L 125.289062 312.453125 C 124.347656 312.421875 123.558594 311.738281 123.386719 310.816406 L 121.074219 298.488281 C 120.898438 297.570312 121.386719 296.648438 122.253906 296.273438 L 133.617188 291.371094 C 133.652344 289.210938 133.8125 287.078125 134.09375 284.992188 L 123.617188 278.417969 C 122.820312 277.921875 122.476562 276.9375 122.785156 276.050781 L 126.945312 264.222656 C 127.261719 263.332031 128.144531 262.78125 129.078125 262.886719 L 141.378906 264.324219 C 142.476562 262.503906 143.683594 260.738281 144.984375 259.050781 L 139.1875 248.109375 C 138.746094 247.28125 138.941406 246.253906 139.652344 245.640625 L 149.171875 237.476562 C 149.886719 236.863281 150.925781 236.835938 151.683594 237.390625 L 161.601562 244.773438 C 163.449219 243.753906 165.382812 242.824219 167.375 242.019531 L 167.824219 229.648438 C 167.859375 228.707031 168.539062 227.914062 169.464844 227.742188 L 181.789062 225.429688 C 182.71875 225.257812 183.632812 225.75 184.007812 226.613281 L 188.910156 237.976562 C 191.0625 238.011719 193.199219 238.167969 195.292969 238.453125 L 201.859375 227.980469 C 202.359375 227.179688 203.34375 226.835938 204.230469 227.148438 L 216.058594 231.308594 C 216.945312 231.621094 217.5 232.507812 217.390625 233.433594 L 215.953125 245.738281 C 217.777344 246.832031 219.542969 248.046875 221.226562 249.34375 L 232.167969 243.546875 C 233 243.105469 234.023438 243.296875 234.636719 244.011719 L 242.800781 253.53125 C 243.414062 254.246094 243.449219 255.289062 242.890625 256.039062 L 235.503906 265.960938 C 236.527344 267.808594 237.449219 269.742188 238.261719 271.734375 L 250.632812 272.1875 C 251.570312 272.222656 252.359375 272.898438 252.535156 273.820312 L 254.847656 286.148438 C 255.023438 287.070312 254.53125 287.992188 253.667969 288.367188 L 242.300781 293.269531 C 242.269531 295.425781 242.109375 297.5625 241.828125 299.652344 L 252.304688 306.214844 C 253.097656 306.71875 253.441406 307.703125 253.132812 308.589844 L 248.972656 320.421875 C 248.660156 321.308594 247.769531 321.855469 246.84375 321.75 L 234.539062 320.316406 C 233.445312 322.136719 232.238281 323.902344 230.933594 325.585938 L 236.730469 336.527344 C 237.171875 337.359375 236.980469 338.382812 236.265625 338.996094 L 226.746094 347.160156 C 226.035156 347.773438 224.992188 347.808594 224.238281 347.246094 L 214.316406 339.867188 C 212.472656 340.890625 210.539062 341.808594 208.546875 342.617188 L 208.09375 354.996094 C 208.0625 355.929688 207.378906 356.722656 206.457031 356.894531 L 194.132812 359.210938 C 194.007812 359.230469 193.882812 359.246094 193.761719 359.246094 " fill-opacity="1" fill-rule="nonzero"/><path fill="#99b9ff" d="M 370.773438 248.21875 C 340.789062 253.847656 311.921875 234.097656 306.296875 204.117188 C 300.671875 174.132812 320.417969 145.269531 350.398438 139.644531 C 380.382812 134.015625 409.25 153.757812 414.875 183.746094 C 420.5 213.730469 400.753906 242.59375 370.773438 248.21875 Z M 471.660156 184 L 467.703125 162.910156 L 444.285156 162.0625 C 442.496094 157.339844 440.34375 152.828125 437.84375 148.574219 L 451.820312 129.792969 L 437.847656 113.511719 L 417.132812 124.484375 C 413.265625 121.335938 409.144531 118.523438 404.808594 116.054688 L 407.53125 92.769531 L 387.289062 85.648438 L 374.855469 105.492188 C 369.976562 104.703125 364.992188 104.328125 359.945312 104.375 L 350.660156 82.851562 L 329.570312 86.8125 L 328.71875 110.234375 C 324 112.023438 319.492188 114.171875 315.230469 116.671875 L 296.453125 102.699219 L 280.167969 116.671875 L 291.144531 137.382812 C 287.996094 141.253906 285.175781 145.375 282.710938 149.710938 L 259.429688 146.984375 L 252.3125 167.230469 L 272.144531 179.664062 C 271.359375 184.539062 270.988281 189.523438 271.03125 194.570312 L 249.511719 203.855469 L 253.46875 224.941406 L 276.890625 225.792969 C 278.679688 230.515625 280.832031 235.027344 283.332031 239.28125 L 269.355469 258.0625 L 283.328125 274.351562 L 304.039062 263.375 C 307.910156 266.519531 312.03125 269.339844 316.363281 271.800781 L 313.644531 295.085938 L 333.890625 302.203125 L 346.320312 282.375 C 351.199219 283.160156 356.179688 283.527344 361.226562 283.488281 L 370.511719 305 L 391.601562 301.050781 L 392.453125 277.628906 C 397.171875 275.832031 401.683594 273.683594 405.945312 271.183594 L 424.722656 285.164062 L 441.003906 271.191406 L 430.03125 250.472656 C 433.175781 246.609375 435.996094 242.488281 438.460938 238.152344 L 461.742188 240.871094 L 468.863281 220.628906 L 449.03125 208.199219 C 449.816406 203.316406 450.1875 198.332031 450.144531 193.289062 L 471.660156 184 " fill-opacity="1" fill-rule="nonzero"/><path fill="#000000" d="M 361.691406 240.277344 L 362.058594 242.253906 L 361.691406 240.277344 C 390.535156 234.863281 409.601562 206.992188 404.1875 178.152344 C 398.773438 149.300781 370.90625 130.234375 342.0625 135.65625 C 313.214844 141.066406 294.152344 168.933594 299.5625 197.78125 C 302.1875 211.75 310.09375 223.875 321.828125 231.898438 C 333.5625 239.921875 347.71875 242.898438 361.691406 240.277344 Z M 351.753906 245.230469 C 340.335938 245.230469 329.1875 241.800781 319.554688 235.21875 C 306.933594 226.582031 298.429688 213.550781 295.609375 198.523438 C 289.789062 167.496094 310.292969 137.519531 341.316406 131.695312 C 372.339844 125.882812 402.320312 146.382812 408.140625 177.410156 C 413.964844 208.433594 393.460938 238.40625 362.433594 244.230469 C 358.871094 244.898438 355.300781 245.230469 351.753906 245.230469 Z M 352.519531 275.511719 C 353.316406 275.511719 354.042969 275.992188 354.363281 276.722656 L 363.011719 296.765625 L 380.9375 293.402344 L 381.730469 271.59375 C 381.761719 270.777344 382.273438 270.070312 383.027344 269.78125 C 387.644531 268.03125 392.082031 265.917969 396.214844 263.488281 C 396.910156 263.078125 397.785156 263.125 398.433594 263.609375 L 415.921875 276.621094 L 429.761719 264.75 L 419.542969 245.453125 C 419.164062 244.738281 419.25 243.867188 419.761719 243.246094 C 422.824219 239.472656 425.597656 235.421875 428 231.195312 C 428.398438 230.492188 429.1875 230.097656 429.984375 230.1875 L 451.667969 232.71875 L 457.71875 215.519531 L 439.25 203.9375 C 438.566406 203.507812 438.203125 202.710938 438.332031 201.910156 C 439.097656 197.175781 439.460938 192.28125 439.421875 187.335938 C 439.414062 186.53125 439.894531 185.796875 440.636719 185.476562 L 460.675781 176.828125 L 457.316406 158.898438 L 435.5 158.109375 C 434.691406 158.078125 433.980469 157.570312 433.691406 156.808594 C 431.941406 152.195312 429.824219 147.761719 427.398438 143.625 C 426.988281 142.929688 427.035156 142.050781 427.515625 141.40625 L 440.53125 123.921875 L 428.65625 110.078125 L 409.363281 120.300781 C 408.648438 120.679688 407.777344 120.589844 407.152344 120.082031 C 403.382812 117.019531 399.328125 114.242188 395.105469 111.839844 C 394.402344 111.441406 394.003906 110.660156 394.101562 109.855469 L 396.632812 88.175781 L 379.425781 82.121094 L 367.847656 100.585938 C 367.417969 101.273438 366.617188 101.636719 365.820312 101.507812 C 361.085938 100.742188 356.160156 100.378906 351.25 100.417969 C 351.246094 100.417969 351.238281 100.417969 351.234375 100.417969 C 350.433594 100.417969 349.703125 99.945312 349.386719 99.210938 L 340.742188 79.167969 L 322.8125 82.53125 L 322.015625 104.339844 C 321.988281 105.144531 321.476562 105.863281 320.722656 106.144531 C 316.109375 107.894531 311.675781 110.015625 307.539062 112.445312 C 306.839844 112.855469 305.964844 112.808594 305.316406 112.324219 L 287.832031 99.304688 L 273.988281 111.1875 L 284.210938 130.476562 C 284.585938 131.1875 284.503906 132.058594 283.992188 132.6875 C 280.921875 136.460938 278.152344 140.519531 275.75 144.734375 C 275.351562 145.4375 274.570312 145.832031 273.769531 145.738281 L 252.082031 143.203125 L 246.03125 160.417969 L 264.5 172 C 265.1875 172.425781 265.546875 173.222656 265.417969 174.019531 C 264.65625 178.75 264.289062 183.652344 264.328125 188.589844 C 264.335938 189.402344 263.859375 190.136719 263.117188 190.449219 L 243.074219 199.105469 L 246.4375 217.027344 L 268.25 217.824219 C 269.058594 217.847656 269.769531 218.363281 270.058594 219.121094 C 271.808594 223.734375 273.929688 228.171875 276.355469 232.300781 C 276.765625 233.003906 276.714844 233.875 276.234375 234.527344 L 263.21875 252.011719 L 275.09375 265.851562 L 294.390625 255.632812 C 295.101562 255.253906 295.972656 255.34375 296.597656 255.851562 C 300.367188 258.917969 304.421875 261.691406 308.648438 264.09375 C 309.351562 264.488281 309.742188 265.269531 309.652344 266.070312 L 307.117188 287.757812 L 324.328125 293.804688 L 335.90625 275.335938 C 336.335938 274.652344 337.132812 274.296875 337.929688 274.425781 C 342.660156 275.183594 347.5625 275.554688 352.5 275.511719 C 352.507812 275.511719 352.511719 275.511719 352.519531 275.511719 Z M 361.800781 301.050781 C 361.011719 301.050781 360.277344 300.589844 359.953125 299.839844 L 351.195312 279.539062 C 346.941406 279.507812 342.722656 279.191406 338.609375 278.59375 L 326.878906 297.304688 C 326.382812 298.105469 325.398438 298.453125 324.511719 298.136719 L 304.265625 291.015625 C 303.378906 290.710938 302.828125 289.820312 302.9375 288.886719 L 305.503906 266.914062 C 301.882812 264.796875 298.398438 262.410156 295.101562 259.800781 L 275.558594 270.160156 C 274.726562 270.601562 273.699219 270.410156 273.089844 269.691406 L 259.117188 253.410156 C 258.503906 252.699219 258.46875 251.648438 259.03125 250.898438 L 272.21875 233.179688 C 270.171875 229.566406 268.347656 225.75 266.78125 221.792969 L 244.683594 220.992188 C 243.742188 220.953125 242.957031 220.277344 242.78125 219.347656 L 238.824219 198.265625 C 238.652344 197.335938 239.140625 196.417969 240.003906 196.046875 L 260.304688 187.28125 C 260.332031 183.03125 260.648438 178.8125 261.246094 174.699219 L 242.53125 162.972656 C 241.734375 162.472656 241.390625 161.488281 241.703125 160.601562 L 248.824219 140.359375 C 249.132812 139.46875 250.019531 138.914062 250.953125 139.027344 L 272.921875 141.59375 C 275.046875 137.980469 277.433594 134.484375 280.035156 131.195312 L 269.679688 111.644531 C 269.238281 110.816406 269.433594 109.789062 270.148438 109.175781 L 286.433594 95.210938 C 287.148438 94.597656 288.1875 94.554688 288.945312 95.117188 L 306.660156 108.304688 C 310.277344 106.257812 314.097656 104.4375 318.046875 102.871094 L 318.851562 80.769531 C 318.886719 79.835938 319.566406 79.046875 320.488281 78.867188 L 341.578125 74.914062 C 342.515625 74.738281 343.425781 75.230469 343.796875 76.09375 L 352.554688 96.394531 C 356.804688 96.417969 361.027344 96.734375 365.140625 97.328125 L 376.871094 78.621094 C 377.371094 77.828125 378.351562 77.480469 379.242188 77.796875 L 399.484375 84.910156 C 400.375 85.226562 400.925781 86.109375 400.816406 87.039062 L 398.25 109.007812 C 401.867188 111.136719 405.355469 113.523438 408.648438 116.121094 L 428.195312 105.765625 C 429.023438 105.332031 430.050781 105.523438 430.664062 106.234375 L 444.632812 122.527344 C 445.246094 123.234375 445.28125 124.277344 444.722656 125.035156 L 431.535156 142.742188 C 433.582031 146.359375 435.40625 150.179688 436.972656 154.132812 L 459.066406 154.9375 C 460.007812 154.972656 460.796875 155.65625 460.972656 156.578125 L 464.925781 177.667969 C 465.101562 178.59375 464.613281 179.511719 463.746094 179.886719 L 443.445312 188.644531 C 443.421875 192.902344 443.105469 197.121094 442.507812 201.234375 L 461.21875 212.960938 C 462.015625 213.460938 462.359375 214.445312 462.046875 215.332031 L 454.929688 235.574219 C 454.617188 236.460938 453.730469 237.011719 452.800781 236.90625 L 430.828125 234.34375 C 428.703125 237.953125 426.316406 241.445312 423.714844 244.738281 L 434.074219 264.289062 C 434.511719 265.117188 434.316406 266.140625 433.605469 266.753906 L 417.320312 280.726562 C 416.605469 281.335938 415.5625 281.367188 414.808594 280.8125 L 397.09375 267.625 C 393.476562 269.675781 389.660156 271.5 385.703125 273.0625 L 384.902344 295.160156 C 384.867188 296.097656 384.1875 296.886719 383.261719 297.054688 L 362.171875 301.015625 C 362.046875 301.039062 361.921875 301.050781 361.800781 301.050781 " fill-opacity="1" fill-rule="nonzero"/><path fill="#ffffff" d="M 696.355469 509.945312 C 684.828125 509.945312 673.117188 508.160156 661.582031 504.402344 C 644.832031 498.9375 630.023438 489.941406 617.5625 477.664062 C 616.773438 476.878906 616.761719 475.609375 617.542969 474.816406 C 618.324219 474.027344 619.59375 474.015625 620.390625 474.796875 C 632.402344 486.632812 646.679688 495.308594 662.832031 500.570312 C 719.660156 519.101562 780.953125 487.949219 799.476562 431.121094 C 805.90625 411.390625 806.570312 390.398438 801.382812 370.40625 C 801.097656 369.328125 801.746094 368.230469 802.824219 367.949219 C 803.902344 367.671875 804.996094 368.316406 805.273438 369.386719 C 810.65625 390.128906 809.972656 411.910156 803.300781 432.371094 C 787.847656 479.761719 743.695312 509.945312 696.355469 509.945312 " fill-opacity="1" fill-rule="nonzero"/><path fill="#000000" d="M 923.289062 697.398438 C 916.425781 702.496094 906.136719 699.960938 896.984375 687.34375 L 766.636719 507.613281 L 791.5 489.167969 L 921.855469 668.898438 C 936.695312 690.996094 923.289062 697.398438 923.289062 697.398438 " fill-opacity="1" fill-rule="nonzero"/><path fill="#000000" d="M 696.753906 517.273438 C 631.128906 517.125 578.058594 463.292969 578.21875 397.042969 C 578.371094 330.792969 631.703125 277.214844 697.324219 277.375 C 762.953125 277.527344 816.019531 331.363281 815.867188 397.609375 C 815.707031 463.859375 762.378906 517.433594 696.753906 517.273438 Z M 697.371094 259.164062 C 621.78125 258.984375 560.359375 320.699219 560.179688 397 C 560 473.304688 621.121094 535.304688 696.710938 535.480469 C 772.300781 535.671875 833.726562 473.957031 833.90625 397.652344 C 834.085938 321.347656 772.957031 259.34375 697.371094 259.164062 " fill-opacity="1" fill-rule="nonzero"/></svg>