<svg xmlns="http://www.w3.org/2000/svg" xmlns:xlink="http://www.w3.org/1999/xlink" width="1600" zoomAndPan="magnify" viewBox="0 0 1200 1199.999942" height="1600" preserveAspectRatio="xMidYMid meet" version="1.0"><defs><clipPath id="5e06861478"><path d="M 864 559.128906 L 948 559.128906 L 948 1183.777344 L 864 1183.777344 Z M 864 559.128906 " clip-rule="nonzero"/></clipPath><clipPath id="6127f25a51"><path d="M 29.507812 659.242188 C 69.011719 1119.839844 328.816406 1166.179688 592.25 1181.730469 C 901.941406 1200.003906 1010.167969 1050.191406 1092.191406 889.5625 C 1158.964844 758.808594 1195.660156 701.953125 1184.519531 431.355469 C 1172.6875 143.917969 882.640625 -0.238281 640.546875 27.175781 C 172.320312 80.203125 1.65625 334.484375 29.507812 659.242188 Z M 29.507812 659.242188 " clip-rule="nonzero"/></clipPath><clipPath id="4bca6555b6"><path d="M 861.464844 557 L 950 557 L 950 1183.777344 L 861.464844 1183.777344 Z M 861.464844 557 " clip-rule="nonzero"/></clipPath><clipPath id="184a417ffc"><path d="M 29.507812 659.242188 C 69.011719 1119.839844 328.816406 1166.179688 592.25 1181.730469 C 901.941406 1200.003906 1010.167969 1050.191406 1092.191406 889.5625 C 1158.964844 758.808594 1195.660156 701.953125 1184.519531 431.355469 C 1172.6875 143.917969 882.640625 -0.238281 640.546875 27.175781 C 172.320312 80.203125 1.65625 334.484375 29.507812 659.242188 Z M 29.507812 659.242188 " clip-rule="nonzero"/></clipPath><clipPath id="70affe1484"><path d="M 934.394531 559.128906 L 1128.445312 559.128906 L 1128.445312 1183.777344 L 934.394531 1183.777344 Z M 934.394531 559.128906 " clip-rule="nonzero"/></clipPath><clipPath id="9f3a6bd633"><path d="M 29.507812 659.242188 C 69.011719 1119.839844 328.816406 1166.179688 592.25 1181.730469 C 901.941406 1200.003906 1010.167969 1050.191406 1092.191406 889.5625 C 1158.964844 758.808594 1195.660156 701.953125 1184.519531 431.355469 C 1172.6875 143.917969 882.640625 -0.238281 640.546875 27.175781 C 172.320312 80.203125 1.65625 334.484375 29.507812 659.242188 Z M 29.507812 659.242188 " clip-rule="nonzero"/></clipPath><clipPath id="cebb755554"><path d="M 932.492188 557 L 1130.347656 557 L 1130.347656 1183.777344 L 932.492188 1183.777344 Z M 932.492188 557 " clip-rule="nonzero"/></clipPath><clipPath id="e414515771"><path d="M 29.507812 659.242188 C 69.011719 1119.839844 328.816406 1166.179688 592.25 1181.730469 C 901.941406 1200.003906 1010.167969 1050.191406 1092.191406 889.5625 C 1158.964844 758.808594 1195.660156 701.953125 1184.519531 431.355469 C 1172.6875 143.917969 882.640625 -0.238281 640.546875 27.175781 C 172.320312 80.203125 1.65625 334.484375 29.507812 659.242188 Z M 29.507812 659.242188 " clip-rule="nonzero"/></clipPath><clipPath id="6a072dac56"><path d="M 621.75 800.742188 L 699.753906 800.742188 L 699.753906 1183.777344 L 621.75 1183.777344 Z M 621.75 800.742188 " clip-rule="nonzero"/></clipPath><clipPath id="e68bdc3217"><path d="M 29.507812 659.242188 C 69.011719 1119.839844 328.816406 1166.179688 592.25 1181.730469 C 901.941406 1200.003906 1010.167969 1050.191406 1092.191406 889.5625 C 1158.964844 758.808594 1195.660156 701.953125 1184.519531 431.355469 C 1172.6875 143.917969 882.640625 -0.238281 640.546875 27.175781 C 172.320312 80.203125 1.65625 334.484375 29.507812 659.242188 Z M 29.507812 659.242188 " clip-rule="nonzero"/></clipPath><clipPath id="6bb5ab9345"><path d="M 619.214844 798.839844 L 702 798.839844 L 702 1183.777344 L 619.214844 1183.777344 Z M 619.214844 798.839844 " clip-rule="nonzero"/></clipPath><clipPath id="5dbad297ea"><path d="M 29.507812 659.242188 C 69.011719 1119.839844 328.816406 1166.179688 592.25 1181.730469 C 901.941406 1200.003906 1010.167969 1050.191406 1092.191406 889.5625 C 1158.964844 758.808594 1195.660156 701.953125 1184.519531 431.355469 C 1172.6875 143.917969 882.640625 -0.238281 640.546875 27.175781 C 172.320312 80.203125 1.65625 334.484375 29.507812 659.242188 Z M 29.507812 659.242188 " clip-rule="nonzero"/></clipPath><clipPath id="78aca40041"><path d="M 692.144531 800.742188 L 886.195312 800.742188 L 886.195312 1183.777344 L 692.144531 1183.777344 Z M 692.144531 800.742188 " clip-rule="nonzero"/></clipPath><clipPath id="f974c86ee2"><path d="M 29.507812 659.242188 C 69.011719 1119.839844 328.816406 1166.179688 592.25 1181.730469 C 901.941406 1200.003906 1010.167969 1050.191406 1092.191406 889.5625 C 1158.964844 758.808594 1195.660156 701.953125 1184.519531 431.355469 C 1172.6875 143.917969 882.640625 -0.238281 640.546875 27.175781 C 172.320312 80.203125 1.65625 334.484375 29.507812 659.242188 Z M 29.507812 659.242188 " clip-rule="nonzero"/></clipPath><clipPath id="f197333179"><path d="M 690.242188 798.839844 L 888.734375 798.839844 L 888.734375 1183.777344 L 690.242188 1183.777344 Z M 690.242188 798.839844 " clip-rule="nonzero"/></clipPath><clipPath id="e246b8f4c7"><path d="M 29.507812 659.242188 C 69.011719 1119.839844 328.816406 1166.179688 592.25 1181.730469 C 901.941406 1200.003906 1010.167969 1050.191406 1092.191406 889.5625 C 1158.964844 758.808594 1195.660156 701.953125 1184.519531 431.355469 C 1172.6875 143.917969 882.640625 -0.238281 640.546875 27.175781 C 172.320312 80.203125 1.65625 334.484375 29.507812 659.242188 Z M 29.507812 659.242188 " clip-rule="nonzero"/></clipPath><clipPath id="20688ec6b3"><path d="M 386 992.261719 L 466.382812 992.261719 L 466.382812 1183.777344 L 386 1183.777344 Z M 386 992.261719 " clip-rule="nonzero"/></clipPath><clipPath id="3003c27021"><path d="M 29.507812 659.242188 C 69.011719 1119.839844 328.816406 1166.179688 592.25 1181.730469 C 901.941406 1200.003906 1010.167969 1050.191406 1092.191406 889.5625 C 1158.964844 758.808594 1195.660156 701.953125 1184.519531 431.355469 C 1172.6875 143.917969 882.640625 -0.238281 640.546875 27.175781 C 172.320312 80.203125 1.65625 334.484375 29.507812 659.242188 Z M 29.507812 659.242188 " clip-rule="nonzero"/></clipPath><clipPath id="b50a138552"><path d="M 383.308594 990.359375 L 468.285156 990.359375 L 468.285156 1183.777344 L 383.308594 1183.777344 Z M 383.308594 990.359375 " clip-rule="nonzero"/></clipPath><clipPath id="1770951322"><path d="M 29.507812 659.242188 C 69.011719 1119.839844 328.816406 1166.179688 592.25 1181.730469 C 901.941406 1200.003906 1010.167969 1050.191406 1092.191406 889.5625 C 1158.964844 758.808594 1195.660156 701.953125 1184.519531 431.355469 C 1172.6875 143.917969 882.640625 -0.238281 640.546875 27.175781 C 172.320312 80.203125 1.65625 334.484375 29.507812 659.242188 Z M 29.507812 659.242188 " clip-rule="nonzero"/></clipPath><clipPath id="bbbdaf0cbb"><path d="M 456.234375 992.261719 L 650.289062 992.261719 L 650.289062 1183.777344 L 456.234375 1183.777344 Z M 456.234375 992.261719 " clip-rule="nonzero"/></clipPath><clipPath id="98483d837c"><path d="M 29.507812 659.242188 C 69.011719 1119.839844 328.816406 1166.179688 592.25 1181.730469 C 901.941406 1200.003906 1010.167969 1050.191406 1092.191406 889.5625 C 1158.964844 758.808594 1195.660156 701.953125 1184.519531 431.355469 C 1172.6875 143.917969 882.640625 -0.238281 640.546875 27.175781 C 172.320312 80.203125 1.65625 334.484375 29.507812 659.242188 Z M 29.507812 659.242188 " clip-rule="nonzero"/></clipPath><clipPath id="c9e8cc3fbd"><path d="M 454.332031 990.359375 L 652.824219 990.359375 L 652.824219 1183.777344 L 454.332031 1183.777344 Z M 454.332031 990.359375 " clip-rule="nonzero"/></clipPath><clipPath id="204c4d49da"><path d="M 29.507812 659.242188 C 69.011719 1119.839844 328.816406 1166.179688 592.25 1181.730469 C 901.941406 1200.003906 1010.167969 1050.191406 1092.191406 889.5625 C 1158.964844 758.808594 1195.660156 701.953125 1184.519531 431.355469 C 1172.6875 143.917969 882.640625 -0.238281 640.546875 27.175781 C 172.320312 80.203125 1.65625 334.484375 29.507812 659.242188 Z M 29.507812 659.242188 " clip-rule="nonzero"/></clipPath><clipPath id="f7dbaae6ce"><path d="M 742 845.769531 L 746.679688 845.769531 L 746.679688 1084.214844 L 742 1084.214844 Z M 742 845.769531 " clip-rule="nonzero"/></clipPath><clipPath id="b63ce1d2f6"><path d="M 29.507812 659.242188 C 69.011719 1119.839844 328.816406 1166.179688 592.25 1181.730469 C 901.941406 1200.003906 1010.167969 1050.191406 1092.191406 889.5625 C 1158.964844 758.808594 1195.660156 701.953125 1184.519531 431.355469 C 1172.6875 143.917969 882.640625 -0.238281 640.546875 27.175781 C 172.320312 80.203125 1.65625 334.484375 29.507812 659.242188 Z M 29.507812 659.242188 " clip-rule="nonzero"/></clipPath><clipPath id="7882d690b2"><path d="M 843.074219 873.039062 L 848 873.039062 L 848 1111.484375 L 843.074219 1111.484375 Z M 843.074219 873.039062 " clip-rule="nonzero"/></clipPath><clipPath id="f866ffb6ee"><path d="M 29.507812 659.242188 C 69.011719 1119.839844 328.816406 1166.179688 592.25 1181.730469 C 901.941406 1200.003906 1010.167969 1050.191406 1092.191406 889.5625 C 1158.964844 758.808594 1195.660156 701.953125 1184.519531 431.355469 C 1172.6875 143.917969 882.640625 -0.238281 640.546875 27.175781 C 172.320312 80.203125 1.65625 334.484375 29.507812 659.242188 Z M 29.507812 659.242188 " clip-rule="nonzero"/></clipPath><clipPath id="d9fc50a14c"><path d="M 1029 606.054688 L 1033.957031 606.054688 L 1033.957031 845 L 1029 845 Z M 1029 606.054688 " clip-rule="nonzero"/></clipPath><clipPath id="a6ba49c55c"><path d="M 29.507812 659.242188 C 69.011719 1119.839844 328.816406 1166.179688 592.25 1181.730469 C 901.941406 1200.003906 1010.167969 1050.191406 1092.191406 889.5625 C 1158.964844 758.808594 1195.660156 701.953125 1184.519531 431.355469 C 1172.6875 143.917969 882.640625 -0.238281 640.546875 27.175781 C 172.320312 80.203125 1.65625 334.484375 29.507812 659.242188 Z M 29.507812 659.242188 " clip-rule="nonzero"/></clipPath><clipPath id="2dcdc0979a"><path d="M 589.410156 1025 L 593.847656 1025 L 593.847656 1148.898438 L 589.410156 1148.898438 Z M 589.410156 1025 " clip-rule="nonzero"/></clipPath><clipPath id="d57a164aa8"><path d="M 29.507812 659.242188 C 69.011719 1119.839844 328.816406 1166.179688 592.25 1181.730469 C 901.941406 1200.003906 1010.167969 1050.191406 1092.191406 889.5625 C 1158.964844 758.808594 1195.660156 701.953125 1184.519531 431.355469 C 1172.6875 143.917969 882.640625 -0.238281 640.546875 27.175781 C 172.320312 80.203125 1.65625 334.484375 29.507812 659.242188 Z M 29.507812 659.242188 " clip-rule="nonzero"/></clipPath><clipPath id="d02680ae45"><path d="M 792.339844 967.527344 L 797 967.527344 L 797 1020 L 792.339844 1020 Z M 792.339844 967.527344 " clip-rule="nonzero"/></clipPath><clipPath id="66a467c033"><path d="M 29.507812 659.242188 C 69.011719 1119.839844 328.816406 1166.179688 592.25 1181.730469 C 901.941406 1200.003906 1010.167969 1050.191406 1092.191406 889.5625 C 1158.964844 758.808594 1195.660156 701.953125 1184.519531 431.355469 C 1172.6875 143.917969 882.640625 -0.238281 640.546875 27.175781 C 172.320312 80.203125 1.65625 334.484375 29.507812 659.242188 Z M 29.507812 659.242188 " clip-rule="nonzero"/></clipPath><clipPath id="e837a80980"><path d="M 978.785156 650 L 983.222656 650 L 983.222656 702.449219 L 978.785156 702.449219 Z M 978.785156 650 " clip-rule="nonzero"/></clipPath><clipPath id="bbcae8f462"><path d="M 29.507812 659.242188 C 69.011719 1119.839844 328.816406 1166.179688 592.25 1181.730469 C 901.941406 1200.003906 1010.167969 1050.191406 1092.191406 889.5625 C 1158.964844 758.808594 1195.660156 701.953125 1184.519531 431.355469 C 1172.6875 143.917969 882.640625 -0.238281 640.546875 27.175781 C 172.320312 80.203125 1.65625 334.484375 29.507812 659.242188 Z M 29.507812 659.242188 " clip-rule="nonzero"/></clipPath><clipPath id="0c2c118c5b"><path d="M 1080 744.304688 L 1084.691406 744.304688 L 1084.691406 796.9375 L 1080 796.9375 Z M 1080 744.304688 " clip-rule="nonzero"/></clipPath><clipPath id="8246c62e7d"><path d="M 29.507812 659.242188 C 69.011719 1119.839844 328.816406 1166.179688 592.25 1181.730469 C 901.941406 1200.003906 1010.167969 1050.191406 1092.191406 889.5625 C 1158.964844 758.808594 1195.660156 701.953125 1184.519531 431.355469 C 1172.6875 143.917969 882.640625 -0.238281 640.546875 27.175781 C 172.320312 80.203125 1.65625 334.484375 29.507812 659.242188 Z M 29.507812 659.242188 " clip-rule="nonzero"/></clipPath><clipPath id="3623cced9b"><path d="M 528.53125 1066.457031 L 533.601562 1066.457031 L 533.601562 1106 L 528.53125 1106 Z M 528.53125 1066.457031 " clip-rule="nonzero"/></clipPath><clipPath id="7cb9acbff6"><path d="M 29.507812 659.242188 C 69.011719 1119.839844 328.816406 1166.179688 592.25 1181.730469 C 901.941406 1200.003906 1010.167969 1050.191406 1092.191406 889.5625 C 1158.964844 758.808594 1195.660156 701.953125 1184.519531 431.355469 C 1172.6875 143.917969 882.640625 -0.238281 640.546875 27.175781 C 172.320312 80.203125 1.65625 334.484375 29.507812 659.242188 Z M 29.507812 659.242188 " clip-rule="nonzero"/></clipPath><clipPath id="e9cfb6397b"><path d="M 742 845.769531 L 746.679688 845.769531 L 746.679688 1084.214844 L 742 1084.214844 Z M 742 845.769531 " clip-rule="nonzero"/></clipPath><clipPath id="771362a2e6"><path d="M 29.507812 659.242188 C 69.011719 1119.839844 328.816406 1166.179688 592.25 1181.730469 C 901.941406 1200.003906 1010.167969 1050.191406 1092.191406 889.5625 C 1158.964844 758.808594 1195.660156 701.953125 1184.519531 431.355469 C 1172.6875 143.917969 882.640625 -0.238281 640.546875 27.175781 C 172.320312 80.203125 1.65625 334.484375 29.507812 659.242188 Z M 29.507812 659.242188 " clip-rule="nonzero"/></clipPath><clipPath id="6a9c5530d2"><path d="M 843.074219 873.039062 L 848 873.039062 L 848 1111.484375 L 843.074219 1111.484375 Z M 843.074219 873.039062 " clip-rule="nonzero"/></clipPath><clipPath id="010e33dcc2"><path d="M 29.507812 659.242188 C 69.011719 1119.839844 328.816406 1166.179688 592.25 1181.730469 C 901.941406 1200.003906 1010.167969 1050.191406 1092.191406 889.5625 C 1158.964844 758.808594 1195.660156 701.953125 1184.519531 431.355469 C 1172.6875 143.917969 882.640625 -0.238281 640.546875 27.175781 C 172.320312 80.203125 1.65625 334.484375 29.507812 659.242188 Z M 29.507812 659.242188 " clip-rule="nonzero"/></clipPath><clipPath id="1a5bbf9dae"><path d="M 792.339844 967.527344 L 797 967.527344 L 797 1020 L 792.339844 1020 Z M 792.339844 967.527344 " clip-rule="nonzero"/></clipPath><clipPath id="b3c4fa74ed"><path d="M 29.507812 659.242188 C 69.011719 1119.839844 328.816406 1166.179688 592.25 1181.730469 C 901.941406 1200.003906 1010.167969 1050.191406 1092.191406 889.5625 C 1158.964844 758.808594 1195.660156 701.953125 1184.519531 431.355469 C 1172.6875 143.917969 882.640625 -0.238281 640.546875 27.175781 C 172.320312 80.203125 1.65625 334.484375 29.507812 659.242188 Z M 29.507812 659.242188 " clip-rule="nonzero"/></clipPath><clipPath id="62561a266d"><path d="M 1029 606.054688 L 1033.957031 606.054688 L 1033.957031 845 L 1029 845 Z M 1029 606.054688 " clip-rule="nonzero"/></clipPath><clipPath id="badc9739cf"><path d="M 29.507812 659.242188 C 69.011719 1119.839844 328.816406 1166.179688 592.25 1181.730469 C 901.941406 1200.003906 1010.167969 1050.191406 1092.191406 889.5625 C 1158.964844 758.808594 1195.660156 701.953125 1184.519531 431.355469 C 1172.6875 143.917969 882.640625 -0.238281 640.546875 27.175781 C 172.320312 80.203125 1.65625 334.484375 29.507812 659.242188 Z M 29.507812 659.242188 " clip-rule="nonzero"/></clipPath><clipPath id="455dcb1121"><path d="M 978.785156 650 L 983.222656 650 L 983.222656 702.449219 L 978.785156 702.449219 Z M 978.785156 650 " clip-rule="nonzero"/></clipPath><clipPath id="d16a4e75b5"><path d="M 29.507812 659.242188 C 69.011719 1119.839844 328.816406 1166.179688 592.25 1181.730469 C 901.941406 1200.003906 1010.167969 1050.191406 1092.191406 889.5625 C 1158.964844 758.808594 1195.660156 701.953125 1184.519531 431.355469 C 1172.6875 143.917969 882.640625 -0.238281 640.546875 27.175781 C 172.320312 80.203125 1.65625 334.484375 29.507812 659.242188 Z M 29.507812 659.242188 " clip-rule="nonzero"/></clipPath><clipPath id="b929cbd478"><path d="M 1080 744.304688 L 1084.691406 744.304688 L 1084.691406 796.9375 L 1080 796.9375 Z M 1080 744.304688 " clip-rule="nonzero"/></clipPath><clipPath id="08ade8b97a"><path d="M 29.507812 659.242188 C 69.011719 1119.839844 328.816406 1166.179688 592.25 1181.730469 C 901.941406 1200.003906 1010.167969 1050.191406 1092.191406 889.5625 C 1158.964844 758.808594 1195.660156 701.953125 1184.519531 431.355469 C 1172.6875 143.917969 882.640625 -0.238281 640.546875 27.175781 C 172.320312 80.203125 1.65625 334.484375 29.507812 659.242188 Z M 29.507812 659.242188 " clip-rule="nonzero"/></clipPath><clipPath id="bb4be24e40"><path d="M 589.410156 1025 L 593.847656 1025 L 593.847656 1148.898438 L 589.410156 1148.898438 Z M 589.410156 1025 " clip-rule="nonzero"/></clipPath><clipPath id="1a3efa670a"><path d="M 29.507812 659.242188 C 69.011719 1119.839844 328.816406 1166.179688 592.25 1181.730469 C 901.941406 1200.003906 1010.167969 1050.191406 1092.191406 889.5625 C 1158.964844 758.808594 1195.660156 701.953125 1184.519531 431.355469 C 1172.6875 143.917969 882.640625 -0.238281 640.546875 27.175781 C 172.320312 80.203125 1.65625 334.484375 29.507812 659.242188 Z M 29.507812 659.242188 " clip-rule="nonzero"/></clipPath><clipPath id="8d5c9ac999"><path d="M 528.53125 1066.457031 L 533.601562 1066.457031 L 533.601562 1106 L 528.53125 1106 Z M 528.53125 1066.457031 " clip-rule="nonzero"/></clipPath><clipPath id="a4da81d7b6"><path d="M 29.507812 659.242188 C 69.011719 1119.839844 328.816406 1166.179688 592.25 1181.730469 C 901.941406 1200.003906 1010.167969 1050.191406 1092.191406 889.5625 C 1158.964844 758.808594 1195.660156 701.953125 1184.519531 431.355469 C 1172.6875 143.917969 882.640625 -0.238281 640.546875 27.175781 C 172.320312 80.203125 1.65625 334.484375 29.507812 659.242188 Z M 29.507812 659.242188 " clip-rule="nonzero"/></clipPath></defs><path fill="#ff6600" d="M 291.667969 124.324219 C 283.984375 128.5625 277.351562 134.265625 270.050781 139.066406 C 208.484375 179.542969 3.019531 333.261719 30.875 658.488281 C 70.378906 1119.753906 338.933594 1166.757812 593.613281 1181.722656 C 901.511719 1199.824219 1010.628906 1049.195312 1093.558594 889.140625 C 1161.207031 758.59375 1197.023438 701.265625 1185.886719 430.28125 C 1174.042969 142.421875 883.226562 0.175781 641.035156 26.648438 C 489.21875 43.238281 399.554688 64.765625 291.667969 124.324219 " fill-opacity="1" fill-rule="nonzero"/><path fill="#99b9ff" d="M 1147.507812 34.65625 L 814.765625 134.5 C 798.511719 139.378906 793.085938 159.742188 804.761719 172.109375 L 859.042969 229.660156 L 672.851562 407.167969 C 653.355469 425.75 622.542969 424.957031 604.023438 405.402344 L 525.097656 322.015625 C 452.398438 245.21875 331.425781 242.109375 254.910156 315.085938 L 32.492188 527.203125 C 27.730469 567.652344 26.789062 611.605469 30.875 659.242188 C 33.378906 688.464844 36.820312 715.992188 41.109375 741.980469 L 352.550781 443.816406 C 371.992188 425.277344 402.714844 426.011719 421.253906 445.460938 L 501.003906 529.132812 C 573.785156 605.472656 694.378906 608.363281 770.707031 535.59375 L 969.171875 346.390625 L 1026.378906 407.035156 C 1038.136719 419.492188 1058.851562 415.003906 1064.445312 398.796875 L 1178.714844 67.34375 C 1185.46875 47.761719 1167.292969 28.730469 1147.507812 34.65625 " fill-opacity="1" fill-rule="nonzero"/><g clip-path="url(#5e06861478)"><g clip-path="url(#6127f25a51)"><path fill="#ffffff" d="M 947.886719 1193.867188 L 864.089844 1193.867188 L 864.089844 628.273438 L 934.925781 559.300781 L 947.886719 1193.867188 " fill-opacity="1" fill-rule="nonzero"/></g></g><g clip-path="url(#4bca6555b6)"><g clip-path="url(#184a417ffc)"><path fill="#000000" d="M 947.890625 1195.972656 L 864.09375 1195.972656 C 862.929688 1195.972656 861.996094 1195.027344 861.996094 1193.867188 L 861.996094 628.273438 C 861.996094 627.707031 862.21875 627.15625 862.628906 626.765625 L 933.464844 557.792969 C 934.292969 556.984375 935.628906 557.003906 936.429688 557.835938 C 937.238281 558.664062 937.226562 559.996094 936.394531 560.800781 L 866.1875 629.160156 L 866.1875 1191.765625 L 947.890625 1191.765625 C 949.054688 1191.765625 949.996094 1192.707031 949.996094 1193.867188 C 949.996094 1195.027344 949.054688 1195.972656 947.890625 1195.972656 " fill-opacity="1" fill-rule="nonzero"/></g></g><g clip-path="url(#70affe1484)"><g clip-path="url(#9f3a6bd633)"><path fill="#99b9ff" d="M 1127.496094 1193.867188 L 935.644531 1193.867188 C 935.242188 1193.867188 934.925781 1193.550781 934.925781 1193.152344 L 934.925781 560.042969 C 934.925781 559.632812 935.265625 559.308594 935.667969 559.328125 L 1127.519531 566.589844 C 1127.90625 566.605469 1128.214844 566.921875 1128.214844 567.308594 L 1128.214844 1193.152344 C 1128.214844 1193.550781 1127.890625 1193.867188 1127.496094 1193.867188 " fill-opacity="1" fill-rule="nonzero"/></g></g><g clip-path="url(#cebb755554)"><g clip-path="url(#e414515771)"><path fill="#000000" d="M 937.023438 1191.769531 L 1126.117188 1191.769531 L 1126.117188 568.636719 L 937.023438 561.484375 Z M 1127.5 1195.972656 L 935.640625 1195.972656 C 934.089844 1195.972656 932.816406 1194.703125 932.816406 1193.152344 L 932.816406 560.042969 C 932.816406 559.277344 933.136719 558.542969 933.691406 558.015625 C 934.234375 557.484375 935.023438 557.191406 935.753906 557.222656 L 1127.601562 564.492188 C 1129.125 564.546875 1130.3125 565.785156 1130.3125 567.304688 L 1130.3125 1193.152344 C 1130.3125 1194.703125 1129.050781 1195.972656 1127.5 1195.972656 " fill-opacity="1" fill-rule="nonzero"/></g></g><g clip-path="url(#6a072dac56)"><g clip-path="url(#e68bdc3217)"><path fill="#ffffff" d="M 699.570312 1193.867188 L 621.917969 1193.867188 L 621.917969 843.652344 L 692.753906 800.945312 L 699.570312 1193.867188 " fill-opacity="1" fill-rule="nonzero"/></g></g><g clip-path="url(#6bb5ab9345)"><g clip-path="url(#5dbad297ea)"><path fill="#000000" d="M 699.570312 1195.972656 L 621.917969 1195.972656 C 620.757812 1195.972656 619.816406 1195.027344 619.816406 1193.867188 L 619.816406 843.652344 C 619.816406 842.914062 620.199219 842.230469 620.832031 841.855469 L 691.667969 799.144531 C 692.65625 798.550781 693.953125 798.867188 694.546875 799.863281 C 695.148438 800.851562 694.832031 802.144531 693.839844 802.742188 L 624.015625 844.839844 L 624.015625 1191.769531 L 699.570312 1191.769531 C 700.726562 1191.769531 701.667969 1192.707031 701.667969 1193.867188 C 701.667969 1195.027344 700.726562 1195.972656 699.570312 1195.972656 " fill-opacity="1" fill-rule="nonzero"/></g></g><g clip-path="url(#78aca40041)"><g clip-path="url(#f974c86ee2)"><path fill="#99b9ff" d="M 886.042969 1193.867188 L 692.753906 1193.867188 L 692.753906 801.769531 C 692.753906 801.320312 693.125 800.957031 693.582031 800.96875 L 886.042969 807.417969 L 886.042969 1193.867188 " fill-opacity="1" fill-rule="nonzero"/></g></g><g clip-path="url(#f197333179)"><g clip-path="url(#e246b8f4c7)"><path fill="#000000" d="M 694.855469 1191.765625 L 883.9375 1191.765625 L 883.9375 809.449219 L 694.855469 803.113281 Z M 888.140625 1195.972656 L 690.648438 1195.972656 L 690.648438 801.769531 C 690.648438 800.988281 690.972656 800.230469 691.539062 799.683594 C 692.09375 799.144531 692.867188 798.839844 693.652344 798.871094 L 888.140625 805.382812 L 888.140625 1195.972656 " fill-opacity="1" fill-rule="nonzero"/></g></g><g clip-path="url(#20688ec6b3)"><g clip-path="url(#3003c27021)"><path fill="#ffffff" d="M 466.152344 1193.867188 L 386.015625 1193.867188 L 386.015625 1014.589844 L 456.84375 992.730469 L 466.152344 1193.867188 " fill-opacity="1" fill-rule="nonzero"/></g></g><g clip-path="url(#b50a138552)"><g clip-path="url(#1770951322)"><path fill="#000000" d="M 466.152344 1195.972656 L 386.015625 1195.972656 C 384.851562 1195.972656 383.910156 1195.027344 383.910156 1193.867188 L 383.910156 1014.589844 C 383.910156 1013.671875 384.511719 1012.859375 385.394531 1012.585938 L 456.226562 990.71875 C 457.332031 990.382812 458.511719 991 458.855469 992.109375 C 459.199219 993.21875 458.578125 994.390625 457.464844 994.734375 L 388.113281 1016.144531 L 388.113281 1191.769531 L 466.152344 1191.769531 C 467.3125 1191.769531 468.253906 1192.707031 468.253906 1193.867188 C 468.253906 1195.027344 467.3125 1195.972656 466.152344 1195.972656 " fill-opacity="1" fill-rule="nonzero"/></g></g><g clip-path="url(#bbbdaf0cbb)"><g clip-path="url(#98483d837c)"><path fill="#99b9ff" d="M 649.460938 1193.867188 L 457.523438 1193.867188 C 457.148438 1193.867188 456.84375 1193.570312 456.84375 1193.195312 L 456.84375 993.414062 C 456.84375 993.035156 457.15625 992.738281 457.527344 992.742188 L 649.472656 995.871094 C 649.839844 995.875 650.136719 996.179688 650.136719 996.546875 L 650.136719 1193.195312 C 650.136719 1193.570312 649.832031 1193.867188 649.460938 1193.867188 " fill-opacity="1" fill-rule="nonzero"/></g></g><g clip-path="url(#c9e8cc3fbd)"><g clip-path="url(#204c4d49da)"><path fill="#000000" d="M 458.949219 1191.769531 L 648.03125 1191.769531 L 648.03125 997.949219 L 458.949219 994.867188 Z M 649.460938 1195.972656 L 457.523438 1195.972656 C 455.996094 1195.972656 454.746094 1194.722656 454.746094 1193.195312 L 454.746094 993.414062 C 454.746094 992.667969 455.042969 991.964844 455.578125 991.4375 C 456.109375 990.910156 456.824219 990.617188 457.566406 990.636719 L 649.503906 993.769531 C 651.011719 993.796875 652.234375 995.039062 652.234375 996.546875 L 652.234375 1193.195312 C 652.234375 1194.722656 650.992188 1195.972656 649.460938 1195.972656 " fill-opacity="1" fill-rule="nonzero"/></g></g><g clip-path="url(#f7dbaae6ce)"><g clip-path="url(#b63ce1d2f6)"><path fill="#ff6600" d="M 744.132812 1084.085938 C 742.972656 1084.085938 742.027344 1083.148438 742.027344 1081.988281 L 742.027344 847.894531 C 742.027344 846.734375 742.972656 845.792969 744.132812 845.792969 C 745.292969 845.792969 746.230469 846.734375 746.230469 847.894531 L 746.230469 1081.988281 C 746.230469 1083.148438 745.292969 1084.085938 744.132812 1084.085938 " fill-opacity="1" fill-rule="nonzero"/></g></g><g clip-path="url(#7882d690b2)"><g clip-path="url(#f866ffb6ee)"><path fill="#ff6600" d="M 845.433594 1111.46875 C 844.28125 1111.46875 843.339844 1110.53125 843.339844 1109.371094 L 843.339844 875.273438 C 843.339844 874.113281 844.28125 873.167969 845.433594 873.167969 C 846.597656 873.167969 847.539062 874.113281 847.539062 875.273438 L 847.539062 1109.371094 C 847.539062 1110.53125 846.597656 1111.46875 845.433594 1111.46875 " fill-opacity="1" fill-rule="nonzero"/></g></g><g clip-path="url(#d9fc50a14c)"><g clip-path="url(#a6ba49c55c)"><path fill="#ff6600" d="M 1031.609375 844.519531 C 1030.445312 844.519531 1029.511719 843.582031 1029.511719 842.421875 L 1029.511719 608.324219 C 1029.511719 607.164062 1030.445312 606.230469 1031.609375 606.230469 C 1032.769531 606.230469 1033.714844 607.164062 1033.714844 608.324219 L 1033.714844 842.421875 C 1033.714844 843.582031 1032.769531 844.519531 1031.609375 844.519531 " fill-opacity="1" fill-rule="nonzero"/></g></g><g clip-path="url(#2dcdc0979a)"><g clip-path="url(#d57a164aa8)"><path fill="#ff6600" d="M 591.71875 1148.429688 C 590.554688 1148.429688 589.617188 1147.492188 589.617188 1146.328125 L 589.617188 1027.230469 C 589.617188 1026.066406 590.554688 1025.128906 591.71875 1025.128906 C 592.878906 1025.128906 593.816406 1026.066406 593.816406 1027.230469 L 593.816406 1146.328125 C 593.816406 1147.492188 592.878906 1148.429688 591.71875 1148.429688 " fill-opacity="1" fill-rule="nonzero"/></g></g><g clip-path="url(#d02680ae45)"><g clip-path="url(#66a467c033)"><path fill="#ff6600" d="M 794.785156 1019.753906 C 793.621094 1019.753906 792.679688 1018.804688 792.679688 1017.648438 L 792.679688 969.734375 C 792.679688 968.574219 793.621094 967.636719 794.785156 967.636719 C 795.941406 967.636719 796.882812 968.574219 796.882812 969.734375 L 796.882812 1017.648438 C 796.882812 1018.804688 795.941406 1019.753906 794.785156 1019.753906 " fill-opacity="1" fill-rule="nonzero"/></g></g><g clip-path="url(#e837a80980)"><g clip-path="url(#bbcae8f462)"><path fill="#ff6600" d="M 980.96875 702.148438 C 979.804688 702.148438 978.863281 701.203125 978.863281 700.042969 L 978.863281 652.132812 C 978.863281 650.96875 979.804688 650.035156 980.96875 650.035156 C 982.121094 650.035156 983.0625 650.96875 983.0625 652.132812 L 983.0625 700.042969 C 983.0625 701.203125 982.121094 702.148438 980.96875 702.148438 " fill-opacity="1" fill-rule="nonzero"/></g></g><g clip-path="url(#0c2c118c5b)"><g clip-path="url(#8246c62e7d)"><path fill="#ff6600" d="M 1082.265625 796.609375 C 1081.101562 796.609375 1080.160156 795.664062 1080.160156 794.511719 L 1080.160156 746.59375 C 1080.160156 745.433594 1081.101562 744.496094 1082.265625 744.496094 C 1083.421875 744.496094 1084.367188 745.433594 1084.367188 746.59375 L 1084.367188 794.511719 C 1084.367188 795.664062 1083.421875 796.609375 1082.265625 796.609375 " fill-opacity="1" fill-rule="nonzero"/></g></g><g clip-path="url(#3623cced9b)"><g clip-path="url(#7cb9acbff6)"><path fill="#ff6600" d="M 531.03125 1105.992188 C 529.867188 1105.992188 528.929688 1105.050781 528.929688 1103.894531 L 528.929688 1068.753906 C 528.929688 1067.59375 529.867188 1066.652344 531.03125 1066.652344 C 532.1875 1066.652344 533.128906 1067.59375 533.128906 1068.753906 L 533.128906 1103.894531 C 533.128906 1105.050781 532.1875 1105.992188 531.03125 1105.992188 " fill-opacity="1" fill-rule="nonzero"/></g></g><g clip-path="url(#e9cfb6397b)"><g clip-path="url(#771362a2e6)"><path fill="#ff6600" d="M 744.132812 1084.085938 C 742.972656 1084.085938 742.027344 1083.148438 742.027344 1081.988281 L 742.027344 847.894531 C 742.027344 846.734375 742.972656 845.792969 744.132812 845.792969 C 745.292969 845.792969 746.230469 846.734375 746.230469 847.894531 L 746.230469 1081.988281 C 746.230469 1083.148438 745.292969 1084.085938 744.132812 1084.085938 " fill-opacity="1" fill-rule="nonzero"/></g></g><g clip-path="url(#6a9c5530d2)"><g clip-path="url(#010e33dcc2)"><path fill="#ff6600" d="M 845.433594 1111.46875 C 844.28125 1111.46875 843.339844 1110.53125 843.339844 1109.371094 L 843.339844 875.273438 C 843.339844 874.113281 844.28125 873.167969 845.433594 873.167969 C 846.597656 873.167969 847.539062 874.113281 847.539062 875.273438 L 847.539062 1109.371094 C 847.539062 1110.53125 846.597656 1111.46875 845.433594 1111.46875 " fill-opacity="1" fill-rule="nonzero"/></g></g><g clip-path="url(#1a5bbf9dae)"><g clip-path="url(#b3c4fa74ed)"><path fill="#ff6600" d="M 794.785156 1019.753906 C 793.621094 1019.753906 792.679688 1018.804688 792.679688 1017.648438 L 792.679688 969.734375 C 792.679688 968.574219 793.621094 967.636719 794.785156 967.636719 C 795.941406 967.636719 796.882812 968.574219 796.882812 969.734375 L 796.882812 1017.648438 C 796.882812 1018.804688 795.941406 1019.753906 794.785156 1019.753906 " fill-opacity="1" fill-rule="nonzero"/></g></g><g clip-path="url(#62561a266d)"><g clip-path="url(#badc9739cf)"><path fill="#ff6600" d="M 1031.609375 844.519531 C 1030.445312 844.519531 1029.511719 843.582031 1029.511719 842.421875 L 1029.511719 608.324219 C 1029.511719 607.164062 1030.445312 606.230469 1031.609375 606.230469 C 1032.769531 606.230469 1033.714844 607.164062 1033.714844 608.324219 L 1033.714844 842.421875 C 1033.714844 843.582031 1032.769531 844.519531 1031.609375 844.519531 " fill-opacity="1" fill-rule="nonzero"/></g></g><g clip-path="url(#455dcb1121)"><g clip-path="url(#d16a4e75b5)"><path fill="#ff6600" d="M 980.96875 702.148438 C 979.804688 702.148438 978.863281 701.203125 978.863281 700.042969 L 978.863281 652.132812 C 978.863281 650.96875 979.804688 650.035156 980.96875 650.035156 C 982.121094 650.035156 983.0625 650.96875 983.0625 652.132812 L 983.0625 700.042969 C 983.0625 701.203125 982.121094 702.148438 980.96875 702.148438 " fill-opacity="1" fill-rule="nonzero"/></g></g><g clip-path="url(#b929cbd478)"><g clip-path="url(#08ade8b97a)"><path fill="#ff6600" d="M 1082.265625 796.609375 C 1081.101562 796.609375 1080.160156 795.664062 1080.160156 794.511719 L 1080.160156 746.59375 C 1080.160156 745.433594 1081.101562 744.496094 1082.265625 744.496094 C 1083.421875 744.496094 1084.367188 745.433594 1084.367188 746.59375 L 1084.367188 794.511719 C 1084.367188 795.664062 1083.421875 796.609375 1082.265625 796.609375 " fill-opacity="1" fill-rule="nonzero"/></g></g><g clip-path="url(#bb4be24e40)"><g clip-path="url(#1a3efa670a)"><path fill="#ff6600" d="M 591.71875 1148.429688 C 590.554688 1148.429688 589.617188 1147.492188 589.617188 1146.328125 L 589.617188 1027.230469 C 589.617188 1026.066406 590.554688 1025.128906 591.71875 1025.128906 C 592.878906 1025.128906 593.816406 1026.066406 593.816406 1027.230469 L 593.816406 1146.328125 C 593.816406 1147.492188 592.878906 1148.429688 591.71875 1148.429688 " fill-opacity="1" fill-rule="nonzero"/></g></g><g clip-path="url(#8d5c9ac999)"><g clip-path="url(#a4da81d7b6)"><path fill="#ff6600" d="M 531.03125 1105.992188 C 529.867188 1105.992188 528.929688 1105.050781 528.929688 1103.894531 L 528.929688 1068.753906 C 528.929688 1067.59375 529.867188 1066.652344 531.03125 1066.652344 C 532.1875 1066.652344 533.128906 1067.59375 533.128906 1068.753906 L 533.128906 1103.894531 C 533.128906 1105.050781 532.1875 1105.992188 531.03125 1105.992188 " fill-opacity="1" fill-rule="nonzero"/></g></g><path fill="#ffffff" d="M 206.0625 399.769531 C 188.734375 404.644531 170.84375 394.160156 166.101562 376.359375 C 161.359375 358.5625 171.558594 340.179688 188.882812 335.304688 C 206.207031 330.429688 224.097656 340.90625 228.839844 358.707031 C 233.585938 376.511719 223.386719 394.894531 206.0625 399.769531 Z M 262.179688 356.0625 L 258.84375 343.539062 L 245.058594 344.183594 C 243.777344 341.421875 242.300781 338.808594 240.628906 336.367188 L 247.925781 324.351562 L 238.945312 315.222656 L 227.316406 322.867188 C 224.894531 321.160156 222.339844 319.664062 219.679688 318.394531 L 220.152344 304.21875 L 207.929688 300.929688 L 201.589844 313.5 C 198.691406 313.265625 195.746094 313.292969 192.789062 313.566406 L 186.304688 301.046875 L 174.117188 304.480469 L 174.746094 318.640625 C 172.0625 319.953125 169.515625 321.476562 167.136719 323.191406 L 155.445312 315.695312 L 146.5625 324.921875 L 153.996094 336.871094 C 152.339844 339.363281 150.882812 341.980469 149.644531 344.71875 L 135.851562 344.230469 L 132.648438 356.789062 L 144.882812 363.304688 C 144.65625 366.285156 144.679688 369.304688 144.945312 372.347656 L 132.761719 379.011719 L 136.101562 391.527344 L 149.886719 390.890625 C 151.164062 393.644531 152.644531 396.257812 154.316406 398.699219 L 147.015625 410.714844 L 156 419.84375 L 167.628906 412.207031 C 170.046875 413.914062 172.605469 415.410156 175.265625 416.679688 L 174.789062 430.847656 L 187.011719 434.144531 L 193.351562 421.566406 C 196.253906 421.800781 199.195312 421.78125 202.15625 421.507812 L 208.640625 434.019531 L 220.824219 430.59375 L 220.199219 416.429688 C 222.882812 415.113281 225.425781 413.59375 227.804688 411.875 L 239.5 419.378906 L 248.382812 410.144531 L 240.945312 398.195312 C 242.605469 395.710938 244.0625 393.085938 245.300781 390.355469 L 259.09375 390.84375 L 262.296875 378.285156 L 250.0625 371.761719 C 250.289062 368.789062 250.265625 365.761719 249.996094 362.722656 L 262.179688 356.0625 " fill-opacity="1" fill-rule="nonzero"/><path fill="#ffffff" d="M 205.464844 399.070312 C 188.140625 403.949219 170.25 393.464844 165.507812 375.664062 C 160.761719 357.863281 170.960938 339.484375 188.289062 334.613281 C 205.613281 329.734375 223.503906 340.21875 228.246094 358.019531 C 232.992188 375.820312 222.792969 394.199219 205.464844 399.070312 Z M 261.582031 355.363281 L 258.246094 342.84375 L 244.460938 343.492188 C 243.183594 340.734375 241.707031 338.121094 240.03125 335.675781 L 247.332031 323.660156 L 238.347656 314.535156 L 226.722656 322.175781 C 224.296875 320.46875 221.746094 318.96875 219.082031 317.699219 L 219.558594 303.527344 L 207.335938 300.234375 L 200.996094 312.808594 C 198.09375 312.574219 195.152344 312.597656 192.195312 312.875 L 185.707031 300.355469 L 173.523438 303.78125 L 174.148438 317.949219 C 171.46875 319.257812 168.921875 320.785156 166.542969 322.496094 L 154.851562 315 L 145.96875 324.230469 L 153.402344 336.179688 C 151.742188 338.664062 150.285156 341.292969 149.046875 344.027344 L 135.253906 343.539062 L 132.050781 356.097656 L 144.289062 362.609375 C 144.0625 365.59375 144.085938 368.617188 144.351562 371.652344 L 132.167969 378.320312 L 135.503906 390.839844 L 149.292969 390.195312 C 150.570312 392.949219 152.046875 395.5625 153.71875 398.007812 L 146.421875 410.027344 L 155.40625 419.152344 L 167.03125 411.507812 C 169.453125 413.214844 172.007812 414.714844 174.671875 415.984375 L 174.195312 430.15625 L 186.417969 433.449219 L 192.757812 420.878906 C 195.660156 421.113281 198.601562 421.085938 201.558594 420.8125 L 208.046875 433.328125 L 220.230469 429.902344 L 219.605469 415.734375 C 222.285156 414.425781 224.832031 412.902344 227.210938 411.1875 L 238.902344 418.6875 L 247.785156 409.453125 L 240.351562 397.507812 C 242.011719 395.019531 243.464844 392.398438 244.703125 389.65625 L 258.5 390.144531 L 261.703125 377.585938 L 249.464844 371.078125 C 249.695312 368.09375 249.667969 365.066406 249.402344 362.03125 L 261.582031 355.363281 " fill-opacity="1" fill-rule="nonzero"/><path fill="#000000" d="M 196.914062 335.519531 C 194.222656 335.519531 191.515625 335.886719 188.855469 336.636719 C 172.660156 341.195312 163.09375 358.460938 167.535156 375.128906 C 169.722656 383.335938 174.90625 390.125 182.140625 394.246094 C 189.121094 398.222656 197.199219 399.222656 204.898438 397.054688 C 221.09375 392.503906 230.65625 375.230469 226.214844 358.5625 C 224.027344 350.351562 218.839844 343.566406 211.609375 339.445312 C 207.042969 336.84375 202.007812 335.519531 196.914062 335.519531 Z M 196.832031 402.382812 C 191.015625 402.382812 185.269531 400.863281 180.058594 397.894531 C 171.84375 393.207031 165.953125 385.511719 163.476562 376.210938 C 158.445312 357.335938 169.320312 337.769531 187.71875 332.589844 C 196.507812 330.117188 205.730469 331.257812 213.691406 335.792969 C 221.90625 340.480469 227.796875 348.179688 230.273438 357.476562 C 235.308594 376.351562 224.433594 395.921875 206.035156 401.101562 C 202.996094 401.957031 199.902344 402.382812 196.832031 402.382812 Z M 176.351562 428.566406 L 185.3125 430.980469 L 190.882812 419.933594 C 191.265625 419.175781 192.078125 418.710938 192.925781 418.785156 C 195.6875 419.003906 198.527344 418.984375 201.367188 418.722656 C 202.226562 418.648438 203.03125 419.09375 203.425781 419.847656 L 209.121094 430.84375 L 218.058594 428.332031 L 217.503906 415.835938 C 217.46875 415 217.929688 414.21875 218.679688 413.855469 C 221.257812 412.59375 223.710938 411.121094 225.980469 409.484375 C 226.675781 408.980469 227.617188 408.953125 228.34375 409.417969 L 238.582031 415.988281 L 245.136719 409.179688 L 238.5625 398.625 C 238.128906 397.921875 238.144531 397.03125 238.601562 396.347656 C 240.191406 393.964844 241.601562 391.425781 242.789062 388.796875 C 243.140625 388.015625 243.945312 387.527344 244.777344 387.566406 L 256.878906 387.988281 L 259.257812 378.667969 L 248.476562 372.933594 C 247.738281 372.539062 247.304688 371.75 247.367188 370.917969 C 247.585938 368.066406 247.5625 365.140625 247.308594 362.21875 C 247.234375 361.382812 247.660156 360.589844 248.394531 360.191406 L 259.128906 354.320312 L 256.652344 345.027344 L 244.558594 345.589844 C 243.710938 345.640625 242.914062 345.148438 242.550781 344.371094 C 241.324219 341.71875 239.890625 339.195312 238.296875 336.863281 C 237.832031 336.1875 237.808594 335.289062 238.234375 334.589844 L 244.683594 323.96875 L 238.058594 317.234375 L 227.871094 323.929688 C 227.148438 324.40625 226.214844 324.386719 225.507812 323.894531 C 223.1875 322.257812 220.722656 320.8125 218.175781 319.601562 C 217.421875 319.238281 216.953125 318.46875 216.984375 317.632812 L 217.402344 305.121094 L 208.441406 302.710938 L 202.867188 313.753906 C 202.484375 314.523438 201.671875 314.972656 200.824219 314.90625 C 198.0625 314.683594 195.222656 314.703125 192.382812 314.964844 C 191.523438 315.046875 190.71875 314.601562 190.324219 313.839844 L 184.628906 302.84375 L 175.695312 305.355469 L 176.25 317.863281 C 176.28125 318.695312 175.820312 319.472656 175.070312 319.839844 C 172.492188 321.101562 170.039062 322.570312 167.773438 324.207031 C 167.074219 324.710938 166.132812 324.738281 165.40625 324.273438 L 155.167969 317.699219 L 148.613281 324.515625 L 155.183594 335.074219 C 155.621094 335.773438 155.605469 336.664062 155.148438 337.351562 C 153.558594 339.734375 152.148438 342.273438 150.964844 344.894531 C 150.613281 345.671875 149.855469 346.171875 148.972656 346.132812 L 136.871094 345.699219 L 134.496094 355.019531 L 145.273438 360.757812 C 146.007812 361.15625 146.445312 361.945312 146.382812 362.769531 C 146.164062 365.621094 146.183594 368.542969 146.441406 371.476562 C 146.515625 372.304688 146.089844 373.101562 145.359375 373.503906 L 134.625 379.371094 L 137.097656 388.664062 L 149.191406 388.097656 C 150.035156 388.050781 150.835938 388.542969 151.195312 389.316406 C 152.425781 391.96875 153.855469 394.492188 155.453125 396.824219 C 155.921875 397.511719 155.945312 398.398438 155.515625 399.105469 L 149.066406 409.722656 L 155.691406 416.453125 L 165.878906 409.761719 C 166.601562 409.28125 167.539062 409.300781 168.242188 409.796875 C 170.558594 411.429688 173.027344 412.878906 175.578125 414.089844 C 176.328125 414.457031 176.796875 415.226562 176.769531 416.058594 Z M 186.414062 435.550781 C 186.234375 435.550781 186.054688 435.53125 185.871094 435.484375 L 173.648438 432.191406 C 172.707031 431.9375 172.0625 431.066406 172.09375 430.089844 L 172.523438 417.277344 C 170.628906 416.304688 168.785156 415.226562 167.007812 414.042969 L 156.558594 420.914062 C 155.71875 421.464844 154.609375 421.34375 153.90625 420.628906 L 144.925781 411.496094 C 144.25 410.820312 144.125 409.761719 144.625 408.9375 L 151.230469 398.0625 C 150.058594 396.253906 148.972656 394.339844 147.996094 392.359375 L 135.605469 392.9375 C 134.570312 392.992188 133.730469 392.339844 133.472656 391.386719 L 130.140625 378.859375 C 129.890625 377.929688 130.3125 376.941406 131.160156 376.476562 L 142.152344 370.46875 C 142.007812 368.238281 141.992188 366.015625 142.101562 363.835938 L 131.0625 357.949219 C 130.210938 357.5 129.777344 356.515625 130.015625 355.578125 L 133.21875 343.019531 C 133.460938 342.0625 134.410156 341.398438 135.328125 341.4375 L 147.734375 341.882812 C 148.683594 339.917969 149.746094 337.996094 150.910156 336.160156 L 144.183594 325.34375 C 143.671875 324.527344 143.785156 323.472656 144.449219 322.777344 L 153.335938 313.546875 C 154.03125 312.824219 155.140625 312.695312 155.984375 313.238281 L 166.492188 319.976562 C 168.238281 318.785156 170.078125 317.679688 171.988281 316.691406 L 171.421875 303.882812 C 171.378906 302.90625 172.015625 302.03125 172.953125 301.765625 L 185.140625 298.339844 C 186.097656 298.0625 187.117188 298.511719 187.574219 299.390625 L 193.414062 310.671875 C 195.539062 310.53125 197.65625 310.515625 199.746094 310.625 L 205.460938 299.289062 C 205.910156 298.402344 206.914062 297.949219 207.882812 298.210938 L 220.101562 301.496094 C 221.046875 301.753906 221.691406 302.621094 221.65625 303.601562 L 221.226562 316.421875 C 223.121094 317.382812 224.96875 318.460938 226.742188 319.648438 L 237.191406 312.777344 C 238.035156 312.226562 239.140625 312.347656 239.84375 313.0625 L 248.828125 322.191406 C 249.5 322.878906 249.621094 323.9375 249.125 324.757812 L 242.519531 335.625 C 243.695312 337.4375 244.777344 339.351562 245.753906 341.332031 L 258.148438 340.75 C 259.15625 340.703125 260.023438 341.351562 260.273438 342.308594 L 263.609375 354.832031 C 263.859375 355.769531 263.441406 356.75 262.589844 357.214844 L 251.597656 363.222656 C 251.742188 365.453125 251.757812 367.671875 251.644531 369.863281 L 262.6875 375.742188 C 263.542969 376.191406 263.976562 377.175781 263.734375 378.113281 L 260.53125 390.667969 C 260.285156 391.625 259.339844 392.285156 258.425781 392.253906 L 246.019531 391.8125 C 245.066406 393.78125 244 395.691406 242.835938 397.53125 L 249.566406 408.347656 C 250.078125 409.160156 249.96875 410.226562 249.300781 410.914062 L 240.414062 420.144531 C 239.71875 420.867188 238.613281 421 237.765625 420.453125 L 227.261719 413.71875 C 225.511719 414.914062 223.671875 416.011719 221.761719 417 L 222.328125 429.808594 C 222.371094 430.785156 221.738281 431.660156 220.796875 431.929688 L 208.613281 435.359375 C 207.652344 435.625 206.636719 435.183594 206.175781 434.300781 L 200.335938 423.019531 C 198.210938 423.164062 196.089844 423.183594 194.007812 423.066406 L 188.289062 434.402344 C 187.929688 435.121094 187.195312 435.550781 186.414062 435.550781 " fill-opacity="1" fill-rule="nonzero"/><path fill="#ffffff" d="M 760.378906 715.324219 C 754.082031 735.300781 732.808594 746.839844 712.863281 741.109375 C 692.917969 735.367188 681.863281 714.53125 688.160156 694.554688 C 694.457031 674.578125 715.734375 663.035156 735.679688 668.769531 C 755.625 674.507812 766.683594 695.347656 760.378906 715.324219 " fill-opacity="1" fill-rule="nonzero"/><path fill="#000000" d="M 723.21875 745.863281 C 719.46875 745.863281 715.671875 745.347656 711.925781 744.269531 C 701.484375 741.265625 692.9375 734.390625 687.839844 724.898438 C 682.679688 715.289062 681.679688 704.167969 685.015625 693.589844 C 691.847656 671.941406 714.984375 659.382812 736.625 665.601562 C 749.707031 669.371094 759.847656 679.371094 763.753906 692.351562 C 764.082031 693.460938 763.453125 694.636719 762.34375 694.972656 C 761.242188 695.300781 760.0625 694.679688 759.726562 693.5625 C 756.238281 681.953125 747.164062 673.011719 735.457031 669.644531 C 716.007812 664.050781 695.167969 675.359375 689.023438 694.859375 C 686.03125 704.34375 686.925781 714.308594 691.542969 722.914062 C 696.09375 731.398438 703.75 737.542969 713.082031 740.230469 C 732.535156 745.824219 753.363281 734.519531 759.515625 715.019531 C 759.863281 713.914062 761.042969 713.300781 762.152344 713.648438 C 763.257812 713.996094 763.875 715.175781 763.523438 716.285156 C 757.882812 734.179688 741.082031 745.863281 723.21875 745.863281 " fill-opacity="1" fill-rule="nonzero"/><path fill="#0047ba" d="M 714.675781 725.683594 L 716.261719 720.667969 C 712.777344 719.496094 709.652344 717.554688 708.011719 715.816406 L 711.542969 710.089844 C 713.375 711.941406 716.132812 713.945312 719.5625 714.9375 C 722.570312 715.796875 724.992188 715.226562 725.660156 713.117188 C 726.292969 711.105469 725.007812 709.355469 721.519531 706.914062 C 716.476562 703.386719 713.457031 699.640625 715.074219 694.515625 C 716.539062 689.867188 720.960938 687.164062 726.953125 687.679688 L 728.539062 682.65625 L 733.707031 684.148438 L 732.234375 688.792969 C 735.722656 689.96875 737.859375 691.386719 739.339844 692.734375 L 735.925781 698.261719 C 734.734375 697.285156 732.691406 695.378906 728.894531 694.285156 C 725.46875 693.296875 723.894531 694.457031 723.425781 695.9375 C 722.875 697.679688 724.371094 699.324219 728.324219 702.300781 C 733.898438 706.324219 735.515625 709.957031 734.011719 714.714844 C 732.535156 719.414062 727.941406 722.46875 721.542969 721.785156 L 719.84375 727.167969 L 714.675781 725.683594 " fill-opacity="1" fill-rule="nonzero"/><path fill="#ffffff" d="M 816.902344 506.753906 C 822.839844 536.417969 803.953125 565.84375 774.722656 572.46875 C 745.488281 579.105469 716.976562 560.429688 711.042969 530.761719 C 705.105469 501.09375 723.992188 471.671875 753.21875 465.042969 C 782.453125 458.410156 810.96875 477.085938 816.902344 506.753906 " fill-opacity="1" fill-rule="nonzero"/><path fill="#000000" d="M 762.777344 577.664062 C 752.015625 577.664062 741.496094 574.582031 732.277344 568.601562 C 719.265625 560.171875 710.402344 547.015625 707.304688 531.554688 C 700.972656 499.890625 721.207031 468.367188 752.414062 461.289062 C 771.289062 457.015625 790.761719 462.511719 804.515625 476.003906 C 805.347656 476.820312 805.363281 478.144531 804.550781 478.976562 C 803.738281 479.808594 802.40625 479.820312 801.582031 479.007812 C 788.847656 466.519531 770.816406 461.429688 753.347656 465.394531 C 724.335938 471.96875 705.53125 501.28125 711.429688 530.730469 C 714.292969 545.066406 722.515625 557.269531 734.5625 565.074219 C 746.445312 572.78125 760.65625 575.285156 774.597656 572.121094 C 803.605469 565.546875 822.414062 536.234375 816.515625 506.785156 C 816.289062 505.652344 817.023438 504.539062 818.164062 504.308594 C 819.292969 504.089844 820.410156 504.824219 820.636719 505.960938 C 826.972656 537.625 806.734375 569.148438 775.523438 576.226562 C 771.28125 577.183594 767.011719 577.664062 762.777344 577.664062 " fill-opacity="1" fill-rule="nonzero"/><path fill="#0047ba" d="M 766.277344 551.695312 L 764.789062 544.238281 C 759.558594 545.175781 754.253906 544.902344 750.972656 543.84375 L 751.457031 534.144531 C 755.058594 535.214844 759.953125 535.824219 764.976562 534.6875 C 769.386719 533.683594 772.054688 531.273438 771.425781 528.136719 C 770.828125 525.15625 767.976562 523.839844 761.863281 523.171875 C 753.03125 522.21875 746.601562 519.582031 745.078125 511.972656 C 743.695312 505.066406 747.40625 498.566406 755.34375 495.046875 L 753.851562 487.59375 L 761.433594 485.875 L 762.816406 492.777344 C 768.039062 491.835938 771.738281 492.148438 774.539062 492.824219 L 774.070312 502.199219 C 771.890625 501.785156 767.96875 500.792969 762.410156 502.054688 C 757.378906 503.195312 756.203125 505.757812 756.636719 507.957031 C 757.15625 510.546875 760.191406 511.578125 767.265625 512.597656 C 777.121094 513.804688 781.695312 517.28125 783.109375 524.339844 C 784.503906 531.320312 780.832031 538.390625 772.25 541.972656 L 773.855469 549.976562 L 766.277344 551.695312 " fill-opacity="1" fill-rule="nonzero"/><path fill="#ffffff" d="M 204.625 1082.082031 L 197.550781 1144.847656 L 224.242188 1155.957031 L 234.074219 1087.535156 L 204.625 1082.082031 " fill-opacity="1" fill-rule="nonzero"/><path fill="#000000" d="M 199.8125 1143.507812 L 222.542969 1152.976562 L 231.703125 1089.238281 L 206.460938 1084.5625 Z M 224.242188 1158.058594 C 223.964844 1158.058594 223.691406 1158.003906 223.433594 1157.898438 L 196.742188 1146.78125 C 195.878906 1146.425781 195.355469 1145.539062 195.460938 1144.605469 L 202.535156 1081.847656 C 202.601562 1081.269531 202.90625 1080.746094 203.375 1080.398438 C 203.839844 1080.046875 204.433594 1079.914062 205.007812 1080.015625 L 234.453125 1085.46875 C 235.5625 1085.679688 236.3125 1086.71875 236.152344 1087.835938 L 226.320312 1156.257812 C 226.226562 1156.894531 225.84375 1157.460938 225.277344 1157.785156 C 224.960938 1157.96875 224.601562 1158.058594 224.242188 1158.058594 " fill-opacity="1" fill-rule="nonzero"/><path fill="#0047ba" d="M 191.335938 1138.917969 C 190.496094 1144.867188 189.140625 1155.898438 189.027344 1165.796875 C 188.957031 1172.011719 193.621094 1177.253906 199.785156 1178.046875 C 217.210938 1180.28125 256.738281 1182.726562 290.410156 1179.667969 C 292.714844 1179.460938 296.789062 1177.785156 297.925781 1172.027344 C 301.738281 1152.703125 268.117188 1147.96875 231.257812 1133.945312 C 229.8125 1133.398438 228.179688 1133.722656 227.066406 1134.796875 L 223.09375 1138.644531 C 219.117188 1142.5 213.21875 1143.589844 208.128906 1141.414062 L 196.035156 1136.261719 C 193.976562 1135.386719 191.652344 1136.699219 191.335938 1138.917969 " fill-opacity="1" fill-rule="nonzero"/><path fill="#000000" d="M 193.417969 1139.207031 C 192.609375 1144.929688 191.238281 1155.996094 191.128906 1165.824219 C 191.070312 1170.941406 194.90625 1175.296875 200.054688 1175.960938 C 218.035156 1178.265625 256.886719 1180.597656 290.21875 1177.574219 C 290.980469 1177.511719 294.824219 1176.894531 295.863281 1171.621094 C 298.421875 1158.644531 280.429688 1152.742188 255.53125 1144.574219 C 247.496094 1141.933594 239.1875 1139.214844 230.507812 1135.910156 C 229.824219 1135.652344 229.046875 1135.804688 228.527344 1136.308594 L 224.558594 1140.152344 C 219.960938 1144.605469 213.183594 1145.863281 207.300781 1143.351562 L 195.210938 1138.195312 C 194.703125 1137.980469 194.273438 1138.144531 194.066406 1138.257812 C 193.859375 1138.378906 193.496094 1138.65625 193.417969 1139.207031 Z M 255.332031 1183.210938 C 232.65625 1183.210938 211.5 1181.667969 199.519531 1180.132812 C 192.253906 1179.199219 186.84375 1173.023438 186.925781 1165.773438 C 187.042969 1155.707031 188.4375 1144.441406 189.253906 1138.625 C 189.5 1136.914062 190.5 1135.449219 192.003906 1134.597656 C 193.503906 1133.75 195.273438 1133.652344 196.859375 1134.332031 L 208.953125 1139.488281 C 213.273438 1141.324219 218.253906 1140.40625 221.632812 1137.132812 L 225.605469 1133.285156 C 227.289062 1131.65625 229.800781 1131.148438 232.003906 1131.984375 C 240.589844 1135.25 248.851562 1137.960938 256.839844 1140.578125 C 282.78125 1149.089844 303.265625 1155.808594 299.988281 1172.433594 C 298.730469 1178.804688 294.144531 1181.445312 290.601562 1181.761719 C 279.136719 1182.800781 267.03125 1183.210938 255.332031 1183.210938 " fill-opacity="1" fill-rule="nonzero"/><path fill="#ffffff" d="M 189.050781 1164.308594 C 189.050781 1164.308594 189.03125 1165.308594 189.027344 1165.796875 C 188.957031 1172.011719 193.621094 1177.253906 199.785156 1178.046875 C 217.210938 1180.28125 256.738281 1182.726562 290.410156 1179.667969 C 292.714844 1179.460938 296.789062 1177.785156 297.925781 1172.027344 C 298.273438 1170.265625 298.058594 1167.082031 298.058594 1167.082031 L 295.671875 1167.199219 C 261.648438 1168.882812 227.546875 1168.0625 193.644531 1164.761719 L 189.050781 1164.308594 " fill-opacity="1" fill-rule="nonzero"/><path fill="#000000" d="M 191.152344 1166.621094 C 191.476562 1171.390625 195.179688 1175.335938 200.054688 1175.960938 C 218.035156 1178.265625 256.886719 1180.597656 290.21875 1177.574219 C 290.980469 1177.511719 294.824219 1176.894531 295.863281 1171.621094 C 295.984375 1171.015625 296.023438 1170.125 296.027344 1169.285156 L 295.773438 1169.300781 C 261.765625 1170.980469 227.332031 1170.15625 193.441406 1166.851562 Z M 255.332031 1183.210938 C 232.65625 1183.210938 211.5 1181.667969 199.515625 1180.132812 C 192.253906 1179.199219 186.84375 1173.023438 186.925781 1165.773438 L 186.953125 1164.265625 C 186.964844 1163.679688 187.21875 1163.128906 187.65625 1162.742188 C 188.09375 1162.351562 188.667969 1162.167969 189.253906 1162.214844 L 193.847656 1162.667969 C 227.535156 1165.953125 261.761719 1166.769531 295.566406 1165.101562 L 297.957031 1164.980469 C 299.136719 1164.921875 300.082031 1165.796875 300.15625 1166.941406 C 300.183594 1167.296875 300.378906 1170.453125 299.988281 1172.433594 C 298.730469 1178.804688 294.144531 1181.445312 290.601562 1181.761719 C 279.136719 1182.800781 267.03125 1183.210938 255.332031 1183.210938 " fill-opacity="1" fill-rule="nonzero"/><path fill="#000000" d="M 239.710938 1156.914062 C 239.171875 1156.914062 238.636719 1156.710938 238.226562 1156.300781 C 237.40625 1155.480469 237.40625 1154.148438 238.226562 1153.332031 L 251.160156 1140.394531 C 251.976562 1139.570312 253.308594 1139.570312 254.128906 1140.394531 C 254.949219 1141.210938 254.949219 1142.542969 254.128906 1143.363281 L 241.195312 1156.300781 C 240.785156 1156.710938 240.25 1156.914062 239.710938 1156.914062 " fill-opacity="1" fill-rule="nonzero"/><path fill="#000000" d="M 252.414062 1158.261719 C 251.890625 1158.261719 251.367188 1158.0625 250.957031 1157.667969 C 250.121094 1156.871094 250.097656 1155.539062 250.902344 1154.699219 L 261.234375 1143.964844 C 262.039062 1143.125 263.371094 1143.101562 264.207031 1143.90625 C 265.039062 1144.710938 265.066406 1146.046875 264.261719 1146.882812 L 253.929688 1157.617188 C 253.515625 1158.042969 252.96875 1158.261719 252.414062 1158.261719 " fill-opacity="1" fill-rule="nonzero"/><path fill="#000000" d="M 297.132812 669.421875 C 297.132812 669.421875 280.886719 678.851562 274.542969 734.144531 C 268.199219 789.4375 261.308594 871.542969 230.585938 918.332031 C 196.269531 970.597656 198.417969 1057.082031 193.292969 1114.191406 C 193.042969 1116.949219 195.164062 1119.339844 197.929688 1119.433594 L 231.742188 1120.597656 C 233.898438 1120.667969 235.835938 1119.316406 236.5 1117.261719 C 242.539062 1098.546875 272.59375 1008.265625 306.351562 955.917969 C 342.027344 900.597656 385.410156 756.992188 385.410156 756.992188 C 385.410156 756.992188 377.355469 720.699219 376.238281 685.910156 C 375.121094 651.117188 297.132812 669.421875 297.132812 669.421875 " fill-opacity="1" fill-rule="nonzero"/><path fill="#ffffff" d="M 493.433594 892.324219 L 479.179688 953.847656 L 504.410156 967.96875 L 522.0625 901.132812 L 493.433594 892.324219 " fill-opacity="1" fill-rule="nonzero"/><path fill="#000000" d="M 481.578125 952.792969 L 503.070312 964.808594 L 519.511719 902.546875 L 494.96875 895 Z M 504.410156 970.066406 C 504.058594 970.066406 503.703125 969.976562 503.386719 969.796875 L 478.152344 955.683594 C 477.332031 955.226562 476.914062 954.289062 477.128906 953.375 L 491.386719 891.847656 C 491.519531 891.28125 491.882812 890.792969 492.390625 890.503906 C 492.894531 890.210938 493.5 890.148438 494.058594 890.320312 L 522.675781 899.128906 C 523.753906 899.457031 524.375 900.578125 524.089844 901.667969 L 506.441406 968.503906 C 506.277344 969.125 505.828125 969.644531 505.230469 969.898438 C 504.972656 970.007812 504.691406 970.066406 504.410156 970.066406 " fill-opacity="1" fill-rule="nonzero"/><path fill="#0047ba" d="M 476.148438 950.214844 C 475.304688 956.164062 469.960938 967.4375 469.84375 977.339844 C 469.777344 983.554688 474.441406 988.792969 480.605469 989.585938 C 498.03125 991.820312 541.550781 994.023438 575.21875 990.972656 C 577.527344 990.765625 581.597656 989.082031 582.730469 983.324219 C 586.542969 964.003906 552.925781 959.265625 516.0625 945.242188 C 514.621094 944.699219 512.984375 945.023438 511.875 946.101562 L 507.898438 949.949219 C 503.925781 953.800781 498.027344 954.890625 492.933594 952.71875 L 480.847656 947.566406 C 478.785156 946.683594 476.460938 948.003906 476.148438 950.214844 " fill-opacity="1" fill-rule="nonzero"/><path fill="#000000" d="M 478.226562 950.515625 C 477.890625 952.886719 476.949219 955.867188 475.855469 959.308594 C 474.144531 964.710938 472.011719 971.441406 471.945312 977.367188 C 471.886719 982.480469 475.722656 986.839844 480.875 987.496094 C 496.664062 989.527344 540.496094 992.011719 575.027344 988.882812 C 575.789062 988.808594 579.628906 988.195312 580.667969 982.917969 C 583.234375 969.945312 565.242188 964.039062 540.339844 955.875 C 532.300781 953.234375 523.996094 950.515625 515.320312 947.210938 C 514.628906 946.949219 513.855469 947.109375 513.335938 947.609375 L 509.367188 951.457031 C 504.769531 955.90625 497.996094 957.160156 492.109375 954.648438 L 480.023438 949.492188 C 479.507812 949.277344 479.085938 949.441406 478.875 949.554688 C 478.667969 949.679688 478.304688 949.957031 478.226562 950.515625 Z M 537.472656 994.558594 C 514.6875 994.558594 492.542969 993.238281 480.332031 991.671875 C 473.078125 990.738281 467.664062 984.570312 467.746094 977.3125 C 467.820312 970.769531 470.054688 963.710938 471.847656 958.039062 C 472.882812 954.777344 473.777344 951.953125 474.0625 949.921875 C 474.308594 948.210938 475.304688 946.746094 476.808594 945.898438 C 478.308594 945.054688 480.082031 944.953125 481.667969 945.628906 L 493.761719 950.789062 C 498.082031 952.632812 503.070312 951.707031 506.441406 948.4375 L 510.410156 944.589844 C 512.097656 942.960938 514.609375 942.445312 516.808594 943.285156 C 525.402344 946.550781 533.660156 949.257812 541.652344 951.882812 C 567.585938 960.394531 588.070312 967.109375 584.800781 983.730469 C 583.535156 990.105469 578.953125 992.742188 575.410156 993.066406 C 563.707031 994.125 550.484375 994.558594 537.472656 994.558594 " fill-opacity="1" fill-rule="nonzero"/><path fill="#ffffff" d="M 470.796875 975.4375 C 470.796875 975.4375 470.773438 976.445312 470.765625 976.925781 C 470.695312 983.140625 475.363281 988.378906 481.523438 989.171875 C 498.953125 991.410156 541.550781 994.023438 575.21875 990.972656 C 577.527344 990.765625 581.597656 989.082031 582.730469 983.324219 C 583.082031 981.5625 582.871094 978.386719 582.871094 978.386719 L 580.480469 978.5 C 546.457031 980.179688 512.359375 979.363281 478.449219 976.058594 L 470.796875 975.4375 " fill-opacity="1" fill-rule="nonzero"/><path fill="#000000" d="M 472.890625 977.710938 C 473.199219 982.5 476.902344 986.460938 481.792969 987.085938 C 497.058594 989.046875 539.9375 992.066406 575.027344 988.882812 C 575.789062 988.808594 579.628906 988.195312 580.667969 982.917969 C 580.792969 982.320312 580.828125 981.429688 580.828125 980.585938 L 580.582031 980.597656 C 546.570312 982.28125 512.136719 981.457031 478.246094 978.152344 Z M 540.710938 994.46875 C 515.472656 994.46875 491.816406 992.609375 481.261719 991.261719 C 474 990.324219 468.582031 984.15625 468.667969 976.902344 L 468.691406 975.398438 C 468.703125 974.8125 468.957031 974.269531 469.382812 973.878906 C 469.8125 973.488281 470.371094 973.300781 470.960938 973.34375 L 478.621094 973.964844 C 512.347656 977.25 546.570312 978.070312 580.371094 976.398438 L 582.761719 976.285156 C 583.910156 976.226562 584.886719 977.097656 584.964844 978.238281 C 584.988281 978.59375 585.1875 981.753906 584.800781 983.730469 C 583.535156 990.105469 578.953125 992.742188 575.410156 993.066406 C 564.25 994.074219 552.3125 994.46875 540.710938 994.46875 " fill-opacity="1" fill-rule="nonzero"/><path fill="#000000" d="M 524.515625 968.21875 C 523.980469 968.21875 523.445312 968.011719 523.03125 967.605469 C 522.214844 966.78125 522.214844 965.449219 523.03125 964.628906 L 535.96875 951.695312 C 536.785156 950.871094 538.121094 950.871094 538.9375 951.695312 C 539.753906 952.511719 539.753906 953.84375 538.9375 954.660156 L 526.003906 967.605469 C 525.59375 968.011719 525.054688 968.21875 524.515625 968.21875 " fill-opacity="1" fill-rule="nonzero"/><path fill="#000000" d="M 537.226562 969.558594 C 536.695312 969.558594 536.171875 969.367188 535.765625 968.976562 C 534.929688 968.171875 534.902344 966.835938 535.707031 966 L 546.046875 955.265625 C 546.851562 954.425781 548.175781 954.40625 549.015625 955.207031 C 549.851562 956.011719 549.875 957.34375 549.070312 958.183594 L 538.742188 968.917969 C 538.324219 969.339844 537.773438 969.558594 537.226562 969.558594 " fill-opacity="1" fill-rule="nonzero"/><path fill="#000000" d="M 358.316406 761.007812 C 358.316406 761.007812 438.03125 784.722656 522.816406 739.199219 C 525.320312 737.851562 527.976562 740.722656 526.460938 743.125 C 522.195312 749.871094 509.992188 766.460938 503.625 783.734375 C 495.789062 805.011719 484.601562 887.625 479.148438 921.875 C 478.652344 924.96875 480.988281 927.792969 484.117188 927.894531 L 516.714844 928.953125 C 518.777344 929.015625 520.679688 927.867188 521.574219 926.011719 C 533.335938 901.507812 611.699219 736.699219 608.769531 700.773438 C 605.601562 661.9375 554.339844 663.914062 535.855469 662.730469 C 516.722656 661.5 364.167969 665.058594 364.167969 665.058594 L 358.316406 761.007812 " fill-opacity="1" fill-rule="nonzero"/><path fill="#ffffff" d="M 543.449219 302.261719 L 493.488281 337.179688 L 497.78125 346.449219 L 556.742188 330.929688 L 543.449219 302.261719 " fill-opacity="1" fill-rule="nonzero"/><path fill="#000000" d="M 496.128906 337.894531 L 498.949219 343.972656 L 553.777344 329.535156 L 542.59375 305.417969 Z M 497.785156 348.554688 C 496.984375 348.554688 496.226562 348.089844 495.875 347.332031 L 491.582031 338.0625 C 491.152344 337.140625 491.445312 336.046875 492.28125 335.460938 L 542.242188 300.539062 C 542.75 300.183594 543.394531 300.066406 543.992188 300.230469 C 544.589844 300.394531 545.09375 300.808594 545.351562 301.375 L 558.644531 330.042969 C 558.914062 330.609375 558.90625 331.261719 558.636719 331.816406 C 558.375 332.382812 557.878906 332.800781 557.273438 332.960938 L 498.324219 348.480469 C 498.140625 348.527344 497.957031 348.554688 497.785156 348.554688 " fill-opacity="1" fill-rule="nonzero"/><path fill="#ffffff" d="M 719.304688 182.425781 L 539.285156 299.199219 L 556.171875 335.625 L 761.46875 272.78125 L 719.304688 182.425781 " fill-opacity="1" fill-rule="nonzero"/><path fill="#000000" d="M 541.957031 299.964844 L 557.3125 333.078125 L 758.554688 271.472656 L 718.425781 185.496094 Z M 556.175781 337.730469 C 555.378906 337.730469 554.621094 337.269531 554.269531 336.507812 L 537.378906 300.074219 C 536.941406 299.128906 537.265625 298.003906 538.140625 297.429688 L 718.164062 180.660156 C 718.671875 180.332031 719.304688 180.234375 719.894531 180.40625 C 720.476562 180.566406 720.960938 180.980469 721.214844 181.53125 L 763.378906 271.886719 C 763.636719 272.4375 763.644531 273.070312 763.394531 273.628906 C 763.148438 274.179688 762.667969 274.609375 762.085938 274.785156 L 556.789062 337.632812 C 556.589844 337.703125 556.378906 337.730469 556.175781 337.730469 " fill-opacity="1" fill-rule="nonzero"/><path fill="#0047ba" d="M 761.46875 282.5625 C 753.476562 286.492188 743.8125 283.203125 739.886719 275.210938 L 700.191406 194.496094 C 696.261719 186.511719 699.550781 176.84375 707.542969 172.917969 C 715.535156 168.988281 725.195312 172.277344 729.132812 180.269531 L 768.820312 260.984375 C 772.75 268.972656 769.460938 278.636719 761.46875 282.5625 " fill-opacity="1" fill-rule="nonzero"/><path fill="#ffffff" d="M 588.667969 359.332031 C 588.667969 359.332031 584.589844 314.855469 583.410156 307.105469 C 582.226562 299.355469 587.195312 298.003906 589.605469 298.847656 C 592.714844 299.945312 595.140625 306.464844 596.617188 311.703125 C 597.742188 315.675781 601.4375 318.355469 605.550781 318.113281 L 623.015625 316.867188 L 611.636719 360.09375 L 588.667969 359.332031 " fill-opacity="1" fill-rule="nonzero"/><path fill="#000000" d="M 590.601562 357.292969 L 610.042969 357.929688 L 620.246094 319.164062 L 605.710938 320.203125 C 600.585938 320.507812 596.007812 317.242188 594.597656 312.273438 C 592.417969 304.535156 590.171875 301.273438 588.902344 300.828125 C 588.414062 300.652344 587.378906 300.632812 586.570312 301.308594 C 585.472656 302.214844 585.09375 304.160156 585.492188 306.785156 C 586.542969 313.6875 589.800781 348.691406 590.601562 357.292969 Z M 611.648438 362.1875 C 611.621094 362.1875 611.601562 362.1875 611.574219 362.1875 L 588.609375 361.425781 C 587.550781 361.390625 586.6875 360.574219 586.585938 359.515625 C 586.542969 359.070312 582.492188 315.019531 581.339844 307.417969 C 580.535156 302.109375 582.28125 299.402344 583.894531 298.070312 C 586.066406 296.277344 588.703125 296.296875 590.308594 296.863281 C 593.523438 297.996094 596.257812 302.660156 598.644531 311.125 C 599.507812 314.1875 602.3125 316.195312 605.433594 316.007812 L 622.875 314.769531 C 623.550781 314.722656 624.203125 315.003906 624.636719 315.523438 C 625.074219 316.042969 625.230469 316.746094 625.054688 317.398438 L 613.675781 360.625 C 613.433594 361.546875 612.597656 362.1875 611.648438 362.1875 " fill-opacity="1" fill-rule="nonzero"/><path fill="#ffffff" d="M 131.476562 712.386719 C 134.347656 708.960938 138.0625 704.953125 141.261719 701.792969 C 145.382812 697.71875 159.164062 670.890625 159.164062 670.890625 L 183.261719 677.722656 C 183.261719 677.722656 171.996094 697.425781 174.703125 707.238281 C 177.222656 716.378906 179.207031 735.679688 165.828125 749.730469 C 164.292969 751.34375 160.929688 751.765625 159.765625 751.496094 C 156.273438 750.675781 156.199219 745.832031 157.910156 742.679688 L 162.742188 733.773438 C 163.167969 732.996094 162.527344 732.0625 161.644531 732.191406 C 158.027344 732.699219 150.078125 735.019531 141.757812 745.28125 C 135.355469 753.175781 122.667969 770.800781 118.402344 767.882812 C 110.785156 762.667969 115.765625 731.109375 131.476562 712.386719 " fill-opacity="1" fill-rule="nonzero"/><path fill="#000000" d="M 133.082031 713.738281 C 121.636719 727.375 115.652344 748.964844 117.242188 760.5625 C 117.628906 763.394531 118.460938 765.375 119.589844 766.148438 C 122.484375 766.449219 132.914062 753.101562 136.863281 748.070312 C 138.058594 746.546875 139.164062 745.140625 140.125 743.953125 C 148.773438 733.289062 157.136719 730.703125 161.351562 730.113281 C 162.542969 729.941406 163.71875 730.453125 164.410156 731.441406 C 165.097656 732.4375 165.167969 733.714844 164.589844 734.777344 L 159.757812 743.683594 C 158.902344 745.253906 158.667969 747.351562 159.210938 748.5625 C 159.496094 749.199219 159.914062 749.371094 160.242188 749.445312 C 160.9375 749.585938 163.417969 749.210938 164.308594 748.28125 C 178.722656 733.140625 173.808594 711.902344 172.675781 707.800781 C 170.324219 699.269531 177.203125 684.71875 180.164062 679.03125 L 160.246094 673.386719 C 157.066406 679.511719 146.535156 699.53125 142.738281 703.285156 C 139.550781 706.4375 135.851562 710.441406 133.082031 713.738281 Z M 119.507812 770.335938 C 118.6875 770.335938 117.925781 770.101562 117.214844 769.613281 C 115.035156 768.121094 113.644531 765.269531 113.078125 761.132812 C 111.371094 748.691406 117.304688 726 129.863281 711.035156 C 129.863281 711.035156 129.863281 711.035156 129.867188 711.035156 C 132.753906 707.589844 136.460938 703.578125 139.78125 700.296875 C 142.636719 697.484375 151.820312 680.59375 157.296875 669.9375 C 157.753906 669.046875 158.777344 668.601562 159.738281 668.875 L 183.832031 675.699219 C 184.453125 675.878906 184.960938 676.328125 185.207031 676.929688 C 185.449219 677.527344 185.402344 678.203125 185.085938 678.761719 C 182.070312 684.039062 174.699219 699.328125 176.726562 706.679688 C 180.308594 719.671875 179.726562 738.183594 167.351562 751.175781 C 165.175781 753.460938 160.9375 753.929688 159.285156 753.542969 C 157.523438 753.132812 156.136719 751.96875 155.378906 750.285156 C 154.300781 747.878906 154.574219 744.417969 156.0625 741.675781 L 159.847656 734.710938 C 156.179688 735.707031 149.921875 738.546875 143.390625 746.601562 C 142.4375 747.773438 141.347656 749.160156 140.167969 750.667969 C 131.03125 762.308594 124.316406 770.335938 119.507812 770.335938 " fill-opacity="1" fill-rule="nonzero"/><path fill="#0047ba" d="M 153.867188 681.496094 L 176.527344 693.257812 C 179.402344 694.746094 182.933594 693.652344 184.453125 690.792969 C 195.988281 669.058594 245.953125 578.941406 298.246094 549.195312 C 302.089844 547.003906 307.875 549.320312 307.652344 553.730469 C 306.957031 567.585938 298.359375 618.929688 295.742188 666.507812 C 295.394531 672.785156 299.726562 678.351562 305.90625 679.492188 L 328.785156 683.734375 C 368.6875 693.027344 406.097656 682.675781 422.582031 676.792969 C 427.625 675 430.984375 670.175781 430.835938 664.828125 C 430.578125 655.332031 454.847656 587.035156 470.980469 554.910156 C 477.265625 542.40625 486.976562 539.703125 495.363281 538.898438 C 523.328125 536.230469 563.46875 538.03125 597.75 522.605469 C 604.410156 519.609375 609.203125 513.566406 610.476562 506.367188 C 614.066406 486.113281 626.519531 417.152344 621.265625 362.667969 C 620.972656 359.566406 618.453125 357.160156 615.34375 357.007812 L 585.015625 355.539062 C 582.058594 355.390625 579.402344 357.34375 578.664062 360.21875 C 574.367188 376.914062 560.265625 433.234375 551.464844 450.824219 C 547.679688 458.394531 537.640625 460.164062 533.289062 458.933594 C 524.820312 456.539062 506.089844 451.382812 471.152344 442.367188 C 428.484375 431.355469 411.164062 430.070312 381.789062 428.28125 C 343.863281 425.972656 289.308594 447.898438 252.601562 484.613281 C 223.398438 513.816406 173.589844 608.523438 151.003906 674.324219 C 150.050781 677.09375 151.265625 680.148438 153.867188 681.496094 " fill-opacity="1" fill-rule="nonzero"/><path fill="#ffffff" d="M 441.019531 367.847656 L 393.769531 433.773438 C 393.1875 434.574219 386.9375 434.355469 379.882812 435.074219 C 372.265625 435.839844 363.832031 437.515625 363.832031 437.515625 L 376.894531 446.171875 C 392.878906 456.753906 411.855469 462.226562 430.984375 460.933594 C 436.300781 460.574219 441.398438 459.714844 445.929688 458.304688 L 470.296875 450.636719 L 441.441406 441.890625 L 458.980469 404.664062 L 441.019531 367.847656 " fill-opacity="1" fill-rule="nonzero"/><path fill="#000000" d="M 392.699219 432.015625 Z M 369.355469 438.65625 L 378.054688 444.421875 C 393.953125 454.949219 412.703125 460.066406 430.84375 458.835938 C 436.203125 458.476562 441.066406 457.617188 445.300781 456.300781 L 463.179688 450.675781 L 440.832031 443.902344 C 440.246094 443.722656 439.769531 443.304688 439.523438 442.746094 C 439.273438 442.191406 439.28125 441.546875 439.542969 440.996094 L 456.648438 404.683594 L 440.671875 371.929688 L 395.476562 435 C 394.535156 436.296875 392.855469 436.378906 387.859375 436.632812 C 385.652344 436.742188 382.90625 436.882812 380.09375 437.160156 C 376.359375 437.539062 372.386719 438.148438 369.355469 438.65625 Z M 425.519531 463.21875 C 408.246094 463.21875 390.765625 457.878906 375.734375 447.921875 L 362.671875 439.273438 C 361.960938 438.804688 361.605469 437.945312 361.769531 437.109375 C 361.933594 436.277344 362.585938 435.625 363.421875 435.453125 C 363.773438 435.386719 372.042969 433.753906 379.671875 432.980469 C 382.589844 432.691406 385.394531 432.542969 387.648438 432.433594 C 389.476562 432.339844 391.519531 432.238281 392.390625 432.085938 L 439.3125 366.621094 C 439.742188 366.019531 440.464844 365.6875 441.195312 365.753906 C 441.933594 365.808594 442.582031 366.261719 442.90625 366.925781 L 460.867188 403.746094 C 461.148438 404.316406 461.148438 404.980469 460.882812 405.558594 L 444.378906 440.585938 L 470.902344 448.625 C 471.792969 448.894531 472.394531 449.703125 472.398438 450.621094 C 472.40625 451.546875 471.808594 452.367188 470.929688 452.636719 L 446.558594 460.308594 C 442.003906 461.726562 436.8125 462.640625 431.128906 463.027344 C 429.265625 463.152344 427.390625 463.21875 425.519531 463.21875 " fill-opacity="1" fill-rule="nonzero"/><path fill="#ffffff" d="M 455.378906 406.117188 C 457.613281 406.402344 459.914062 406.5 462.28125 406.371094 L 466.484375 406.152344 C 466.484375 406.152344 490.605469 402.957031 494.472656 396.976562 C 498.34375 390.992188 490.164062 369.285156 490.164062 369.285156 C 493.894531 366.382812 494.722656 362.71875 493.933594 361.488281 C 493.128906 360.265625 487.753906 358.375 485.574219 356.769531 C 483.800781 355.464844 479.8125 345.070312 478.101562 340.609375 C 478.101562 340.609375 474.941406 322.984375 446.679688 325.277344 C 381.910156 330.519531 428.476562 390.460938 428.476562 390.460938 C 429.480469 391.625 430.515625 392.746094 431.582031 393.800781 L 455.378906 406.117188 " fill-opacity="1" fill-rule="nonzero"/><path fill="#000000" d="M 492.09375 362.480469 Z M 492.257812 362.757812 Z M 460.242188 408.527344 C 456.617188 408.527344 453.046875 408.046875 449.609375 407.082031 C 448.496094 406.773438 447.839844 405.613281 448.148438 404.5 C 448.46875 403.378906 449.617188 402.726562 450.746094 403.035156 C 454.410156 404.0625 458.257812 404.480469 462.171875 404.273438 L 466.289062 404.0625 C 475.910156 402.777344 490.414062 399.382812 492.707031 395.835938 C 494.976562 392.320312 491.441406 378.628906 488.199219 370.023438 C 487.871094 369.160156 488.148438 368.191406 488.871094 367.625 C 491.519531 365.566406 492.121094 363.34375 492.109375 362.628906 C 491.515625 362.199219 489.925781 361.433594 488.832031 360.914062 C 487.175781 360.121094 485.460938 359.304688 484.320312 358.464844 C 482.660156 357.238281 480.445312 352.605469 476.148438 341.363281 C 476.09375 341.238281 476.058594 341.113281 476.035156 340.980469 C 475.917969 340.355469 472.730469 325.269531 446.851562 327.371094 C 431.019531 328.652344 420.933594 333.175781 416.882812 340.8125 C 410.019531 353.75 421.042969 373.261719 427.625 384.917969 L 428.214844 385.960938 C 428.785156 386.96875 428.425781 388.253906 427.414062 388.820312 C 426.40625 389.386719 425.121094 389.03125 424.550781 388.023438 L 423.96875 386.988281 C 416.957031 374.578125 405.226562 353.816406 413.171875 338.839844 C 417.941406 329.859375 429.15625 324.589844 446.511719 323.179688 C 474.484375 320.917969 479.554688 337.714844 480.117188 339.992188 C 484.453125 351.320312 486.183594 354.46875 486.867188 355.125 C 487.640625 355.683594 489.234375 356.449219 490.644531 357.121094 C 493.382812 358.433594 494.964844 359.230469 495.695312 360.347656 C 497.066406 362.46875 496.097656 366.609375 492.636719 369.925781 C 494.714844 375.695312 500.085938 392.171875 496.234375 398.117188 C 492.054688 404.582031 470.949219 407.683594 466.761719 408.238281 C 466.707031 408.242188 466.648438 408.25 466.59375 408.257812 L 462.390625 408.476562 C 461.671875 408.515625 460.960938 408.527344 460.242188 408.527344 " fill-opacity="1" fill-rule="nonzero"/><path fill="#000000" d="M 433.457031 317.613281 C 440.519531 316.21875 448.570312 317.3125 452.007812 316.144531 C 457.554688 314.253906 457.421875 307.867188 465.25 307.238281 C 472.128906 306.683594 478.527344 307.96875 481.996094 313.238281 C 482.578125 314.113281 483.078125 315.09375 483.488281 316.203125 C 488.910156 331.09375 481.421875 338.277344 478.105469 340.609375 C 478.105469 340.609375 457.132812 350.683594 453.511719 353.582031 C 450.125 356.285156 446.132812 362.734375 448.3125 372.066406 C 448.589844 373.265625 448.011719 374.511719 446.933594 375.113281 C 445.671875 375.820312 444.066406 375.464844 443.242188 374.277344 C 440.640625 370.523438 434.933594 363.253906 430.703125 364.929688 C 425.769531 366.886719 424.097656 379.28125 433.164062 382.34375 C 435.953125 383.292969 436.875 386.949219 434.863281 389.101562 C 433.195312 390.890625 430.644531 392.140625 426.796875 391.164062 C 426.796875 391.164062 404.234375 375.078125 401.5625 353.878906 C 398.890625 332.679688 424.058594 319.464844 433.457031 317.613281 " fill-opacity="1" fill-rule="nonzero"/><path fill="#000000" d="M 1110.875 459.648438 C 1107.503906 459.648438 1104.765625 462.386719 1104.765625 465.757812 C 1104.765625 469.121094 1107.503906 471.863281 1110.875 471.863281 C 1114.242188 471.863281 1116.976562 469.121094 1116.976562 465.757812 C 1116.976562 462.386719 1114.242188 459.648438 1110.875 459.648438 Z M 1110.875 476.066406 C 1105.191406 476.066406 1100.558594 471.433594 1100.558594 465.757812 C 1100.558594 460.074219 1105.191406 455.441406 1110.875 455.441406 C 1116.550781 455.441406 1121.183594 460.074219 1121.183594 465.757812 C 1121.183594 471.433594 1116.550781 476.066406 1110.875 476.066406 " fill-opacity="1" fill-rule="nonzero"/><path fill="#000000" d="M 1030.859375 480.996094 C 1030.320312 480.996094 1029.789062 480.785156 1029.375 480.375 L 1023.226562 474.230469 C 1022.414062 473.410156 1022.414062 472.085938 1023.226562 471.257812 C 1024.054688 470.4375 1025.378906 470.4375 1026.199219 471.257812 L 1032.339844 477.402344 C 1033.167969 478.21875 1033.167969 479.550781 1032.339844 480.375 C 1031.9375 480.785156 1031.398438 480.996094 1030.859375 480.996094 " fill-opacity="1" fill-rule="nonzero"/><path fill="#000000" d="M 1052.363281 502.492188 C 1051.824219 502.492188 1051.28125 502.285156 1050.871094 501.871094 L 1044.738281 495.722656 C 1043.914062 494.910156 1043.914062 493.574219 1044.738281 492.757812 C 1045.550781 491.9375 1046.886719 491.9375 1047.703125 492.757812 L 1053.851562 498.902344 C 1054.667969 499.726562 1054.667969 501.058594 1053.851562 501.871094 C 1053.441406 502.285156 1052.90625 502.492188 1052.363281 502.492188 " fill-opacity="1" fill-rule="nonzero"/><path fill="#000000" d="M 1024.710938 502.488281 C 1024.179688 502.488281 1023.640625 502.285156 1023.226562 501.871094 C 1022.414062 501.054688 1022.414062 499.722656 1023.226562 498.898438 L 1029.375 492.757812 C 1030.195312 491.9375 1031.527344 491.9375 1032.339844 492.757812 C 1033.167969 493.585938 1033.167969 494.910156 1032.339844 495.730469 L 1026.199219 501.871094 C 1025.789062 502.285156 1025.253906 502.488281 1024.710938 502.488281 " fill-opacity="1" fill-rule="nonzero"/><path fill="#000000" d="M 1046.222656 480.988281 C 1045.679688 480.988281 1045.140625 480.78125 1044.738281 480.367188 C 1043.914062 479.554688 1043.914062 478.21875 1044.738281 477.398438 L 1050.871094 471.253906 C 1051.703125 470.441406 1053.027344 470.441406 1053.851562 471.253906 C 1054.667969 472.078125 1054.667969 473.40625 1053.851562 474.226562 L 1047.703125 480.375 C 1047.289062 480.78125 1046.757812 480.988281 1046.222656 480.988281 " fill-opacity="1" fill-rule="nonzero"/><path fill="#000000" d="M 329.035156 167.953125 C 328.496094 167.953125 327.957031 167.746094 327.550781 167.335938 L 321.40625 161.1875 C 320.585938 160.371094 320.585938 159.042969 321.40625 158.222656 C 322.226562 157.398438 323.558594 157.398438 324.375 158.222656 L 330.519531 164.363281 C 331.339844 165.183594 331.339844 166.515625 330.519531 167.335938 C 330.109375 167.746094 329.570312 167.953125 329.035156 167.953125 " fill-opacity="1" fill-rule="nonzero"/><path fill="#000000" d="M 350.535156 189.445312 C 350 189.445312 349.460938 189.246094 349.050781 188.835938 L 342.910156 182.691406 C 342.085938 181.871094 342.085938 180.542969 342.910156 179.722656 C 343.730469 178.902344 345.058594 178.902344 345.878906 179.722656 L 352.023438 185.863281 C 352.84375 186.6875 352.84375 188.015625 352.023438 188.835938 C 351.609375 189.246094 351.074219 189.445312 350.535156 189.445312 " fill-opacity="1" fill-rule="nonzero"/><path fill="#000000" d="M 322.894531 189.445312 C 322.355469 189.445312 321.816406 189.246094 321.40625 188.835938 C 320.585938 188.015625 320.585938 186.6875 321.40625 185.863281 L 327.550781 179.722656 C 328.371094 178.902344 329.699219 178.902344 330.519531 179.722656 C 331.34375 180.542969 331.34375 181.871094 330.519531 182.691406 L 324.375 188.835938 C 323.96875 189.246094 323.429688 189.445312 322.894531 189.445312 " fill-opacity="1" fill-rule="nonzero"/><path fill="#000000" d="M 344.394531 167.953125 C 343.855469 167.953125 343.316406 167.746094 342.90625 167.335938 C 342.085938 166.515625 342.085938 165.183594 342.90625 164.363281 L 349.050781 158.222656 C 349.871094 157.398438 351.199219 157.398438 352.023438 158.222656 C 352.84375 159.042969 352.84375 160.371094 352.023438 161.1875 L 345.878906 167.335938 C 345.46875 167.746094 344.929688 167.953125 344.394531 167.953125 " fill-opacity="1" fill-rule="nonzero"/><path fill="#000000" d="M 191.066406 81.167969 C 185.199219 81.167969 180.425781 85.941406 180.425781 91.8125 C 180.425781 97.679688 185.199219 102.453125 191.066406 102.453125 C 196.933594 102.453125 201.707031 97.679688 201.707031 91.8125 C 201.707031 85.941406 196.933594 81.167969 191.066406 81.167969 Z M 191.066406 106.648438 C 182.882812 106.648438 176.226562 99.992188 176.226562 91.8125 C 176.226562 83.625 182.882812 76.96875 191.066406 76.96875 C 199.25 76.96875 205.910156 83.625 205.910156 91.8125 C 205.910156 99.992188 199.25 106.648438 191.066406 106.648438 " fill-opacity="1" fill-rule="nonzero"/><path fill="#000000" d="M 500.457031 178.78125 C 494.589844 178.78125 489.816406 183.554688 489.816406 189.417969 C 489.816406 195.292969 494.589844 200.0625 500.457031 200.0625 C 506.320312 200.0625 511.089844 195.292969 511.089844 189.417969 C 511.089844 183.554688 506.320312 178.78125 500.457031 178.78125 Z M 500.457031 204.265625 C 492.269531 204.265625 485.609375 197.605469 485.609375 189.417969 C 485.609375 181.238281 492.269531 174.582031 500.457031 174.582031 C 508.636719 174.582031 515.296875 181.238281 515.296875 189.417969 C 515.296875 197.605469 508.636719 204.265625 500.457031 204.265625 " fill-opacity="1" fill-rule="nonzero"/><path fill="#000000" d="M 153.5625 123.175781 C 150.5 123.175781 148.007812 125.664062 148.007812 128.726562 C 148.007812 131.789062 150.5 134.28125 153.5625 134.28125 C 156.625 134.28125 159.117188 131.789062 159.117188 128.726562 C 159.117188 125.664062 156.625 123.175781 153.5625 123.175781 Z M 153.5625 138.484375 C 148.179688 138.484375 143.804688 134.105469 143.804688 128.726562 C 143.804688 123.34375 148.179688 118.96875 153.5625 118.96875 C 158.941406 118.96875 163.320312 123.34375 163.320312 128.726562 C 163.320312 134.105469 158.941406 138.484375 153.5625 138.484375 " fill-opacity="1" fill-rule="nonzero"/><path fill="#99b9ff" d="M 542.082031 148.347656 C 542.082031 144.121094 545.507812 140.695312 549.738281 140.695312 C 553.96875 140.695312 557.390625 144.121094 557.390625 148.347656 C 557.390625 152.582031 553.96875 156.007812 549.738281 156.007812 C 545.507812 156.007812 542.082031 152.582031 542.082031 148.347656 " fill-opacity="1" fill-rule="nonzero"/><path fill="#99b9ff" d="M 800.21875 658.519531 C 800.21875 652.703125 804.933594 647.988281 810.75 647.988281 C 816.574219 647.988281 821.289062 652.703125 821.289062 658.519531 C 821.289062 664.34375 816.574219 669.0625 810.75 669.0625 C 804.933594 669.0625 800.21875 664.34375 800.21875 658.519531 " fill-opacity="1" fill-rule="nonzero"/><path fill="#000000" d="M 936.265625 170.234375 C 935.398438 170.234375 934.589844 169.699219 934.285156 168.847656 C 933.886719 167.75 934.460938 166.550781 935.546875 166.160156 L 966.523438 155.039062 C 967.613281 154.648438 968.820312 155.222656 969.207031 156.308594 C 969.601562 157.398438 969.039062 158.609375 967.933594 158.996094 L 936.972656 170.113281 C 936.738281 170.195312 936.492188 170.234375 936.265625 170.234375 " fill-opacity="1" fill-rule="nonzero"/><path fill="#000000" d="M 770.144531 229.855469 C 769.28125 229.855469 768.476562 229.316406 768.167969 228.460938 C 767.769531 227.371094 768.34375 226.164062 769.4375 225.773438 L 885.058594 184.277344 C 886.15625 183.882812 887.359375 184.449219 887.753906 185.539062 C 888.140625 186.632812 887.574219 187.839844 886.480469 188.234375 L 770.855469 229.726562 C 770.617188 229.808594 770.382812 229.855469 770.144531 229.855469 " fill-opacity="1" fill-rule="nonzero"/><path fill="#000000" d="M 764.660156 206.589844 C 763.957031 206.589844 763.285156 206.234375 762.886719 205.597656 C 762.269531 204.613281 762.566406 203.316406 763.550781 202.703125 L 785.449219 189.015625 C 786.4375 188.402344 787.722656 188.695312 788.34375 189.683594 C 788.960938 190.664062 788.65625 191.964844 787.679688 192.578125 L 765.773438 206.273438 C 765.429688 206.484375 765.046875 206.589844 764.660156 206.589844 " fill-opacity="1" fill-rule="nonzero"/></svg>